LibreBaskervilleNew-Italic.ufo
<glyph name="exclam" format="2">
  <advance width="317"/>
  <unicode hex="0021"/>
  <outline>
    <contour>
      <point x="164" y="207" type="curve"/>
      <point x="129" y="207" type="line"/>
      <point x="177" y="662" type="line" smooth="yes"/>
      <point x="186" y="747"/>
      <point x="206" y="780"/>
      <point x="252" y="780" type="curve" smooth="yes"/>
      <point x="289" y="780"/>
      <point x="307" y="758"/>
      <point x="307" y="705" type="curve" smooth="yes"/>
      <point x="307" y="655"/>
      <point x="291" y="614"/>
      <point x="243" y="494" type="curve" smooth="yes"/>
      <point x="206" y="401"/>
      <point x="175" y="280"/>
    </contour>
    <contour>
      <point x="119" y="-10" type="curve" smooth="yes"/>
      <point x="86" y="-10"/>
      <point x="57" y="15"/>
      <point x="57" y="51" type="curve" smooth="yes"/>
      <point x="57" y="87"/>
      <point x="84" y="116"/>
      <point x="120" y="116" type="curve" smooth="yes"/>
      <point x="156" y="116"/>
      <point x="183" y="86"/>
      <point x="183" y="52" type="curve" smooth="yes"/>
      <point x="183" y="17"/>
      <point x="154" y="-10"/>
    </contour>
  </outline>
</glyph>
<glyph name="dollar" format="2">
  <advance width="584"/>
  <unicode hex="0024"/>
  <outline>
    <contour>
      <point x="141" y="-146" type="line"/>
      <point x="175" y="-3" type="line"/>
      <point x="88" y="18"/>
      <point x="22" y="85"/>
      <point x="22" y="162" type="curve" smooth="yes"/>
      <point x="22" y="223"/>
      <point x="68" y="279"/>
      <point x="119" y="279" type="curve" smooth="yes"/>
      <point x="139" y="279"/>
      <point x="156" y="270"/>
      <point x="168" y="255" type="curve"/>
      <point x="131" y="240"/>
      <point x="107" y="200"/>
      <point x="107" y="154" type="curve" smooth="yes"/>
      <point x="107" y="101"/>
      <point x="137" y="64"/>
      <point x="188" y="49" type="curve"/>
      <point x="267" y="374" type="line"/>
      <point x="198" y="426"/>
      <point x="132" y="482"/>
      <point x="132" y="574" type="curve" smooth="yes"/>
      <point x="132" y="687"/>
      <point x="233" y="776"/>
      <point x="365" y="780" type="curve"/>
      <point x="386" y="865" type="line"/>
      <point x="443" y="865" type="line"/>
      <point x="421" y="776" type="line"/>
      <point x="505" y="762"/>
      <point x="561" y="710"/>
      <point x="561" y="641" type="curve" smooth="yes"/>
      <point x="561" y="583"/>
      <point x="522" y="544"/>
      <point x="466" y="544" type="curve" smooth="yes"/>
      <point x="444" y="544"/>
      <point x="433" y="550"/>
      <point x="425" y="565" type="curve"/>
      <point x="456" y="574"/>
      <point x="480" y="610"/>
      <point x="480" y="650" type="curve" smooth="yes"/>
      <point x="480" y="690"/>
      <point x="455" y="717"/>
      <point x="409" y="726" type="curve"/>
      <point x="345" y="461" type="line"/>
      <point x="419" y="407"/>
      <point x="503" y="348"/>
      <point x="503" y="233" type="curve" smooth="yes"/>
      <point x="503" y="101"/>
      <point x="381" y="-10"/>
      <point x="235" y="-10" type="curve" smooth="yes"/>
      <point x="231" y="-10" type="line"/>
      <point x="198" y="-146" type="line"/>
    </contour>
    <contour>
      <point x="414" y="185" type="curve" smooth="yes"/>
      <point x="414" y="249"/>
      <point x="369" y="294"/>
      <point x="315" y="337" type="curve"/>
      <point x="244" y="43" type="line"/>
      <point x="341" y="46"/>
      <point x="414" y="106"/>
    </contour>
    <contour>
      <point x="230" y="613" type="curve" smooth="yes"/>
      <point x="230" y="565"/>
      <point x="258" y="531"/>
      <point x="297" y="498" type="curve"/>
      <point x="352" y="727" type="line"/>
      <point x="279" y="720"/>
      <point x="230" y="676"/>
    </contour>
  </outline>
</glyph>
<glyph name="ampersand" format="2">
  <advance width="898"/>
  <unicode hex="0026"/>
  <outline>
    <contour>
      <point x="388" y="780" type="curve" smooth="yes"/>
      <point x="469" y="780"/>
      <point x="524" y="734"/>
      <point x="524" y="667" type="curve" smooth="yes"/>
      <point x="524" y="635"/>
      <point x="511" y="611"/>
      <point x="491" y="607" type="curve"/>
      <point x="469" y="657"/>
      <point x="426" y="688"/>
      <point x="376" y="688" type="curve" smooth="yes"/>
      <point x="315" y="688"/>
      <point x="271" y="643"/>
      <point x="271" y="579" type="curve" smooth="yes"/>
      <point x="271" y="546"/>
      <point x="283" y="524"/>
      <point x="305" y="517" type="curve" smooth="yes"/>
      <point x="370" y="496"/>
      <point x="386" y="483"/>
      <point x="386" y="452" type="curve" smooth="yes"/>
      <point x="386" y="423"/>
      <point x="368" y="406"/>
      <point x="338" y="406" type="curve" smooth="yes"/>
      <point x="283" y="406"/>
      <point x="276" y="463"/>
      <point x="227" y="463" type="curve" smooth="yes"/>
      <point x="181" y="463"/>
      <point x="146" y="411"/>
      <point x="146" y="342" type="curve" smooth="yes"/>
      <point x="146" y="204"/>
      <point x="275" y="95"/>
      <point x="437" y="95" type="curve" smooth="yes"/>
      <point x="587" y="95"/>
      <point x="714" y="199"/>
      <point x="714" y="321" type="curve" smooth="yes"/>
      <point x="714" y="405"/>
      <point x="653" y="470"/>
      <point x="574" y="470" type="curve" smooth="yes"/>
      <point x="509" y="470"/>
      <point x="465" y="434"/>
      <point x="465" y="380" type="curve" smooth="yes"/>
      <point x="465" y="340"/>
      <point x="489" y="309"/>
      <point x="519" y="309" type="curve" smooth="yes"/>
      <point x="534" y="309"/>
      <point x="542" y="317"/>
      <point x="542" y="333" type="curve" smooth="yes"/>
      <point x="542" y="342"/>
      <point x="540" y="355"/>
      <point x="540" y="364" type="curve" smooth="yes"/>
      <point x="540" y="387"/>
      <point x="556" y="404"/>
      <point x="579" y="404" type="curve" smooth="yes"/>
      <point x="607" y="404"/>
      <point x="630" y="376"/>
      <point x="630" y="342" type="curve" smooth="yes"/>
      <point x="630" y="295"/>
      <point x="584" y="256"/>
      <point x="527" y="256" type="curve" smooth="yes"/>
      <point x="463" y="256"/>
      <point x="416" y="310"/>
      <point x="416" y="384" type="curve" smooth="yes"/>
      <point x="416" y="480"/>
      <point x="496" y="547"/>
      <point x="610" y="547" type="curve" smooth="yes"/>
      <point x="715" y="547" type="line" smooth="yes"/>
      <point x="795" y="547"/>
      <point x="847" y="583"/>
      <point x="847" y="639" type="curve" smooth="yes"/>
      <point x="847" y="673"/>
      <point x="822" y="704"/>
      <point x="795" y="704" type="curve" smooth="yes"/>
      <point x="749" y="704"/>
      <point x="790" y="635"/>
      <point x="724" y="635" type="curve" smooth="yes"/>
      <point x="692" y="635"/>
      <point x="673" y="654"/>
      <point x="673" y="686" type="curve" smooth="yes"/>
      <point x="673" y="730"/>
      <point x="709" y="758"/>
      <point x="766" y="758" type="curve" smooth="yes"/>
      <point x="849" y="758"/>
      <point x="910" y="697"/>
      <point x="910" y="614" type="curve" smooth="yes"/>
      <point x="910" y="521"/>
      <point x="830" y="453"/>
      <point x="717" y="450" type="curve"/>
      <point x="715" y="446" type="line"/>
      <point x="750" y="425"/>
      <point x="774" y="364"/>
      <point x="774" y="297" type="curve" smooth="yes"/>
      <point x="774" y="126"/>
      <point x="613" y="-10"/>
      <point x="409" y="-10" type="curve" smooth="yes"/>
      <point x="210" y="-10"/>
      <point x="59" y="119"/>
      <point x="59" y="289" type="curve" smooth="yes"/>
      <point x="59" y="405"/>
      <point x="124" y="494"/>
      <point x="228" y="520" type="curve"/>
      <point x="218" y="542"/>
      <point x="211" y="582"/>
      <point x="211" y="614" type="curve" smooth="yes"/>
      <point x="211" y="712"/>
      <point x="284" y="780"/>
    </contour>
  </outline>
</glyph>
<glyph name="quotesingle" format="2">
  <advance width="207"/>
  <unicode hex="0027"/>
  <outline>
    <contour>
      <point x="183" y="564" type="curve"/>
      <point x="154" y="564" type="line"/>
      <point x="175" y="724"/>
      <point x="159" y="830"/>
      <point x="239" y="830" type="curve" smooth="yes"/>
      <point x="261" y="830"/>
      <point x="275" y="816"/>
      <point x="275" y="795" type="curve" smooth="yes"/>
      <point x="275" y="779"/>
      <point x="221" y="661"/>
    </contour>
  </outline>
</glyph>
<glyph name="parenleft" format="2">
  <advance width="337"/>
  <unicode hex="0028"/>
  <outline>
    <contour>
      <point x="419" y="831" type="curve"/>
      <point x="443" y="803" type="line"/>
      <point x="219" y="576"/>
      <point x="122" y="385"/>
      <point x="122" y="101" type="curve" smooth="yes"/>
      <point x="122" y="0"/>
      <point x="146" y="-85"/>
      <point x="198" y="-166" type="curve"/>
      <point x="160" y="-194" type="line"/>
      <point x="75" y="-83"/>
      <point x="32" y="39"/>
      <point x="32" y="167" type="curve" smooth="yes"/>
      <point x="32" y="400"/>
      <point x="170" y="633"/>
    </contour>
  </outline>
</glyph>
<glyph name="parenright" format="2">
  <advance width="335"/>
  <unicode hex="0029"/>
  <outline>
    <contour>
      <point x="153" y="803" type="curve"/>
      <point x="192" y="831" type="line"/>
      <point x="271" y="723"/>
      <point x="310" y="605"/>
      <point x="310" y="482" type="curve" smooth="yes"/>
      <point x="310" y="245"/>
      <point x="163" y="4"/>
      <point x="-92" y="-194" type="curve"/>
      <point x="-115" y="-166" type="line"/>
      <point x="72" y="-7"/>
      <point x="224" y="268"/>
      <point x="224" y="537" type="curve" smooth="yes"/>
      <point x="224" y="623"/>
      <point x="201" y="701"/>
    </contour>
  </outline>
</glyph>
<glyph name="plus" format="2">
  <advance width="578"/>
  <unicode hex="002B"/>
  <outline>
    <contour>
      <point x="315" y="104" type="line"/>
      <point x="263" y="104" type="line"/>
      <point x="263" y="313" type="line"/>
      <point x="55" y="313" type="line"/>
      <point x="55" y="363" type="line"/>
      <point x="263" y="363" type="line"/>
      <point x="263" y="572" type="line"/>
      <point x="315" y="572" type="line"/>
      <point x="315" y="363" type="line"/>
      <point x="523" y="363" type="line"/>
      <point x="523" y="313" type="line"/>
      <point x="315" y="313" type="line"/>
    </contour>
  </outline>
</glyph>
<glyph name="comma" format="2">
  <advance width="265"/>
  <unicode hex="002C"/>
  <outline>
    <contour>
      <point x="71" y="3" type="curve"/>
      <point x="63" y="1"/>
      <point x="56" y="0"/>
      <point x="50" y="0" type="curve" smooth="yes"/>
      <point x="16" y="0"/>
      <point x="-1" y="24"/>
      <point x="-1" y="58" type="curve" smooth="yes"/>
      <point x="-1" y="98"/>
      <point x="29" y="130"/>
      <point x="68" y="130" type="curve" smooth="yes"/>
      <point x="109" y="130"/>
      <point x="139" y="97"/>
      <point x="139" y="59" type="curve" smooth="yes"/>
      <point x="139" y="-15"/>
      <point x="84" y="-103"/>
      <point x="-16" y="-175" type="curve"/>
      <point x="-39" y="-143" type="line"/>
      <point x="32" y="-93"/>
      <point x="71" y="-36"/>
    </contour>
  </outline>
</glyph>
<glyph name="hyphen" format="2">
  <advance width="465"/>
  <unicode hex="002D"/>
  <outline>
    <contour>
      <point x="369" y="248" type="line"/>
      <point x="60" y="248" type="line"/>
      <point x="83" y="331" type="line"/>
      <point x="392" y="331" type="line"/>
    </contour>
  </outline>
</glyph>
<glyph name="period" format="2">
  <advance width="262"/>
  <unicode hex="002E"/>
  <outline>
    <contour>
      <point x="68" y="-10" type="curve" smooth="yes"/>
      <point x="31" y="-10"/>
      <point x="-1" y="18"/>
      <point x="-1" y="58" type="curve" smooth="yes"/>
      <point x="-1" y="98"/>
      <point x="29" y="130"/>
      <point x="68" y="130" type="curve" smooth="yes"/>
      <point x="109" y="130"/>
      <point x="139" y="97"/>
      <point x="139" y="59" type="curve" smooth="yes"/>
      <point x="139" y="20"/>
      <point x="107" y="-10"/>
    </contour>
  </outline>
</glyph>
<glyph name="slash" format="2">
  <advance width="390"/>
  <unicode hex="002F"/>
  <outline>
    <contour>
      <point x="457" y="770" type="line"/>
      <point x="40" y="0" type="line"/>
      <point x="-29" y="0" type="line"/>
      <point x="395" y="770" type="line"/>
    </contour>
  </outline>
</glyph>
<glyph name="zero" format="2">
  <advance width="656"/>
  <unicode hex="0030"/>
  <outline>
    <contour>
      <point x="260" y="-10" type="curve" smooth="yes"/>
      <point x="146" y="-10"/>
      <point x="69" y="98"/>
      <point x="69" y="258" type="curve" smooth="yes"/>
      <point x="69" y="514"/>
      <point x="257" y="780"/>
      <point x="437" y="780" type="curve" smooth="yes"/>
      <point x="552" y="780"/>
      <point x="629" y="678"/>
      <point x="629" y="525" type="curve" smooth="yes"/>
      <point x="629" y="271"/>
      <point x="435" y="-10"/>
    </contour>
    <contour>
      <point x="427" y="728" type="curve" smooth="yes"/>
      <point x="312" y="728"/>
      <point x="180" y="435"/>
      <point x="180" y="179" type="curve" smooth="yes"/>
      <point x="180" y="93"/>
      <point x="214" y="43"/>
      <point x="273" y="43" type="curve" smooth="yes"/>
      <point x="388" y="43"/>
      <point x="517" y="337"/>
      <point x="517" y="598" type="curve" smooth="yes"/>
      <point x="517" y="681"/>
      <point x="485" y="728"/>
    </contour>
  </outline>
</glyph>
<glyph name="one" format="2">
  <advance width="474"/>
  <unicode hex="0031"/>
  <outline>
    <contour>
      <point x="426" y="780" type="line"/>
      <point x="297" y="268" type="line" smooth="yes"/>
      <point x="284" y="215"/>
      <point x="270" y="166"/>
      <point x="270" y="127" type="curve" smooth="yes"/>
      <point x="270" y="74"/>
      <point x="295" y="40"/>
      <point x="377" y="40" type="curve"/>
      <point x="366" y="0" type="line"/>
      <point x="-4" y="0" type="line"/>
      <point x="7" y="40" type="line"/>
      <point x="100" y="40"/>
      <point x="145" y="69"/>
      <point x="172" y="179" type="curve" smooth="yes"/>
      <point x="274" y="590" type="line" smooth="yes"/>
      <point x="275" y="596"/>
      <point x="276" y="602"/>
      <point x="276" y="606" type="curve" smooth="yes"/>
      <point x="276" y="616"/>
      <point x="272" y="619"/>
      <point x="261" y="619" type="curve" smooth="yes"/>
      <point x="239" y="619"/>
      <point x="192" y="603"/>
      <point x="115" y="603" type="curve"/>
      <point x="121" y="645" type="line"/>
      <point x="236" y="645"/>
      <point x="317" y="709"/>
      <point x="389" y="780" type="curve"/>
    </contour>
  </outline>
</glyph>
<glyph name="two" format="2">
  <advance width="625"/>
  <unicode hex="0032"/>
  <outline>
    <contour>
      <point x="165" y="103" type="curve"/>
      <point x="165" y="98" type="line"/>
      <point x="369" y="98" type="line" smooth="yes"/>
      <point x="434" y="98"/>
      <point x="464" y="115"/>
      <point x="501" y="173" type="curve"/>
      <point x="538" y="173" type="line"/>
      <point x="475" y="0" type="line"/>
      <point x="11" y="0" type="line"/>
      <point x="20" y="53" type="line"/>
      <point x="354" y="319"/>
      <point x="472" y="461"/>
      <point x="472" y="600" type="curve" smooth="yes"/>
      <point x="472" y="677"/>
      <point x="429" y="728"/>
      <point x="359" y="728" type="curve" smooth="yes"/>
      <point x="281" y="728"/>
      <point x="220" y="666"/>
      <point x="220" y="591" type="curve" smooth="yes"/>
      <point x="220" y="531"/>
      <point x="254" y="496"/>
      <point x="314" y="496" type="curve"/>
      <point x="302" y="463"/>
      <point x="269" y="443"/>
      <point x="228" y="443" type="curve" smooth="yes"/>
      <point x="163" y="443"/>
      <point x="119" y="493"/>
      <point x="119" y="566" type="curve" smooth="yes"/>
      <point x="119" y="685"/>
      <point x="236" y="781"/>
      <point x="380" y="781" type="curve" smooth="yes"/>
      <point x="506" y="781"/>
      <point x="590" y="708"/>
      <point x="590" y="597" type="curve" smooth="yes"/>
      <point x="590" y="461"/>
      <point x="471" y="322"/>
    </contour>
  </outline>
</glyph>
<glyph name="four" format="2">
  <advance width="578"/>
  <unicode hex="0034"/>
  <outline>
    <contour>
      <point x="535" y="780" type="line"/>
      <point x="424" y="346" type="line"/>
      <point x="547" y="346" type="line"/>
      <point x="532" y="285" type="line"/>
      <point x="409" y="285" type="line"/>
      <point x="340" y="0" type="line"/>
      <point x="236" y="0" type="line"/>
      <point x="308" y="285" type="line"/>
      <point x="13" y="285" type="line"/>
      <point x="26" y="336" type="line"/>
      <point x="491" y="780" type="line"/>
    </contour>
    <contour>
      <point x="117" y="346" type="line"/>
      <point x="325" y="346" type="line"/>
      <point x="397" y="608" type="line"/>
      <point x="394" y="609" type="line"/>
    </contour>
  </outline>
</glyph>
<glyph name="five" format="2">
  <advance width="610"/>
  <unicode hex="0035"/>
  <outline>
    <contour>
      <point x="318" y="491" type="curve" smooth="yes"/>
      <point x="453" y="491"/>
      <point x="553" y="397"/>
      <point x="553" y="268" type="curve" smooth="yes"/>
      <point x="553" y="115"/>
      <point x="411" y="-10"/>
      <point x="237" y="-10" type="curve" smooth="yes"/>
      <point x="113" y="-10"/>
      <point x="31" y="53"/>
      <point x="31" y="149" type="curve" smooth="yes"/>
      <point x="31" y="222"/>
      <point x="79" y="284"/>
      <point x="137" y="284" type="curve" smooth="yes"/>
      <point x="169" y="284"/>
      <point x="197" y="265"/>
      <point x="202" y="240" type="curve"/>
      <point x="159" y="240"/>
      <point x="126" y="199"/>
      <point x="126" y="145" type="curve" smooth="yes"/>
      <point x="126" y="82"/>
      <point x="172" y="42"/>
      <point x="243" y="42" type="curve" smooth="yes"/>
      <point x="354" y="42"/>
      <point x="435" y="142"/>
      <point x="435" y="280" type="curve" smooth="yes"/>
      <point x="435" y="385"/>
      <point x="387" y="441"/>
      <point x="295" y="441" type="curve" smooth="yes"/>
      <point x="199" y="441"/>
      <point x="168" y="382"/>
      <point x="143" y="382" type="curve" smooth="yes"/>
      <point x="135" y="382"/>
      <point x="128" y="389"/>
      <point x="128" y="399" type="curve" smooth="yes"/>
      <point x="128" y="403"/>
      <point x="129" y="409"/>
      <point x="130" y="412" type="curve" smooth="yes"/>
      <point x="255" y="780" type="line"/>
      <point x="287" y="769"/>
      <point x="347" y="762"/>
      <point x="418" y="762" type="curve" smooth="yes"/>
      <point x="491" y="762"/>
      <point x="551" y="769"/>
      <point x="585" y="781" type="curve"/>
      <point x="591" y="780" type="line"/>
      <point x="563" y="700"/>
      <point x="505" y="661"/>
      <point x="417" y="661" type="curve" smooth="yes"/>
      <point x="378" y="661"/>
      <point x="320" y="669"/>
      <point x="278" y="679" type="curve"/>
      <point x="211" y="482" type="line"/>
      <point x="215" y="476" type="line"/>
      <point x="233" y="484"/>
      <point x="283" y="491"/>
    </contour>
  </outline>
</glyph>
<glyph name="seven" format="2">
  <advance width="524"/>
  <unicode hex="0037"/>
  <outline>
    <contour>
      <point x="499" y="680" type="line"/>
      <point x="313" y="680" type="line" smooth="yes"/>
      <point x="216" y="680"/>
      <point x="200" y="674"/>
      <point x="165" y="608" type="curve" smooth="yes"/>
      <point x="144" y="569" type="line"/>
      <point x="101" y="569" type="line"/>
      <point x="194" y="806" type="line"/>
      <point x="224" y="806" type="line" smooth="yes"/>
      <point x="224" y="803"/>
      <point x="223" y="802"/>
      <point x="223" y="798" type="curve" smooth="yes"/>
      <point x="223" y="778"/>
      <point x="243" y="770"/>
      <point x="296" y="770" type="curve" smooth="yes"/>
      <point x="599" y="770" type="line"/>
      <point x="596" y="750" type="line"/>
      <point x="516" y="634"/>
      <point x="413" y="442"/>
      <point x="242" y="136" type="curve" smooth="yes"/>
      <point x="178" y="21"/>
      <point x="149" y="-10"/>
      <point x="110" y="-10" type="curve" smooth="yes"/>
      <point x="82" y="-10"/>
      <point x="62" y="6"/>
      <point x="62" y="31" type="curve" smooth="yes"/>
      <point x="62" y="57"/>
      <point x="83" y="88"/>
      <point x="218" y="280" type="curve" smooth="yes"/>
    </contour>
  </outline>
</glyph>
<glyph name="eight" format="2">
  <advance width="639"/>
  <unicode hex="0038"/>
  <outline>
    <contour>
      <point x="416" y="429" type="curve"/>
      <point x="505" y="374"/>
      <point x="543" y="303"/>
      <point x="543" y="222" type="curve" smooth="yes"/>
      <point x="543" y="87"/>
      <point x="427" y="-10"/>
      <point x="266" y="-10" type="curve" smooth="yes"/>
      <point x="127" y="-10"/>
      <point x="43" y="62"/>
      <point x="43" y="182" type="curve" smooth="yes"/>
      <point x="43" y="291"/>
      <point x="112" y="364"/>
      <point x="253" y="404" type="curve"/>
      <point x="184" y="450"/>
      <point x="146" y="512"/>
      <point x="146" y="577" type="curve" smooth="yes"/>
      <point x="146" y="689"/>
      <point x="260" y="780"/>
      <point x="392" y="780" type="curve" smooth="yes"/>
      <point x="508" y="780"/>
      <point x="597" y="711"/>
      <point x="597" y="619" type="curve" smooth="yes"/>
      <point x="597" y="530"/>
      <point x="518" y="448"/>
    </contour>
    <contour>
      <point x="342" y="349" type="curve" smooth="yes"/>
      <point x="290" y="383" type="line"/>
      <point x="192" y="339"/>
      <point x="144" y="270"/>
      <point x="144" y="175" type="curve" smooth="yes"/>
      <point x="144" y="89"/>
      <point x="188" y="43"/>
      <point x="272" y="43" type="curve" smooth="yes"/>
      <point x="370" y="43"/>
      <point x="439" y="105"/>
      <point x="439" y="192" type="curve" smooth="yes"/>
      <point x="439" y="257"/>
      <point x="406" y="305"/>
    </contour>
    <contour>
      <point x="337" y="476" type="curve" smooth="yes"/>
      <point x="378" y="450" type="line"/>
      <point x="458" y="493"/>
      <point x="502" y="546"/>
      <point x="502" y="615" type="curve" smooth="yes"/>
      <point x="502" y="680"/>
      <point x="459" y="728"/>
      <point x="384" y="728" type="curve" smooth="yes"/>
      <point x="309" y="728"/>
      <point x="250" y="680"/>
      <point x="250" y="611" type="curve" smooth="yes"/>
      <point x="250" y="566"/>
      <point x="279" y="514"/>
    </contour>
  </outline>
</glyph>
<glyph name="nine" format="2">
  <advance width="634"/>
  <unicode hex="0039"/>
  <outline>
    <contour>
      <point x="113" y="501" type="curve" smooth="yes"/>
      <point x="113" y="650"/>
      <point x="242" y="780"/>
      <point x="388" y="780" type="curve" smooth="yes"/>
      <point x="519" y="780"/>
      <point x="601" y="672"/>
      <point x="601" y="500" type="curve" smooth="yes"/>
      <point x="601" y="236"/>
      <point x="409" y="-10"/>
      <point x="204" y="-10" type="curve" smooth="yes"/>
      <point x="115" y="-10"/>
      <point x="48" y="36"/>
      <point x="48" y="97" type="curve" smooth="yes"/>
      <point x="48" y="131"/>
      <point x="69" y="154"/>
      <point x="102" y="154" type="curve" smooth="yes"/>
      <point x="130" y="154"/>
      <point x="151" y="136"/>
      <point x="151" y="99" type="curve" smooth="yes"/>
      <point x="151" y="56"/>
      <point x="163" y="35"/>
      <point x="204" y="35" type="curve" smooth="yes"/>
      <point x="311" y="35"/>
      <point x="418" y="157"/>
      <point x="462" y="330" type="curve"/>
      <point x="459" y="332" type="line"/>
      <point x="415" y="305"/>
      <point x="371" y="292"/>
      <point x="322" y="292" type="curve" smooth="yes"/>
      <point x="197" y="292"/>
      <point x="113" y="376"/>
    </contour>
    <contour>
      <point x="340" y="341" type="curve" smooth="yes"/>
      <point x="436" y="341"/>
      <point x="500" y="432"/>
      <point x="500" y="568" type="curve" smooth="yes"/>
      <point x="500" y="676"/>
      <point x="463" y="735"/>
      <point x="394" y="735" type="curve" smooth="yes"/>
      <point x="302" y="735"/>
      <point x="232" y="630"/>
      <point x="232" y="495" type="curve" smooth="yes"/>
      <point x="232" y="393"/>
      <point x="269" y="341"/>
    </contour>
  </outline>
</glyph>
<glyph name="semicolon" format="2">
  <advance width="306"/>
  <unicode hex="003B"/>
  <outline>
    <contour>
      <point x="166" y="300" type="curve" smooth="yes"/>
      <point x="129" y="300"/>
      <point x="97" y="328"/>
      <point x="97" y="368" type="curve" smooth="yes"/>
      <point x="97" y="408"/>
      <point x="127" y="440"/>
      <point x="166" y="440" type="curve" smooth="yes"/>
      <point x="207" y="440"/>
      <point x="237" y="407"/>
      <point x="237" y="369" type="curve" smooth="yes"/>
      <point x="237" y="330"/>
      <point x="205" y="300"/>
    </contour>
    <contour>
      <point x="87" y="3" type="curve"/>
      <point x="79" y="1"/>
      <point x="72" y="0"/>
      <point x="66" y="0" type="curve" smooth="yes"/>
      <point x="32" y="0"/>
      <point x="15" y="24"/>
      <point x="15" y="58" type="curve" smooth="yes"/>
      <point x="15" y="98"/>
      <point x="45" y="130"/>
      <point x="84" y="130" type="curve" smooth="yes"/>
      <point x="125" y="130"/>
      <point x="155" y="97"/>
      <point x="155" y="59" type="curve" smooth="yes"/>
      <point x="155" y="-15"/>
      <point x="100" y="-103"/>
      <point x="0" y="-175" type="curve"/>
      <point x="-23" y="-143" type="line"/>
      <point x="48" y="-93"/>
      <point x="87" y="-36"/>
    </contour>
  </outline>
</glyph>
<glyph name="less" format="2">
  <advance width="618"/>
  <unicode hex="003C"/>
  <outline>
    <contour>
      <point x="101" y="336" type="line"/>
      <point x="514" y="126" type="line"/>
      <point x="514" y="72" type="line"/>
      <point x="56" y="304" type="line"/>
      <point x="56" y="368" type="line"/>
      <point x="514" y="600" type="line"/>
      <point x="514" y="544" type="line"/>
    </contour>
  </outline>
</glyph>
<glyph name="equal" format="2">
  <advance width="637"/>
  <unicode hex="003D"/>
  <outline>
    <contour>
      <point x="538" y="302" type="line"/>
      <point x="524" y="252" type="line"/>
      <point x="70" y="252" type="line"/>
      <point x="84" y="302" type="line"/>
    </contour>
    <contour>
      <point x="588" y="472" type="line"/>
      <point x="574" y="422" type="line"/>
      <point x="120" y="422" type="line"/>
      <point x="134" y="472" type="line"/>
    </contour>
  </outline>
</glyph>
<glyph name="question" format="2">
  <advance width="468"/>
  <unicode hex="003F"/>
  <outline>
    <contour>
      <point x="195" y="-10" type="curve" smooth="yes"/>
      <point x="160" y="-10"/>
      <point x="133" y="17"/>
      <point x="133" y="52" type="curve" smooth="yes"/>
      <point x="133" y="88"/>
      <point x="161" y="116"/>
      <point x="196" y="116" type="curve" smooth="yes"/>
      <point x="231" y="116"/>
      <point x="259" y="87"/>
      <point x="259" y="52" type="curve" smooth="yes"/>
      <point x="259" y="18"/>
      <point x="231" y="-10"/>
    </contour>
    <contour>
      <point x="142" y="290" type="curve" smooth="yes"/>
      <point x="142" y="480"/>
      <point x="422" y="501"/>
      <point x="422" y="638" type="curve" smooth="yes"/>
      <point x="422" y="693"/>
      <point x="377" y="733"/>
      <point x="314" y="733" type="curve" smooth="yes"/>
      <point x="258" y="733"/>
      <point x="215" y="702"/>
      <point x="215" y="660" type="curve" smooth="yes"/>
      <point x="215" y="606"/>
      <point x="285" y="640"/>
      <point x="285" y="582" type="curve" smooth="yes"/>
      <point x="285" y="551"/>
      <point x="264" y="533"/>
      <point x="230" y="533" type="curve" smooth="yes"/>
      <point x="176" y="533"/>
      <point x="134" y="577"/>
      <point x="134" y="634" type="curve" smooth="yes"/>
      <point x="134" y="715"/>
      <point x="217" y="781"/>
      <point x="319" y="781" type="curve" smooth="yes"/>
      <point x="420" y="781"/>
      <point x="486" y="717"/>
      <point x="486" y="621" type="curve" smooth="yes"/>
      <point x="486" y="419"/>
      <point x="196" y="384"/>
      <point x="196" y="274" type="curve" smooth="yes"/>
      <point x="196" y="248"/>
      <point x="212" y="234"/>
      <point x="242" y="234" type="curve" smooth="yes"/>
      <point x="274" y="234"/>
      <point x="297" y="250"/>
      <point x="316" y="285" type="curve"/>
      <point x="343" y="269" type="line"/>
      <point x="317" y="216"/>
      <point x="280" y="191"/>
      <point x="232" y="191" type="curve" smooth="yes"/>
      <point x="174" y="191"/>
      <point x="142" y="226"/>
    </contour>
  </outline>
</glyph>
<glyph name="B" format="2">
  <advance width="736"/>
  <unicode hex="0042"/>
  <outline>
    <contour>
      <point x="280" y="385" type="line"/>
      <point x="231" y="207" type="line" smooth="yes"/>
      <point x="224" y="182"/>
      <point x="210" y="130"/>
      <point x="210" y="105" type="curve" smooth="yes"/>
      <point x="210" y="51"/>
      <point x="262" y="45"/>
      <point x="304" y="45" type="curve" smooth="yes"/>
      <point x="451" y="45"/>
      <point x="537" y="128"/>
      <point x="537" y="239" type="curve" smooth="yes"/>
      <point x="537" y="340"/>
      <point x="472" y="385"/>
      <point x="337" y="385" type="curve" smooth="yes"/>
    </contour>
    <contour>
      <point x="-29" y="0" type="line"/>
      <point x="-18" y="40" type="line"/>
      <point x="63" y="40"/>
      <point x="89" y="55"/>
      <point x="117" y="159" type="curve" smooth="yes"/>
      <point x="235" y="600" type="line" smooth="yes"/>
      <point x="242" y="628"/>
      <point x="246" y="651"/>
      <point x="246" y="669" type="curve" smooth="yes"/>
      <point x="246" y="714"/>
      <point x="220" y="730"/>
      <point x="154" y="730" type="curve"/>
      <point x="165" y="770" type="line"/>
      <point x="433" y="770" type="line" smooth="yes"/>
      <point x="548" y="770"/>
      <point x="686" y="735"/>
      <point x="686" y="597" type="curve" smooth="yes"/>
      <point x="686" y="467"/>
      <point x="567" y="425"/>
      <point x="474" y="411" type="curve"/>
      <point x="474" y="407" type="line"/>
      <point x="590" y="383"/>
      <point x="654" y="318"/>
      <point x="654" y="221" type="curve" smooth="yes"/>
      <point x="654" y="85"/>
      <point x="520" y="0"/>
      <point x="337" y="0" type="curve" smooth="yes"/>
    </contour>
    <contour>
      <point x="349" y="645" type="curve" smooth="yes"/>
      <point x="293" y="436" type="line"/>
      <point x="367" y="436" type="line" smooth="yes"/>
      <point x="493" y="436"/>
      <point x="580" y="503"/>
      <point x="580" y="602" type="curve" smooth="yes"/>
      <point x="580" y="688"/>
      <point x="535" y="725"/>
      <point x="420" y="725" type="curve" smooth="yes"/>
      <point x="384" y="725"/>
      <point x="364" y="702"/>
    </contour>
  </outline>
</glyph>
<glyph name="C" format="2">
  <advance width="728"/>
  <unicode hex="0043"/>
  <outline>
    <contour>
      <point x="665" y="189" type="line"/>
      <point x="573" y="47"/>
      <point x="488" y="-10"/>
      <point x="365" y="-10" type="curve" smooth="yes"/>
      <point x="185" y="-10"/>
      <point x="73" y="110"/>
      <point x="73" y="301" type="curve" smooth="yes"/>
      <point x="73" y="554"/>
      <point x="273" y="780"/>
      <point x="498" y="780" type="curve" smooth="yes"/>
      <point x="562" y="780"/>
      <point x="619" y="761"/>
      <point x="678" y="720" type="curve"/>
      <point x="715" y="770" type="line"/>
      <point x="752" y="770" type="line"/>
      <point x="706" y="519" type="line"/>
      <point x="668" y="519" type="line"/>
      <point x="658" y="663"/>
      <point x="608" y="728"/>
      <point x="506" y="728" type="curve" smooth="yes"/>
      <point x="331" y="728"/>
      <point x="194" y="540"/>
      <point x="194" y="300" type="curve" smooth="yes"/>
      <point x="194" y="136"/>
      <point x="260" y="52"/>
      <point x="387" y="52" type="curve" smooth="yes"/>
      <point x="483" y="52"/>
      <point x="558" y="102"/>
      <point x="629" y="213" type="curve"/>
    </contour>
  </outline>
</glyph>
<glyph name="G" format="2">
  <advance width="809"/>
  <unicode hex="0047"/>
  <outline>
    <contour>
      <point x="387" y="44" type="curve" smooth="yes"/>
      <point x="499" y="44"/>
      <point x="582" y="106"/>
      <point x="582" y="222" type="curve" smooth="yes"/>
      <point x="582" y="275"/>
      <point x="563" y="300"/>
      <point x="497" y="300" type="curve"/>
      <point x="506" y="339" type="line"/>
      <point x="780" y="339" type="line"/>
      <point x="770" y="300" type="line"/>
      <point x="713" y="300"/>
      <point x="699" y="292"/>
      <point x="666" y="166" type="curve" smooth="yes"/>
      <point x="656" y="127"/>
      <point x="644" y="88"/>
      <point x="643" y="49" type="curve"/>
      <point x="582" y="39"/>
      <point x="512" y="-10"/>
      <point x="365" y="-10" type="curve" smooth="yes"/>
      <point x="185" y="-10"/>
      <point x="73" y="110"/>
      <point x="73" y="301" type="curve" smooth="yes"/>
      <point x="73" y="554"/>
      <point x="283" y="780"/>
      <point x="518" y="780" type="curve" smooth="yes"/>
      <point x="590" y="780"/>
      <point x="653" y="761"/>
      <point x="718" y="720" type="curve"/>
      <point x="755" y="770" type="line"/>
      <point x="792" y="770" type="line"/>
      <point x="756" y="550" type="line"/>
      <point x="718" y="550" type="line"/>
      <point x="705" y="672"/>
      <point x="646" y="728"/>
      <point x="526" y="728" type="curve" smooth="yes"/>
      <point x="339" y="728"/>
      <point x="194" y="540"/>
      <point x="194" y="300" type="curve" smooth="yes"/>
      <point x="194" y="130"/>
      <point x="260" y="44"/>
    </contour>
  </outline>
</glyph>
<glyph name="I" format="2">
  <advance width="420"/>
  <unicode hex="0049"/>
  <outline>
    <contour>
      <point x="329" y="566" type="curve" smooth="yes"/>
      <point x="224" y="168" type="line" smooth="yes"/>
      <point x="216" y="139"/>
      <point x="212" y="116"/>
      <point x="212" y="98" type="curve" smooth="yes"/>
      <point x="212" y="53"/>
      <point x="239" y="40"/>
      <point x="303" y="40" type="curve"/>
      <point x="291" y="0" type="line"/>
      <point x="-28" y="0" type="line"/>
      <point x="-17" y="40" type="line"/>
      <point x="62" y="40"/>
      <point x="92" y="60"/>
      <point x="118" y="158" type="curve" smooth="yes"/>
      <point x="235" y="600" type="line" smooth="yes"/>
      <point x="245" y="637"/>
      <point x="250" y="663"/>
      <point x="250" y="682" type="curve" smooth="yes"/>
      <point x="250" y="723"/>
      <point x="223" y="730"/>
      <point x="151" y="730" type="curve"/>
      <point x="162" y="770" type="line"/>
      <point x="487" y="770" type="line"/>
      <point x="476" y="730" type="line"/>
      <point x="388" y="730"/>
      <point x="365" y="702"/>
    </contour>
  </outline>
</glyph>
<glyph name="J" format="2">
  <advance width="543"/>
  <unicode hex="004A"/>
  <outline>
    <contour>
      <point x="134" y="43" type="curve" smooth="yes"/>
      <point x="199" y="43"/>
      <point x="252" y="109"/>
      <point x="282" y="222" type="curve" smooth="yes"/>
      <point x="381" y="600" type="line" smooth="yes"/>
      <point x="391" y="637"/>
      <point x="396" y="664"/>
      <point x="396" y="682" type="curve" smooth="yes"/>
      <point x="396" y="720"/>
      <point x="374" y="730"/>
      <point x="287" y="730" type="curve"/>
      <point x="298" y="770" type="line"/>
      <point x="623" y="770" type="line"/>
      <point x="612" y="730" type="line"/>
      <point x="531" y="730"/>
      <point x="511" y="704"/>
      <point x="475" y="566" type="curve" smooth="yes"/>
      <point x="375" y="186" type="line" smooth="yes"/>
      <point x="342" y="60"/>
      <point x="254" y="-10"/>
      <point x="135" y="-10" type="curve" smooth="yes"/>
      <point x="34" y="-10"/>
      <point x="-23" y="38"/>
      <point x="-23" y="121" type="curve" smooth="yes"/>
      <point x="-23" y="184"/>
      <point x="15" y="231"/>
      <point x="65" y="231" type="curve" smooth="yes"/>
      <point x="101" y="231"/>
      <point x="127" y="207"/>
      <point x="127" y="173" type="curve" smooth="yes"/>
      <point x="127" y="123"/>
      <point x="75" y="122"/>
      <point x="75" y="87" type="curve" smooth="yes"/>
      <point x="75" y="61"/>
      <point x="100" y="43"/>
    </contour>
  </outline>
</glyph>
<glyph name="P" format="2">
  <advance width="667"/>
  <unicode hex="0050"/>
  <outline>
    <contour>
      <point x="275" y="358" type="line"/>
      <point x="233" y="207" type="line" smooth="yes"/>
      <point x="220" y="160"/>
      <point x="212" y="122"/>
      <point x="212" y="105" type="curve" smooth="yes"/>
      <point x="212" y="65"/>
      <point x="250" y="45"/>
      <point x="326" y="45" type="curve"/>
      <point x="315" y="0" type="line"/>
      <point x="-17" y="0" type="line"/>
      <point x="-6" y="40" type="line"/>
      <point x="58" y="40"/>
      <point x="97" y="77"/>
      <point x="119" y="159" type="curve" smooth="yes"/>
      <point x="237" y="600" type="line" smooth="yes"/>
      <point x="246" y="633"/>
      <point x="250" y="658"/>
      <point x="250" y="675" type="curve" smooth="yes"/>
      <point x="250" y="715"/>
      <point x="227" y="728"/>
      <point x="146" y="730" type="curve"/>
      <point x="157" y="770" type="line"/>
      <point x="435" y="770" type="line" smooth="yes"/>
      <point x="606" y="770"/>
      <point x="708" y="706"/>
      <point x="708" y="598" type="curve" smooth="yes"/>
      <point x="708" y="459"/>
      <point x="556" y="358"/>
      <point x="347" y="358" type="curve" smooth="yes"/>
    </contour>
    <contour>
      <point x="351" y="645" type="curve" smooth="yes"/>
      <point x="288" y="409" type="line"/>
      <point x="337" y="409" type="line" smooth="yes"/>
      <point x="488" y="409"/>
      <point x="597" y="490"/>
      <point x="597" y="604" type="curve" smooth="yes"/>
      <point x="597" y="684"/>
      <point x="543" y="725"/>
      <point x="437" y="725" type="curve" smooth="yes"/>
      <point x="383" y="725"/>
      <point x="368" y="709"/>
    </contour>
  </outline>
</glyph>
<glyph name="V" format="2">
  <advance width="752"/>
  <unicode hex="0056"/>
  <outline>
    <contour>
      <point x="248" y="142" type="line"/>
      <point x="586" y="546" type="line" smooth="yes"/>
      <point x="660" y="634"/>
      <point x="698" y="681"/>
      <point x="698" y="705" type="curve" smooth="yes"/>
      <point x="698" y="725"/>
      <point x="675" y="730"/>
      <point x="629" y="730" type="curve"/>
      <point x="639" y="770" type="line"/>
      <point x="898" y="770" type="line"/>
      <point x="888" y="730" type="line"/>
      <point x="825" y="730"/>
      <point x="766" y="687"/>
      <point x="645" y="539" type="curve" smooth="yes"/>
      <point x="194" y="-10" type="line"/>
      <point x="110" y="-10" type="line"/>
      <point x="249" y="604" type="line" smooth="yes"/>
      <point x="257" y="639"/>
      <point x="261" y="665"/>
      <point x="261" y="681" type="curve" smooth="yes"/>
      <point x="261" y="720"/>
      <point x="241" y="730"/>
      <point x="168" y="730" type="curve"/>
      <point x="178" y="770" type="line"/>
      <point x="474" y="770" type="line"/>
      <point x="464" y="730" type="line"/>
      <point x="386" y="730"/>
      <point x="369" y="712"/>
      <point x="345" y="603" type="curve" smooth="yes"/>
      <point x="244" y="142" type="line"/>
    </contour>
  </outline>
</glyph>
<glyph name="X" format="2">
  <advance width="781"/>
  <unicode hex="0058"/>
  <outline>
    <contour>
      <point x="454" y="422" type="line"/>
      <point x="571" y="167" type="line" smooth="yes"/>
      <point x="617" y="67"/>
      <point x="649" y="40"/>
      <point x="722" y="40" type="curve"/>
      <point x="713" y="0" type="line"/>
      <point x="383" y="0" type="line"/>
      <point x="392" y="40" type="line"/>
      <point x="449" y="40"/>
      <point x="476" y="56"/>
      <point x="476" y="90" type="curve" smooth="yes"/>
      <point x="476" y="107"/>
      <point x="469" y="134"/>
      <point x="458" y="159" type="curve" smooth="yes"/>
      <point x="377" y="338" type="line"/>
      <point x="294" y="246" type="line" smooth="yes"/>
      <point x="215" y="159"/>
      <point x="181" y="105"/>
      <point x="181" y="76" type="curve" smooth="yes"/>
      <point x="181" y="51"/>
      <point x="205" y="40"/>
      <point x="259" y="40" type="curve"/>
      <point x="250" y="0" type="line"/>
      <point x="-39" y="0" type="line"/>
      <point x="-29" y="40" type="line"/>
      <point x="46" y="47"/>
      <point x="55" y="52"/>
      <point x="122" y="129" type="curve" smooth="yes"/>
      <point x="353" y="395" type="line"/>
      <point x="245" y="622" type="line" smooth="yes"/>
      <point x="203" y="709"/>
      <point x="175" y="730"/>
      <point x="108" y="730" type="curve"/>
      <point x="119" y="770" type="line"/>
      <point x="430" y="770" type="line"/>
      <point x="419" y="730" type="line"/>
      <point x="373" y="730"/>
      <point x="352" y="714"/>
      <point x="352" y="680" type="curve" smooth="yes"/>
      <point x="352" y="657"/>
      <point x="362" y="626"/>
      <point x="383" y="579" type="curve" smooth="yes"/>
      <point x="432" y="471" type="line"/>
      <point x="518" y="567" type="line" smooth="yes"/>
      <point x="579" y="635"/>
      <point x="606" y="676"/>
      <point x="606" y="700" type="curve" smooth="yes"/>
      <point x="606" y="720"/>
      <point x="587" y="730"/>
      <point x="548" y="730" type="curve"/>
      <point x="560" y="770" type="line"/>
      <point x="818" y="770" type="line"/>
      <point x="807" y="730" type="line"/>
      <point x="749" y="730"/>
      <point x="709" y="702"/>
      <point x="629" y="614" type="curve" smooth="yes"/>
    </contour>
  </outline>
</glyph>
<glyph name="Z" format="2">
  <advance width="672"/>
  <unicode hex="005A"/>
  <outline>
    <contour>
      <point x="696" y="751" type="line"/>
      <point x="158" y="50" type="line"/>
      <point x="283" y="50" type="line" smooth="yes"/>
      <point x="409" y="50"/>
      <point x="507" y="96"/>
      <point x="565" y="221" type="curve"/>
      <point x="608" y="221" type="line"/>
      <point x="524" y="0" type="line"/>
      <point x="-7" y="0" type="line"/>
      <point x="-7" y="21" type="line"/>
      <point x="536" y="722" type="line"/>
      <point x="435" y="722" type="line" smooth="yes"/>
      <point x="276" y="722"/>
      <point x="230" y="698"/>
      <point x="153" y="572" type="curve"/>
      <point x="110" y="572" type="line"/>
      <point x="211" y="770" type="line"/>
      <point x="696" y="770" type="line"/>
    </contour>
  </outline>
</glyph>
<glyph name="bracketleft" format="2">
  <advance width="369"/>
  <unicode hex="005B"/>
  <outline>
    <contour>
      <point x="470" y="773" type="line"/>
      <point x="319" y="773" type="line"/>
      <point x="82" y="-103" type="line"/>
      <point x="233" y="-103" type="line"/>
      <point x="220" y="-150" type="line"/>
      <point x="-20" y="-150" type="line"/>
      <point x="242" y="820" type="line"/>
      <point x="483" y="820" type="line"/>
    </contour>
  </outline>
</glyph>
<glyph name="backslash" format="2">
  <advance width="463"/>
  <unicode hex="005C"/>
  <outline>
    <contour>
      <point x="287" y="0" type="line"/>
      <point x="150" y="770" type="line"/>
      <point x="205" y="770" type="line"/>
      <point x="351" y="0" type="line"/>
    </contour>
  </outline>
</glyph>
<glyph name="bracketright" format="2">
  <advance width="369"/>
  <unicode hex="005D"/>
  <outline>
    <contour>
      <point x="-89" y="-103" type="line"/>
      <point x="61" y="-103" type="line"/>
      <point x="298" y="773" type="line"/>
      <point x="147" y="773" type="line"/>
      <point x="160" y="820" type="line"/>
      <point x="401" y="820" type="line"/>
      <point x="138" y="-150" type="line"/>
      <point x="-102" y="-150" type="line"/>
    </contour>
  </outline>
</glyph>
<glyph name="asciicircum" format="2">
  <advance width="481"/>
  <unicode hex="005E"/>
  <outline>
    <contour>
      <point x="225" y="409" type="line"/>
      <point x="315" y="409" type="line"/>
      <point x="387" y="230" type="line"/>
      <point x="342" y="230" type="line"/>
      <point x="254" y="348" type="line"/>
      <point x="104" y="230" type="line"/>
      <point x="60" y="230" type="line"/>
    </contour>
  </outline>
</glyph>
<glyph name="underscore" format="2">
  <advance width="731"/>
  <unicode hex="005F"/>
  <outline>
    <contour>
      <point x="525" y="-143" type="line"/>
      <point x="-45" y="-143" type="line"/>
      <point x="-22" y="-75" type="line"/>
      <point x="548" y="-75" type="line"/>
    </contour>
  </outline>
</glyph>
<glyph name="grave" format="2">
  <advance width="275"/>
  <unicode hex="0060"/>
  <outline>
    <contour>
      <point x="234" y="651" type="line"/>
      <point x="187" y="651" type="line"/>
      <point x="68" y="716" type="line" smooth="yes"/>
      <point x="44" y="729"/>
      <point x="29" y="743"/>
      <point x="29" y="760" type="curve" smooth="yes"/>
      <point x="29" y="787"/>
      <point x="54" y="803"/>
      <point x="78" y="803" type="curve" smooth="yes"/>
      <point x="99" y="803"/>
      <point x="117" y="793"/>
      <point x="136" y="770" type="curve" smooth="yes"/>
    </contour>
  </outline>
</glyph>
<glyph name="b" format="2">
  <advance width="534"/>
  <unicode hex="0062"/>
  <outline>
    <contour>
      <point x="331" y="829" type="line"/>
      <point x="204" y="444" type="line"/>
      <point x="207" y="442" type="line"/>
      <point x="246" y="503"/>
      <point x="307" y="539"/>
      <point x="372" y="539" type="curve" smooth="yes"/>
      <point x="453" y="539"/>
      <point x="499" y="484"/>
      <point x="499" y="397" type="curve" smooth="yes"/>
      <point x="499" y="207"/>
      <point x="320" y="-10"/>
      <point x="158" y="-10" type="curve" smooth="yes"/>
      <point x="82" y="-10"/>
      <point x="28" y="41"/>
      <point x="28" y="114" type="curve" smooth="yes"/>
      <point x="28" y="149"/>
      <point x="43" y="213"/>
      <point x="71" y="301" type="curve" smooth="yes"/>
      <point x="192" y="691" type="line" smooth="yes"/>
      <point x="199" y="715"/>
      <point x="207" y="743"/>
      <point x="207" y="755" type="curve" smooth="yes"/>
      <point x="207" y="779"/>
      <point x="183" y="790"/>
      <point x="131" y="790" type="curve"/>
      <point x="139" y="820" type="line"/>
    </contour>
    <contour>
      <point x="174" y="41" type="curve" smooth="yes"/>
      <point x="267" y="41"/>
      <point x="400" y="256"/>
      <point x="400" y="405" type="curve" smooth="yes"/>
      <point x="400" y="451"/>
      <point x="376" y="486"/>
      <point x="345" y="486" type="curve" smooth="yes"/>
      <point x="255" y="486"/>
      <point x="123" y="270"/>
      <point x="123" y="123" type="curve" smooth="yes"/>
      <point x="123" y="69"/>
      <point x="140" y="41"/>
    </contour>
  </outline>
</glyph>
<glyph name="d" format="2">
  <advance width="598"/>
  <unicode hex="0064"/>
  <outline>
    <contour>
      <point x="410" y="486" type="curve"/>
      <point x="468" y="692" type="line" smooth="yes"/>
      <point x="478" y="728"/>
      <point x="484" y="752"/>
      <point x="484" y="763" type="curve" smooth="yes"/>
      <point x="484" y="783"/>
      <point x="461" y="790"/>
      <point x="392" y="790" type="curve"/>
      <point x="403" y="830" type="line"/>
      <point x="596" y="830" type="line"/>
      <point x="485" y="425" type="line" smooth="yes"/>
      <point x="428" y="216"/>
      <point x="413" y="141"/>
      <point x="413" y="98" type="curve" smooth="yes"/>
      <point x="413" y="68"/>
      <point x="424" y="57"/>
      <point x="438" y="57" type="curve" smooth="yes"/>
      <point x="467" y="57"/>
      <point x="505" y="111"/>
      <point x="531" y="191" type="curve"/>
      <point x="569" y="182" type="line"/>
      <point x="524" y="51"/>
      <point x="471" y="-10"/>
      <point x="403" y="-10" type="curve" smooth="yes"/>
      <point x="355" y="-10"/>
      <point x="328" y="22"/>
      <point x="328" y="79" type="curve" smooth="yes"/>
      <point x="328" y="93"/>
      <point x="331" y="110"/>
      <point x="335" y="125" type="curve"/>
      <point x="327" y="127" type="line"/>
      <point x="277" y="39"/>
      <point x="197" y="-10"/>
      <point x="132" y="-10" type="curve" smooth="yes"/>
      <point x="64" y="-10"/>
      <point x="11" y="53"/>
      <point x="11" y="146" type="curve" smooth="yes"/>
      <point x="11" y="320"/>
      <point x="186" y="540"/>
      <point x="324" y="540" type="curve" smooth="yes"/>
      <point x="370" y="540"/>
      <point x="387" y="523"/>
    </contour>
    <contour>
      <point x="331" y="487" type="curve" smooth="yes"/>
      <point x="227" y="487"/>
      <point x="108" y="274"/>
      <point x="108" y="134" type="curve" smooth="yes"/>
      <point x="108" y="86"/>
      <point x="134" y="55"/>
      <point x="174" y="55" type="curve" smooth="yes"/>
      <point x="265" y="55"/>
      <point x="381" y="294"/>
      <point x="381" y="421" type="curve" smooth="yes"/>
      <point x="381" y="462"/>
      <point x="365" y="487"/>
    </contour>
  </outline>
</glyph>
<glyph name="e" format="2">
  <advance width="456"/>
  <unicode hex="0065"/>
  <outline>
    <contour>
      <point x="339" y="154" type="curve"/>
      <point x="371" y="133" type="line"/>
      <point x="314" y="39"/>
      <point x="240" y="-10"/>
      <point x="157" y="-10" type="curve" smooth="yes"/>
      <point x="66" y="-10"/>
      <point x="14" y="50"/>
      <point x="14" y="153" type="curve" smooth="yes"/>
      <point x="14" y="337"/>
      <point x="182" y="540"/>
      <point x="334" y="540" type="curve" smooth="yes"/>
      <point x="398" y="540"/>
      <point x="443" y="504"/>
      <point x="443" y="453" type="curve" smooth="yes"/>
      <point x="443" y="360"/>
      <point x="294" y="249"/>
      <point x="116" y="209" type="curve"/>
      <point x="113" y="190"/>
      <point x="112" y="172"/>
      <point x="112" y="154" type="curve" smooth="yes"/>
      <point x="112" y="83"/>
      <point x="139" y="45"/>
      <point x="189" y="45" type="curve" smooth="yes"/>
      <point x="238" y="45"/>
      <point x="294" y="86"/>
    </contour>
    <contour>
      <point x="314" y="493" type="curve" smooth="yes"/>
      <point x="244" y="493"/>
      <point x="160" y="376"/>
      <point x="126" y="254" type="curve"/>
      <point x="254" y="289"/>
      <point x="349" y="371"/>
      <point x="349" y="451" type="curve" smooth="yes"/>
      <point x="349" y="479"/>
      <point x="337" y="493"/>
    </contour>
  </outline>
</glyph>
<glyph name="f" format="2">
  <advance width="334"/>
  <unicode hex="0066"/>
  <outline>
    <contour>
      <point x="246" y="450" type="line"/>
      <point x="152" y="73" type="line" smooth="yes"/>
      <point x="84" y="-198"/>
      <point x="16" y="-260"/>
      <point x="-98" y="-260" type="curve" smooth="yes"/>
      <point x="-153" y="-260"/>
      <point x="-194" y="-227"/>
      <point x="-194" y="-184" type="curve" smooth="yes"/>
      <point x="-194" y="-151"/>
      <point x="-176" y="-130"/>
      <point x="-145" y="-130" type="curve" smooth="yes"/>
      <point x="-89" y="-130"/>
      <point x="-115" y="-200"/>
      <point x="-63" y="-200" type="curve" smooth="yes"/>
      <point x="-32" y="-200"/>
      <point x="-5" y="-165"/>
      <point x="8" y="-113" type="curve" smooth="yes"/>
      <point x="153" y="450" type="line"/>
      <point x="57" y="450" type="line"/>
      <point x="70" y="496" type="line"/>
      <point x="165" y="496" type="line"/>
      <point x="224" y="735"/>
      <point x="302" y="830"/>
      <point x="406" y="830" type="curve" smooth="yes"/>
      <point x="484" y="830"/>
      <point x="541" y="793"/>
      <point x="541" y="744" type="curve" smooth="yes"/>
      <point x="541" y="714"/>
      <point x="523" y="689"/>
      <point x="493" y="689" type="curve" smooth="yes"/>
      <point x="416" y="689"/>
      <point x="460" y="785"/>
      <point x="397" y="785" type="curve" smooth="yes"/>
      <point x="344" y="785"/>
      <point x="291" y="664"/>
      <point x="257" y="496" type="curve"/>
      <point x="358" y="496" type="line"/>
      <point x="344" y="450" type="line"/>
    </contour>
  </outline>
</glyph>
<glyph name="h" format="2">
  <advance width="574"/>
  <unicode hex="0068"/>
  <outline>
    <contour>
      <point x="356" y="311" type="curve" smooth="yes"/>
      <point x="379" y="379"/>
      <point x="388" y="415"/>
      <point x="388" y="445" type="curve" smooth="yes"/>
      <point x="388" y="476"/>
      <point x="379" y="487"/>
      <point x="355" y="487" type="curve" smooth="yes"/>
      <point x="273" y="487"/>
      <point x="198" y="363"/>
      <point x="100" y="69" type="curve" smooth="yes"/>
      <point x="77" y="0" type="line"/>
      <point x="-7" y="0" type="line"/>
      <point x="191" y="678" type="line" smooth="yes"/>
      <point x="200" y="711"/>
      <point x="206" y="738"/>
      <point x="206" y="752" type="curve" smooth="yes"/>
      <point x="206" y="779"/>
      <point x="185" y="788"/>
      <point x="117" y="790" type="curve"/>
      <point x="124" y="830" type="line"/>
      <point x="328" y="830" type="line"/>
      <point x="214" y="444" type="line"/>
      <point x="217" y="442" type="line"/>
      <point x="260" y="504"/>
      <point x="318" y="540"/>
      <point x="379" y="540" type="curve" smooth="yes"/>
      <point x="442" y="540"/>
      <point x="477" y="501"/>
      <point x="477" y="431" type="curve" smooth="yes"/>
      <point x="477" y="387"/>
      <point x="464" y="329"/>
      <point x="436" y="253" type="curve" smooth="yes"/>
      <point x="384" y="108"/>
      <point x="381" y="100"/>
      <point x="381" y="88" type="curve" smooth="yes"/>
      <point x="381" y="73"/>
      <point x="387" y="65"/>
      <point x="400" y="65" type="curve" smooth="yes"/>
      <point x="427" y="65"/>
      <point x="469" y="99"/>
      <point x="509" y="154" type="curve"/>
      <point x="537" y="133" type="line"/>
      <point x="495" y="55"/>
      <point x="404" y="-10"/>
      <point x="337" y="-10" type="curve" smooth="yes"/>
      <point x="301" y="-10"/>
      <point x="286" y="9"/>
      <point x="286" y="53" type="curve" smooth="yes"/>
      <point x="286" y="98"/>
      <point x="298" y="144"/>
    </contour>
  </outline>
</glyph>
<glyph name="j" format="2">
  <advance width="299"/>
  <unicode hex="006A"/>
  <outline>
    <contour>
      <point x="237" y="704" type="curve" smooth="yes"/>
      <point x="204" y="704"/>
      <point x="175" y="729"/>
      <point x="175" y="765" type="curve" smooth="yes"/>
      <point x="175" y="801"/>
      <point x="202" y="830"/>
      <point x="237" y="830" type="curve" smooth="yes"/>
      <point x="274" y="830"/>
      <point x="301" y="800"/>
      <point x="301" y="766" type="curve" smooth="yes"/>
      <point x="301" y="731"/>
      <point x="272" y="704"/>
    </contour>
    <contour>
      <point x="11" y="-113" type="curve" smooth="yes"/>
      <point x="122" y="331" type="line" smooth="yes"/>
      <point x="135" y="383"/>
      <point x="143" y="415"/>
      <point x="143" y="434" type="curve" smooth="yes"/>
      <point x="143" y="447"/>
      <point x="139" y="454"/>
      <point x="128" y="454" type="curve" smooth="yes"/>
      <point x="99" y="454"/>
      <point x="53" y="390"/>
      <point x="42" y="369" type="curve"/>
      <point x="13" y="387" type="line"/>
      <point x="44" y="447"/>
      <point x="137" y="540"/>
      <point x="206" y="540" type="curve" smooth="yes"/>
      <point x="241" y="540"/>
      <point x="256" y="522"/>
      <point x="256" y="484" type="curve" smooth="yes"/>
      <point x="256" y="440"/>
      <point x="236" y="368"/>
      <point x="208" y="267" type="curve" smooth="yes"/>
      <point x="125" y="-34" type="line" smooth="yes"/>
      <point x="93" y="-148"/>
      <point x="0" y="-260"/>
      <point x="-95" y="-260" type="curve" smooth="yes"/>
      <point x="-150" y="-260"/>
      <point x="-191" y="-227"/>
      <point x="-191" y="-184" type="curve" smooth="yes"/>
      <point x="-191" y="-148"/>
      <point x="-173" y="-125"/>
      <point x="-142" y="-125" type="curve" smooth="yes"/>
      <point x="-87" y="-125"/>
      <point x="-98" y="-200"/>
      <point x="-60" y="-200" type="curve" smooth="yes"/>
      <point x="-28" y="-200"/>
      <point x="-2" y="-165"/>
    </contour>
  </outline>
</glyph>
<glyph name="k" format="2">
  <advance width="513"/>
  <unicode hex="006B"/>
  <outline>
    <contour>
      <point x="357" y="80" type="curve" smooth="yes"/>
      <point x="377" y="80"/>
      <point x="404" y="105"/>
      <point x="439" y="155" type="curve"/>
      <point x="465" y="141" type="line"/>
      <point x="417" y="41"/>
      <point x="367" y="-10"/>
      <point x="316" y="-10" type="curve" smooth="yes"/>
      <point x="284" y="-10"/>
      <point x="267" y="9"/>
      <point x="242" y="68" type="curve" smooth="yes"/>
      <point x="175" y="228" type="line"/>
      <point x="153" y="218" type="line"/>
      <point x="90" y="0" type="line"/>
      <point x="-1" y="0" type="line"/>
      <point x="192" y="717" type="line" smooth="yes"/>
      <point x="197" y="736"/>
      <point x="199" y="746"/>
      <point x="199" y="754" type="curve" smooth="yes"/>
      <point x="199" y="782"/>
      <point x="179" y="790"/>
      <point x="106" y="790" type="curve"/>
      <point x="115" y="820" type="line"/>
      <point x="314" y="830" type="line"/>
      <point x="210" y="445" type="line"/>
      <point x="214" y="444" type="line"/>
      <point x="252" y="508"/>
      <point x="302" y="541"/>
      <point x="361" y="541" type="curve" smooth="yes"/>
      <point x="423" y="541"/>
      <point x="462" y="509"/>
      <point x="462" y="458" type="curve" smooth="yes"/>
      <point x="462" y="396"/>
      <point x="396" y="329"/>
      <point x="286" y="279" type="curve" smooth="yes"/>
      <point x="260" y="267" type="line"/>
      <point x="311" y="135" type="line" smooth="yes"/>
      <point x="325" y="97"/>
      <point x="339" y="80"/>
    </contour>
    <contour>
      <point x="162" y="268" type="curve"/>
      <point x="278" y="308"/>
      <point x="362" y="378"/>
      <point x="362" y="432" type="curve" smooth="yes"/>
      <point x="362" y="458"/>
      <point x="347" y="473"/>
      <point x="321" y="473" type="curve" smooth="yes"/>
      <point x="266" y="473"/>
      <point x="192" y="378"/>
    </contour>
  </outline>
</glyph>
<glyph name="l" format="2">
  <advance width="313"/>
  <unicode hex="006C"/>
  <outline>
    <contour>
      <point x="50" y="202" type="curve" smooth="yes"/>
      <point x="183" y="691" type="line" smooth="yes"/>
      <point x="189" y="715"/>
      <point x="198" y="743"/>
      <point x="198" y="755" type="curve" smooth="yes"/>
      <point x="198" y="779"/>
      <point x="174" y="790"/>
      <point x="122" y="790" type="curve"/>
      <point x="130" y="820" type="line"/>
      <point x="313" y="829" type="line"/>
      <point x="134" y="172" type="line" smooth="yes"/>
      <point x="124" y="136"/>
      <point x="118" y="109"/>
      <point x="118" y="90" type="curve" smooth="yes"/>
      <point x="118" y="78"/>
      <point x="124" y="67"/>
      <point x="139" y="67" type="curve" smooth="yes"/>
      <point x="182" y="67"/>
      <point x="240" y="151"/>
      <point x="256" y="181" type="curve"/>
      <point x="286" y="164" type="line"/>
      <point x="245" y="73"/>
      <point x="153" y="-10"/>
      <point x="91" y="-10" type="curve" smooth="yes"/>
      <point x="45" y="-10"/>
      <point x="23" y="9"/>
      <point x="23" y="55" type="curve" smooth="yes"/>
      <point x="23" y="82"/>
      <point x="30" y="124"/>
    </contour>
  </outline>
</glyph>
<glyph name="m" format="2">
  <advance width="870"/>
  <unicode hex="006D"/>
  <outline>
    <contour>
      <point x="663" y="333" type="curve" smooth="yes"/>
      <point x="698" y="432"/>
      <point x="701" y="442"/>
      <point x="701" y="459" type="curve" smooth="yes"/>
      <point x="701" y="480"/>
      <point x="695" y="488"/>
      <point x="681" y="488" type="curve" smooth="yes"/>
      <point x="645" y="488"/>
      <point x="594" y="437"/>
      <point x="537" y="346" type="curve" smooth="yes"/>
      <point x="496" y="281"/>
      <point x="477" y="234"/>
      <point x="395" y="0" type="curve"/>
      <point x="301" y="0" type="line"/>
      <point x="367" y="201" type="line" smooth="yes"/>
      <point x="423" y="371"/>
      <point x="439" y="427"/>
      <point x="439" y="455" type="curve" smooth="yes"/>
      <point x="439" y="476"/>
      <point x="430" y="488"/>
      <point x="414" y="488" type="curve" smooth="yes"/>
      <point x="361" y="488"/>
      <point x="256" y="354"/>
      <point x="209" y="227" type="curve" smooth="yes"/>
      <point x="125" y="0" type="line"/>
      <point x="37" y="0" type="line"/>
      <point x="111" y="229" type="line" smooth="yes"/>
      <point x="161" y="385"/>
      <point x="174" y="431"/>
      <point x="174" y="457" type="curve" smooth="yes"/>
      <point x="174" y="475"/>
      <point x="168" y="485"/>
      <point x="157" y="485" type="curve" smooth="yes"/>
      <point x="128" y="485"/>
      <point x="76" y="409"/>
      <point x="47" y="324" type="curve"/>
      <point x="17" y="339" type="line"/>
      <point x="64" y="475"/>
      <point x="121" y="540"/>
      <point x="195" y="540" type="curve" smooth="yes"/>
      <point x="238" y="540"/>
      <point x="254" y="518"/>
      <point x="254" y="462" type="curve" smooth="yes"/>
      <point x="254" y="430"/>
      <point x="249" y="401"/>
      <point x="237" y="370" type="curve"/>
      <point x="240" y="367" type="line"/>
      <point x="301" y="481"/>
      <point x="368" y="540"/>
      <point x="437" y="540" type="curve" smooth="yes"/>
      <point x="489" y="540"/>
      <point x="520" y="506"/>
      <point x="520" y="451" type="curve" smooth="yes"/>
      <point x="520" y="432"/>
      <point x="516" y="413"/>
      <point x="503" y="366" type="curve"/>
      <point x="505" y="363" type="line"/>
      <point x="580" y="490"/>
      <point x="637" y="540"/>
      <point x="707" y="540" type="curve" smooth="yes"/>
      <point x="759" y="540"/>
      <point x="785" y="513"/>
      <point x="785" y="453" type="curve" smooth="yes"/>
      <point x="785" y="415"/>
      <point x="771" y="369"/>
      <point x="735" y="262" type="curve" smooth="yes"/>
      <point x="689" y="125"/>
      <point x="685" y="110"/>
      <point x="685" y="87" type="curve" smooth="yes"/>
      <point x="685" y="73"/>
      <point x="688" y="68"/>
      <point x="695" y="68" type="curve" smooth="yes"/>
      <point x="715" y="68"/>
      <point x="754" y="105"/>
      <point x="818" y="185" type="curve"/>
      <point x="844" y="171" type="line"/>
      <point x="799" y="82"/>
      <point x="694" y="-10"/>
      <point x="638" y="-10" type="curve" smooth="yes"/>
      <point x="605" y="-10"/>
      <point x="584" y="21"/>
      <point x="584" y="69" type="curve" smooth="yes"/>
      <point x="584" y="102"/>
      <point x="594" y="135"/>
    </contour>
  </outline>
</glyph>
<glyph name="o" format="2">
  <advance width="523"/>
  <unicode hex="006F"/>
  <outline>
    <contour>
      <point x="187" y="-10" type="curve" smooth="yes"/>
      <point x="97" y="-10"/>
      <point x="24" y="65"/>
      <point x="24" y="191" type="curve" smooth="yes"/>
      <point x="24" y="365"/>
      <point x="165" y="540"/>
      <point x="311" y="540" type="curve" smooth="yes"/>
      <point x="407" y="540"/>
      <point x="476" y="464"/>
      <point x="476" y="348" type="curve" smooth="yes"/>
      <point x="476" y="180"/>
      <point x="331" y="-10"/>
    </contour>
    <contour>
      <point x="193" y="40" type="curve" smooth="yes"/>
      <point x="283" y="40"/>
      <point x="380" y="249"/>
      <point x="380" y="400" type="curve" smooth="yes"/>
      <point x="380" y="470"/>
      <point x="353" y="493"/>
      <point x="311" y="493" type="curve" smooth="yes"/>
      <point x="221" y="493"/>
      <point x="129" y="290"/>
      <point x="129" y="142" type="curve" smooth="yes"/>
      <point x="129" y="68"/>
      <point x="156" y="40"/>
    </contour>
  </outline>
</glyph>
<glyph name="p" format="2">
  <advance width="563"/>
  <unicode hex="0070"/>
  <outline>
    <contour>
      <point x="42" y="347" type="curve"/>
      <point x="15" y="375" type="line"/>
      <point x="64" y="431"/>
      <point x="128" y="477"/>
      <point x="195" y="505" type="curve"/>
      <point x="242" y="665" type="line"/>
      <point x="318" y="665" type="line"/>
      <point x="283" y="532" type="line"/>
      <point x="304" y="536"/>
      <point x="325" y="539"/>
      <point x="346" y="539" type="curve" smooth="yes"/>
      <point x="459" y="539"/>
      <point x="525" y="474"/>
      <point x="525" y="364" type="curve" smooth="yes"/>
      <point x="525" y="188"/>
      <point x="344" y="44"/>
      <point x="146" y="18" type="curve"/>
      <point x="109" y="-121" type="line" smooth="yes"/>
      <point x="103" y="-141"/>
      <point x="101" y="-154"/>
      <point x="101" y="-164" type="curve" smooth="yes"/>
      <point x="101" y="-197"/>
      <point x="125" y="-209"/>
      <point x="194" y="-210" type="curve"/>
      <point x="188" y="-250" type="line"/>
      <point x="-95" y="-250" type="line"/>
      <point x="-89" y="-210" type="line"/>
      <point x="-33" y="-210"/>
      <point x="-11" y="-199"/>
      <point x="-1" y="-164" type="curve" smooth="yes"/>
      <point x="180" y="454" type="line"/>
      <point x="129" y="428"/>
      <point x="82" y="390"/>
    </contour>
    <contour>
      <point x="320" y="490" type="curve" smooth="yes"/>
      <point x="303" y="490"/>
      <point x="286" y="488"/>
      <point x="270" y="485" type="curve"/>
      <point x="157" y="61" type="line"/>
      <point x="291" y="87"/>
      <point x="421" y="214"/>
      <point x="421" y="358" type="curve" smooth="yes"/>
      <point x="421" y="438"/>
      <point x="381" y="490"/>
    </contour>
  </outline>
</glyph>
<glyph name="q" format="2">
  <advance width="535"/>
  <unicode hex="0071"/>
  <outline>
    <contour>
      <point x="230" y="-164" type="curve" smooth="yes"/>
      <point x="303" y="85" type="line"/>
      <point x="300" y="87" type="line"/>
      <point x="264" y="24"/>
      <point x="209" y="-10"/>
      <point x="146" y="-10" type="curve" smooth="yes"/>
      <point x="63" y="-10"/>
      <point x="15" y="50"/>
      <point x="15" y="153" type="curve" smooth="yes"/>
      <point x="15" y="334"/>
      <point x="168" y="540"/>
      <point x="308" y="540" type="curve" smooth="yes"/>
      <point x="354" y="540"/>
      <point x="385" y="519"/>
      <point x="414" y="469" type="curve"/>
      <point x="438" y="540" type="line"/>
      <point x="514" y="540" type="line"/>
      <point x="330" y="-139" type="line" smooth="yes"/>
      <point x="325" y="-157"/>
      <point x="323" y="-166"/>
      <point x="323" y="-174" type="curve" smooth="yes"/>
      <point x="323" y="-198"/>
      <point x="341" y="-209"/>
      <point x="400" y="-210" type="curve"/>
      <point x="394" y="-250" type="line"/>
      <point x="136" y="-250" type="line"/>
      <point x="142" y="-210" type="line"/>
      <point x="197" y="-210"/>
      <point x="220" y="-199"/>
    </contour>
    <contour>
      <point x="313" y="488" type="curve" smooth="yes"/>
      <point x="227" y="488"/>
      <point x="119" y="293"/>
      <point x="119" y="146" type="curve" smooth="yes"/>
      <point x="119" y="83"/>
      <point x="138" y="50"/>
      <point x="177" y="50" type="curve" smooth="yes"/>
      <point x="266" y="50"/>
      <point x="371" y="232"/>
      <point x="371" y="379" type="curve" smooth="yes"/>
      <point x="371" y="452"/>
      <point x="350" y="488"/>
    </contour>
  </outline>
</glyph>
<glyph name="r" format="2">
  <advance width="463"/>
  <unicode hex="0072"/>
  <outline>
    <contour>
      <point x="47" y="378" type="curve"/>
      <point x="21" y="391" type="line"/>
      <point x="51" y="458"/>
      <point x="151" y="540"/>
      <point x="204" y="540" type="curve" smooth="yes"/>
      <point x="236" y="540"/>
      <point x="250" y="517"/>
      <point x="250" y="464" type="curve" smooth="yes"/>
      <point x="250" y="443"/>
      <point x="248" y="424"/>
      <point x="243" y="398" type="curve"/>
      <point x="246" y="395" type="line"/>
      <point x="279" y="473"/>
      <point x="369" y="550"/>
      <point x="429" y="550" type="curve" smooth="yes"/>
      <point x="467" y="550"/>
      <point x="497" y="522"/>
      <point x="497" y="486" type="curve" smooth="yes"/>
      <point x="497" y="451"/>
      <point x="472" y="426"/>
      <point x="438" y="426" type="curve" smooth="yes"/>
      <point x="396" y="426"/>
      <point x="392" y="463"/>
      <point x="368" y="463" type="curve" smooth="yes"/>
      <point x="317" y="463"/>
      <point x="229" y="319"/>
      <point x="170" y="138" type="curve" smooth="yes"/>
      <point x="125" y="0" type="line"/>
      <point x="32" y="0" type="line"/>
      <point x="97" y="207" type="line" smooth="yes"/>
      <point x="148" y="366"/>
      <point x="160" y="412"/>
      <point x="160" y="440" type="curve" smooth="yes"/>
      <point x="160" y="455"/>
      <point x="155" y="462"/>
      <point x="145" y="462" type="curve" smooth="yes"/>
      <point x="118" y="462"/>
      <point x="64" y="416"/>
    </contour>
  </outline>
</glyph>
<glyph name="x" format="2">
  <advance width="578"/>
  <unicode hex="0078"/>
  <outline>
    <contour>
      <point x="328" y="294" type="curve" smooth="yes"/>
      <point x="314" y="233" type="line" smooth="yes"/>
      <point x="303" y="186"/>
      <point x="298" y="150"/>
      <point x="298" y="121" type="curve" smooth="yes"/>
      <point x="298" y="68"/>
      <point x="315" y="44"/>
      <point x="351" y="44" type="curve" smooth="yes"/>
      <point x="395" y="44"/>
      <point x="441" y="80"/>
      <point x="503" y="161" type="curve"/>
      <point x="533" y="143" type="line"/>
      <point x="485" y="53"/>
      <point x="400" y="-10"/>
      <point x="328" y="-10" type="curve" smooth="yes"/>
      <point x="267" y="-10"/>
      <point x="225" y="35"/>
      <point x="217" y="109" type="curve"/>
      <point x="214" y="110" type="line"/>
      <point x="174" y="39"/>
      <point x="102" y="-10"/>
      <point x="37" y="-10" type="curve" smooth="yes"/>
      <point x="-15" y="-10"/>
      <point x="-51" y="23"/>
      <point x="-51" y="69" type="curve" smooth="yes"/>
      <point x="-51" y="106"/>
      <point x="-28" y="131"/>
      <point x="8" y="131" type="curve" smooth="yes"/>
      <point x="74" y="131"/>
      <point x="42" y="48"/>
      <point x="88" y="48" type="curve" smooth="yes"/>
      <point x="131" y="48"/>
      <point x="180" y="121"/>
      <point x="213" y="233" type="curve" smooth="yes"/>
      <point x="241" y="330" type="line" smooth="yes"/>
      <point x="253" y="371"/>
      <point x="259" y="403"/>
      <point x="259" y="427" type="curve" smooth="yes"/>
      <point x="259" y="462"/>
      <point x="247" y="481"/>
      <point x="226" y="481" type="curve" smooth="yes"/>
      <point x="189" y="481"/>
      <point x="117" y="423"/>
      <point x="74" y="359" type="curve"/>
      <point x="44" y="377" type="line"/>
      <point x="80" y="456"/>
      <point x="185" y="540"/>
      <point x="248" y="540" type="curve" smooth="yes"/>
      <point x="298" y="540"/>
      <point x="336" y="495"/>
      <point x="336" y="436" type="curve"/>
      <point x="375" y="498"/>
      <point x="435" y="540"/>
      <point x="485" y="540" type="curve" smooth="yes"/>
      <point x="531" y="540"/>
      <point x="568" y="505"/>
      <point x="568" y="461" type="curve" smooth="yes"/>
      <point x="568" y="429"/>
      <point x="548" y="407"/>
      <point x="518" y="407" type="curve" smooth="yes"/>
      <point x="461" y="407"/>
      <point x="486" y="482"/>
      <point x="445" y="482" type="curve" smooth="yes"/>
      <point x="402" y="482"/>
      <point x="353" y="404"/>
    </contour>
  </outline>
</glyph>
<glyph name="braceleft" format="2">
  <advance width="336"/>
  <unicode hex="007B"/>
  <outline>
    <contour>
      <point x="179" y="198" type="curve" smooth="yes"/>
      <point x="126" y="0" type="line" smooth="yes"/>
      <point x="120" y="-22"/>
      <point x="116" y="-42"/>
      <point x="116" y="-58" type="curve" smooth="yes"/>
      <point x="116" y="-93"/>
      <point x="133" y="-115"/>
      <point x="177" y="-128" type="curve"/>
      <point x="171" y="-150" type="line"/>
      <point x="68" y="-150"/>
      <point x="25" y="-131"/>
      <point x="25" y="-68" type="curve" smooth="yes"/>
      <point x="25" y="-48"/>
      <point x="29" y="-25"/>
      <point x="37" y="4" type="curve" smooth="yes"/>
      <point x="90" y="200" type="line" smooth="yes"/>
      <point x="95" y="218"/>
      <point x="98" y="237"/>
      <point x="98" y="254" type="curve" smooth="yes"/>
      <point x="98" y="293"/>
      <point x="82" y="326"/>
      <point x="36" y="330" type="curve"/>
      <point x="43" y="355" type="line"/>
      <point x="123" y="370"/>
      <point x="145" y="408"/>
      <point x="166" y="484" type="curve" smooth="yes"/>
      <point x="214" y="659" type="line" smooth="yes"/>
      <point x="249" y="786"/>
      <point x="289" y="830"/>
      <point x="432" y="830" type="curve"/>
      <point x="426" y="807" type="line"/>
      <point x="360" y="791"/>
      <point x="328" y="751"/>
      <point x="309" y="680" type="curve" smooth="yes"/>
      <point x="261" y="501" type="line" smooth="yes"/>
      <point x="239" y="419"/>
      <point x="211" y="363"/>
      <point x="121" y="345" type="curve"/>
      <point x="120" y="340" type="line"/>
      <point x="172" y="330"/>
      <point x="190" y="306"/>
      <point x="190" y="266" type="curve" smooth="yes"/>
      <point x="190" y="247"/>
      <point x="186" y="224"/>
    </contour>
  </outline>
</glyph>
<glyph name="braceright" format="2">
  <advance width="336"/>
  <unicode hex="007D"/>
  <outline>
    <contour>
      <point x="41" y="0" type="curve" smooth="yes"/>
      <point x="94" y="198" type="line" smooth="yes"/>
      <point x="115" y="278"/>
      <point x="146" y="326"/>
      <point x="231" y="340" type="curve"/>
      <point x="232" y="345" type="line"/>
      <point x="180" y="356"/>
      <point x="163" y="384"/>
      <point x="163" y="424" type="curve" smooth="yes"/>
      <point x="163" y="446"/>
      <point x="168" y="472"/>
      <point x="176" y="501" type="curve" smooth="yes"/>
      <point x="224" y="680" type="line" smooth="yes"/>
      <point x="230" y="702"/>
      <point x="233" y="720"/>
      <point x="233" y="737" type="curve" smooth="yes"/>
      <point x="233" y="773"/>
      <point x="216" y="796"/>
      <point x="177" y="807" type="curve"/>
      <point x="183" y="830" type="line"/>
      <point x="286" y="830"/>
      <point x="324" y="807"/>
      <point x="324" y="746" type="curve" smooth="yes"/>
      <point x="324" y="722"/>
      <point x="318" y="694"/>
      <point x="309" y="659" type="curve" smooth="yes"/>
      <point x="261" y="484" type="line" smooth="yes"/>
      <point x="254" y="459"/>
      <point x="250" y="439"/>
      <point x="250" y="422" type="curve" smooth="yes"/>
      <point x="250" y="386"/>
      <point x="268" y="365"/>
      <point x="316" y="355" type="curve"/>
      <point x="309" y="330" type="line"/>
      <point x="239" y="324"/>
      <point x="201" y="260"/>
      <point x="185" y="200" type="curve" smooth="yes"/>
      <point x="132" y="4" type="line" smooth="yes"/>
      <point x="99" y="-117"/>
      <point x="48" y="-150"/>
      <point x="-85" y="-150" type="curve"/>
      <point x="-79" y="-128" type="line"/>
      <point x="-8" y="-109"/>
      <point x="22" y="-72"/>
    </contour>
  </outline>
</glyph>
<glyph name="exclamdown" format="2">
  <advance width="318"/>
  <unicode hex="00A1"/>
  <outline>
    <contour>
      <point x="192" y="563" type="curve"/>
      <point x="226" y="563" type="line"/>
      <point x="179" y="108" type="line" smooth="yes"/>
      <point x="170" y="23"/>
      <point x="150" y="-10"/>
      <point x="104" y="-10" type="curve" smooth="yes"/>
      <point x="67" y="-10"/>
      <point x="49" y="12"/>
      <point x="49" y="65" type="curve" smooth="yes"/>
      <point x="49" y="115"/>
      <point x="65" y="156"/>
      <point x="113" y="276" type="curve" smooth="yes"/>
      <point x="150" y="369"/>
      <point x="181" y="490"/>
    </contour>
    <contour>
      <point x="237" y="780" type="curve" smooth="yes"/>
      <point x="270" y="780"/>
      <point x="299" y="755"/>
      <point x="299" y="719" type="curve" smooth="yes"/>
      <point x="299" y="683"/>
      <point x="272" y="654"/>
      <point x="236" y="654" type="curve" smooth="yes"/>
      <point x="200" y="654"/>
      <point x="173" y="684"/>
      <point x="173" y="718" type="curve" smooth="yes"/>
      <point x="173" y="753"/>
      <point x="202" y="780"/>
    </contour>
  </outline>
</glyph>
<glyph name="sterling" format="2">
  <advance width="682"/>
  <unicode hex="00A3"/>
  <outline>
    <contour>
      <point x="511" y="780" type="curve" smooth="yes"/>
      <point x="611" y="780"/>
      <point x="675" y="739"/>
      <point x="675" y="675" type="curve" smooth="yes"/>
      <point x="675" y="620"/>
      <point x="640" y="581"/>
      <point x="591" y="581" type="curve" smooth="yes"/>
      <point x="575" y="581"/>
      <point x="555" y="586"/>
      <point x="549" y="593" type="curve"/>
      <point x="561" y="602"/>
      <point x="574" y="639"/>
      <point x="574" y="665" type="curve" smooth="yes"/>
      <point x="574" y="708"/>
      <point x="547" y="729"/>
      <point x="493" y="729" type="curve" smooth="yes"/>
      <point x="399" y="729"/>
      <point x="347" y="659"/>
      <point x="347" y="534" type="curve" smooth="yes"/>
      <point x="347" y="431" type="line"/>
      <point x="564" y="431" type="line"/>
      <point x="550" y="381" type="line"/>
      <point x="346" y="381" type="line"/>
      <point x="346" y="285"/>
      <point x="312" y="177"/>
      <point x="260" y="111" type="curve"/>
      <point x="309" y="98"/>
      <point x="379" y="89"/>
      <point x="422" y="89" type="curve" smooth="yes"/>
      <point x="489" y="89"/>
      <point x="540" y="110"/>
      <point x="589" y="158" type="curve"/>
      <point x="598" y="154" type="line"/>
      <point x="569" y="45"/>
      <point x="505" y="-10"/>
      <point x="406" y="-10" type="curve" smooth="yes"/>
      <point x="352" y="-10"/>
      <point x="307" y="7"/>
      <point x="220" y="59" type="curve"/>
      <point x="183" y="18"/>
      <point x="119" y="-10"/>
      <point x="63" y="-10" type="curve" smooth="yes"/>
      <point x="10" y="-10"/>
      <point x="-18" y="14"/>
      <point x="-18" y="58" type="curve" smooth="yes"/>
      <point x="-18" y="119"/>
      <point x="37" y="165"/>
      <point x="108" y="165" type="curve" smooth="yes"/>
      <point x="143" y="165"/>
      <point x="179" y="153"/>
      <point x="211" y="132" type="curve"/>
      <point x="230" y="173"/>
      <point x="237" y="211"/>
      <point x="237" y="276" type="curve" smooth="yes"/>
      <point x="237" y="328"/>
      <point x="236" y="356"/>
      <point x="233" y="381" type="curve"/>
      <point x="94" y="381" type="line"/>
      <point x="108" y="431" type="line"/>
      <point x="228" y="431" type="line"/>
      <point x="228" y="470" type="line" smooth="yes"/>
      <point x="228" y="650"/>
      <point x="347" y="780"/>
    </contour>
    <contour>
      <point x="181" y="83" type="curve"/>
      <point x="148" y="101"/>
      <point x="123" y="109"/>
      <point x="101" y="109" type="curve" smooth="yes"/>
      <point x="70" y="109"/>
      <point x="48" y="93"/>
      <point x="48" y="70" type="curve" smooth="yes"/>
      <point x="48" y="53"/>
      <point x="61" y="45"/>
      <point x="88" y="45" type="curve" smooth="yes"/>
      <point x="121" y="45"/>
      <point x="152" y="58"/>
    </contour>
  </outline>
</glyph>
<glyph name="currency" format="2">
  <advance width="697"/>
  <unicode hex="00A4"/>
  <outline>
    <contour>
      <point x="94" y="57" type="line"/>
      <point x="165" y="128" type="line"/>
      <point x="135" y="165"/>
      <point x="118" y="211"/>
      <point x="118" y="263" type="curve" smooth="yes"/>
      <point x="118" y="315"/>
      <point x="134" y="361"/>
      <point x="165" y="399" type="curve"/>
      <point x="93" y="471" type="line"/>
      <point x="128" y="506" type="line"/>
      <point x="200" y="434" type="line"/>
      <point x="237" y="464"/>
      <point x="283" y="481"/>
      <point x="335" y="481" type="curve" smooth="yes"/>
      <point x="387" y="481"/>
      <point x="432" y="464"/>
      <point x="470" y="434" type="curve"/>
      <point x="542" y="506" type="line"/>
      <point x="577" y="471" type="line"/>
      <point x="505" y="399" type="line"/>
      <point x="536" y="361"/>
      <point x="553" y="315"/>
      <point x="553" y="263" type="curve" smooth="yes"/>
      <point x="553" y="211"/>
      <point x="536" y="165"/>
      <point x="506" y="128" type="curve"/>
      <point x="577" y="57" type="line"/>
      <point x="542" y="22" type="line"/>
      <point x="471" y="93" type="line"/>
      <point x="433" y="62"/>
      <point x="387" y="46"/>
      <point x="335" y="46" type="curve" smooth="yes"/>
      <point x="282" y="46"/>
      <point x="236" y="63"/>
      <point x="199" y="94" type="curve"/>
      <point x="128" y="23" type="line"/>
    </contour>
    <contour>
      <point x="168" y="263" type="curve" smooth="yes"/>
      <point x="168" y="171"/>
      <point x="243" y="96"/>
      <point x="335" y="96" type="curve" smooth="yes"/>
      <point x="427" y="96"/>
      <point x="503" y="171"/>
      <point x="503" y="263" type="curve" smooth="yes"/>
      <point x="503" y="355"/>
      <point x="427" y="431"/>
      <point x="335" y="431" type="curve" smooth="yes"/>
      <point x="243" y="431"/>
      <point x="168" y="355"/>
    </contour>
  </outline>
</glyph>
<glyph name="yen" format="2">
  <advance width="765"/>
  <unicode hex="00A5"/>
  <outline>
    <contour>
      <point x="638" y="243" type="line"/>
      <point x="624" y="193" type="line"/>
      <point x="448" y="193" type="line"/>
      <point x="442" y="168" type="line" smooth="yes"/>
      <point x="434" y="139"/>
      <point x="430" y="116"/>
      <point x="430" y="98" type="curve" smooth="yes"/>
      <point x="430" y="53"/>
      <point x="460" y="40"/>
      <point x="531" y="40" type="curve"/>
      <point x="519" y="0" type="line"/>
      <point x="180" y="0" type="line"/>
      <point x="191" y="40" type="line"/>
      <point x="277" y="40"/>
      <point x="310" y="59"/>
      <point x="336" y="158" type="curve" smooth="yes"/>
      <point x="345" y="193" type="line"/>
      <point x="170" y="193" type="line"/>
      <point x="184" y="243" type="line"/>
      <point x="358" y="243" type="line"/>
      <point x="382" y="336" type="line"/>
      <point x="211" y="336" type="line"/>
      <point x="225" y="386" type="line"/>
      <point x="361" y="386" type="line"/>
      <point x="262" y="624" type="line" smooth="yes"/>
      <point x="222" y="720"/>
      <point x="205" y="730"/>
      <point x="139" y="730" type="curve"/>
      <point x="150" y="770" type="line"/>
      <point x="431" y="770" type="line"/>
      <point x="420" y="730" type="line"/>
      <point x="370" y="730"/>
      <point x="349" y="721"/>
      <point x="349" y="695" type="curve" smooth="yes"/>
      <point x="349" y="686"/>
      <point x="351" y="673"/>
      <point x="357" y="659" type="curve" smooth="yes"/>
      <point x="464" y="401" type="line"/>
      <point x="603" y="604" type="line" smooth="yes"/>
      <point x="632" y="646"/>
      <point x="644" y="663"/>
      <point x="644" y="687" type="curve" smooth="yes"/>
      <point x="644" y="715"/>
      <point x="616" y="730"/>
      <point x="570" y="730" type="curve"/>
      <point x="581" y="770" type="line"/>
      <point x="828" y="770" type="line"/>
      <point x="817" y="730" type="line"/>
      <point x="763" y="730"/>
      <point x="750" y="716"/>
      <point x="703" y="649" type="curve" smooth="yes"/>
      <point x="516" y="386" type="line"/>
      <point x="679" y="386" type="line"/>
      <point x="665" y="336" type="line"/>
      <point x="486" y="336" type="line"/>
      <point x="461" y="243" type="line"/>
    </contour>
  </outline>
</glyph>
<glyph name="brokenbar" format="2">
  <advance width="338"/>
  <unicode hex="00A6"/>
  <outline>
    <contour>
      <point x="122" y="750" type="line"/>
      <point x="202" y="750" type="line"/>
      <point x="202" y="365" type="line"/>
      <point x="122" y="365" type="line"/>
    </contour>
    <contour>
      <point x="122" y="205" type="line"/>
      <point x="202" y="205" type="line"/>
      <point x="202" y="-180" type="line"/>
      <point x="122" y="-180" type="line"/>
    </contour>
  </outline>
</glyph>
<glyph name="section" format="2">
  <advance width="621"/>
  <unicode hex="00A7"/>
  <outline>
    <contour>
      <point x="121" y="-47" type="curve" smooth="yes"/>
      <point x="121" y="-104"/>
      <point x="140" y="-127"/>
      <point x="169" y="-127" type="curve" smooth="yes"/>
      <point x="215" y="-127"/>
      <point x="237" y="-82"/>
      <point x="237" y="2" type="curve" smooth="yes"/>
      <point x="237" y="138"/>
      <point x="133" y="383"/>
      <point x="133" y="529" type="curve" smooth="yes"/>
      <point x="133" y="750"/>
      <point x="302" y="830"/>
      <point x="442" y="830" type="curve" smooth="yes"/>
      <point x="530" y="830"/>
      <point x="613" y="781"/>
      <point x="613" y="698" type="curve" smooth="yes"/>
      <point x="613" y="656"/>
      <point x="590" y="628"/>
      <point x="557" y="628" type="curve" smooth="yes"/>
      <point x="531" y="628"/>
      <point x="502" y="640"/>
      <point x="502" y="693" type="curve" smooth="yes"/>
      <point x="502" y="704"/>
      <point x="505" y="719"/>
      <point x="505" y="732" type="curve" smooth="yes"/>
      <point x="505" y="764"/>
      <point x="491" y="790"/>
      <point x="445" y="790" type="curve" smooth="yes"/>
      <point x="412" y="790"/>
      <point x="381" y="761"/>
      <point x="381" y="693" type="curve" smooth="yes"/>
      <point x="381" y="539"/>
      <point x="502" y="307"/>
      <point x="502" y="132" type="curve" smooth="yes"/>
      <point x="502" y="-93"/>
      <point x="317" y="-173"/>
      <point x="181" y="-173" type="curve" smooth="yes"/>
      <point x="84" y="-173"/>
      <point x="-1" y="-129"/>
      <point x="-1" y="-42" type="curve" smooth="yes"/>
      <point x="-1" y="1"/>
      <point x="24" y="28"/>
      <point x="64" y="28" type="curve" smooth="yes"/>
      <point x="103" y="28"/>
      <point x="121" y="5"/>
    </contour>
    <contour>
      <point x="401" y="89" type="curve" smooth="yes"/>
      <point x="401" y="232"/>
      <point x="299" y="482"/>
      <point x="299" y="621" type="curve" smooth="yes"/>
      <point x="299" y="689"/>
      <point x="301" y="725"/>
      <point x="344" y="771" type="curve"/>
      <point x="266" y="734"/>
      <point x="233" y="677"/>
      <point x="233" y="589" type="curve" smooth="yes"/>
      <point x="233" y="453"/>
      <point x="330" y="195"/>
      <point x="330" y="36" type="curve" smooth="yes"/>
      <point x="330" y="-38"/>
      <point x="316" y="-84"/>
      <point x="263" y="-122" type="curve"/>
      <point x="360" y="-98"/>
      <point x="401" y="-20"/>
    </contour>
  </outline>
</glyph>
<glyph name="copyright" format="2">
  <advance width="918"/>
  <unicode hex="00A9"/>
  <outline>
    <contour>
      <point x="865" y="386" type="curve" smooth="yes"/>
      <point x="865" y="166"/>
      <point x="691" y="-10"/>
      <point x="476" y="-10" type="curve" smooth="yes"/>
      <point x="263" y="-10"/>
      <point x="91" y="168"/>
      <point x="91" y="385" type="curve" smooth="yes"/>
      <point x="91" y="602"/>
      <point x="262" y="780"/>
      <point x="475" y="780" type="curve" smooth="yes"/>
      <point x="691" y="780"/>
      <point x="865" y="605"/>
    </contour>
    <contour>
      <point x="817" y="386" type="curve" smooth="yes"/>
      <point x="817" y="579"/>
      <point x="664" y="732"/>
      <point x="475" y="732" type="curve" smooth="yes"/>
      <point x="287" y="732"/>
      <point x="139" y="575"/>
      <point x="139" y="385" type="curve" smooth="yes"/>
      <point x="139" y="194"/>
      <point x="288" y="38"/>
      <point x="476" y="38" type="curve" smooth="yes"/>
      <point x="664" y="38"/>
      <point x="817" y="194"/>
    </contour>
    <contour>
      <point x="618" y="305" type="curve"/>
      <point x="651" y="305" type="line"/>
      <point x="632" y="217"/>
      <point x="577" y="157"/>
      <point x="478" y="157" type="curve" smooth="yes"/>
      <point x="345" y="157"/>
      <point x="260" y="243"/>
      <point x="260" y="375" type="curve" smooth="yes"/>
      <point x="260" y="514"/>
      <point x="351" y="609"/>
      <point x="484" y="609" type="curve" smooth="yes"/>
      <point x="528" y="609"/>
      <point x="564" y="597"/>
      <point x="610" y="568" type="curve"/>
      <point x="620" y="603" type="line"/>
      <point x="641" y="603" type="line"/>
      <point x="646" y="472" type="line"/>
      <point x="620" y="472" type="line"/>
      <point x="604" y="532"/>
      <point x="554" y="569"/>
      <point x="489" y="569" type="curve" smooth="yes"/>
      <point x="399" y="569"/>
      <point x="347" y="498"/>
      <point x="347" y="379" type="curve" smooth="yes"/>
      <point x="347" y="262"/>
      <point x="398" y="198"/>
      <point x="491" y="198" type="curve" smooth="yes"/>
      <point x="556" y="198"/>
      <point x="599" y="235"/>
    </contour>
  </outline>
</glyph>
<glyph name="logicalnot" format="2">
  <advance width="676"/>
  <unicode hex="00AC"/>
  <outline>
    <contour>
      <point x="504" y="110" type="line"/>
      <point x="504" y="313" type="line"/>
      <point x="96" y="313" type="line"/>
      <point x="96" y="363" type="line"/>
      <point x="554" y="363" type="line"/>
      <point x="554" y="110" type="line"/>
    </contour>
  </outline>
</glyph>
<glyph name="registered" format="2">
  <advance width="918"/>
  <unicode hex="00AE"/>
  <outline>
    <contour>
      <point x="865" y="386" type="curve" smooth="yes"/>
      <point x="865" y="166"/>
      <point x="691" y="-10"/>
      <point x="476" y="-10" type="curve" smooth="yes"/>
      <point x="263" y="-10"/>
      <point x="91" y="168"/>
      <point x="91" y="385" type="curve" smooth="yes"/>
      <point x="91" y="602"/>
      <point x="262" y="780"/>
      <point x="475" y="780" type="curve" smooth="yes"/>
      <point x="691" y="780"/>
      <point x="865" y="605"/>
    </contour>
    <contour>
      <point x="817" y="386" type="curve" smooth="yes"/>
      <point x="817" y="579"/>
      <point x="664" y="732"/>
      <point x="475" y="732" type="curve" smooth="yes"/>
      <point x="287" y="732"/>
      <point x="139" y="575"/>
      <point x="139" y="385" type="curve" smooth="yes"/>
      <point x="139" y="194"/>
      <point x="288" y="38"/>
      <point x="476" y="38" type="curve" smooth="yes"/>
      <point x="664" y="38"/>
      <point x="817" y="194"/>
    </contour>
    <contour>
      <point x="626" y="507" type="curve" smooth="yes"/>
      <point x="626" y="447"/>
      <point x="593" y="405"/>
      <point x="518" y="393" type="curve"/>
      <point x="642" y="243" type="line" smooth="yes"/>
      <point x="661" y="220"/>
      <point x="679" y="210"/>
      <point x="709" y="205" type="curve"/>
      <point x="709" y="183" type="line"/>
      <point x="601" y="183" type="line"/>
      <point x="463" y="354" type="line" smooth="yes"/>
      <point x="445" y="379"/>
      <point x="435" y="383"/>
      <point x="403" y="383" type="curve"/>
      <point x="403" y="271" type="line" smooth="yes"/>
      <point x="403" y="217"/>
      <point x="411" y="205"/>
      <point x="475" y="205" type="curve"/>
      <point x="475" y="183" type="line"/>
      <point x="277" y="183" type="line"/>
      <point x="277" y="205" type="line"/>
      <point x="325" y="207"/>
      <point x="333" y="217"/>
      <point x="333" y="268" type="curve" smooth="yes"/>
      <point x="333" y="527" type="line" smooth="yes"/>
      <point x="333" y="578"/>
      <point x="326" y="588"/>
      <point x="283" y="590" type="curve"/>
      <point x="283" y="615" type="line"/>
      <point x="458" y="615" type="line" smooth="yes"/>
      <point x="565" y="615"/>
      <point x="626" y="574"/>
    </contour>
    <contour>
      <point x="403" y="576" type="curve" smooth="yes"/>
      <point x="403" y="416" type="line"/>
      <point x="443" y="416" type="line" smooth="yes"/>
      <point x="510" y="416"/>
      <point x="543" y="442"/>
      <point x="543" y="504" type="curve" smooth="yes"/>
      <point x="543" y="563"/>
      <point x="517" y="585"/>
      <point x="458" y="585" type="curve" smooth="yes"/>
      <point x="412" y="585" type="line" smooth="yes"/>
      <point x="405" y="585"/>
      <point x="403" y="581"/>
    </contour>
  </outline>
</glyph>
<glyph name="macron" format="2">
  <advance width="310"/>
  <unicode hex="00AF"/>
  <outline>
    <contour>
      <point x="283" y="702" type="line"/>
      <point x="13" y="702" type="line"/>
      <point x="26" y="752" type="line"/>
      <point x="296" y="752" type="line"/>
    </contour>
  </outline>
</glyph>
<glyph name="degree" format="2">
  <advance width="342"/>
  <unicode hex="00B0"/>
  <outline>
    <contour>
      <point x="139" y="660" type="curve" smooth="yes"/>
      <point x="139" y="726"/>
      <point x="193" y="780"/>
      <point x="259" y="780" type="curve" smooth="yes"/>
      <point x="325" y="780"/>
      <point x="379" y="726"/>
      <point x="379" y="660" type="curve" smooth="yes"/>
      <point x="379" y="594"/>
      <point x="325" y="540"/>
      <point x="259" y="540" type="curve" smooth="yes"/>
      <point x="193" y="540"/>
      <point x="139" y="594"/>
    </contour>
    <contour>
      <point x="169" y="660" type="curve" smooth="yes"/>
      <point x="169" y="611"/>
      <point x="210" y="570"/>
      <point x="259" y="570" type="curve" smooth="yes"/>
      <point x="308" y="570"/>
      <point x="348" y="611"/>
      <point x="348" y="660" type="curve" smooth="yes"/>
      <point x="348" y="709"/>
      <point x="308" y="749"/>
      <point x="259" y="749" type="curve" smooth="yes"/>
      <point x="210" y="749"/>
      <point x="169" y="709"/>
    </contour>
  </outline>
</glyph>
<glyph name="plusminus" format="2">
  <advance width="659"/>
  <unicode hex="00B1"/>
  <outline>
    <contour>
      <point x="351" y="234" type="line"/>
      <point x="299" y="234" type="line"/>
      <point x="299" y="443" type="line"/>
      <point x="91" y="443" type="line"/>
      <point x="91" y="493" type="line"/>
      <point x="299" y="493" type="line"/>
      <point x="299" y="702" type="line"/>
      <point x="351" y="702" type="line"/>
      <point x="351" y="493" type="line"/>
      <point x="559" y="493" type="line"/>
      <point x="559" y="443" type="line"/>
      <point x="351" y="443" type="line"/>
    </contour>
    <contour>
      <point x="559" y="145" type="line"/>
      <point x="559" y="95" type="line"/>
      <point x="91" y="95" type="line"/>
      <point x="91" y="145" type="line"/>
    </contour>
  </outline>
</glyph>
<glyph name="acute" format="2">
  <advance width="275"/>
  <unicode hex="00B4"/>
  <outline>
    <contour>
      <point x="67" y="651" type="line"/>
      <point x="20" y="651" type="line"/>
      <point x="150" y="770" type="line" smooth="yes"/>
      <point x="175" y="793"/>
      <point x="196" y="803"/>
      <point x="217" y="803" type="curve" smooth="yes"/>
      <point x="240" y="803"/>
      <point x="255" y="790"/>
      <point x="255" y="768" type="curve" smooth="yes"/>
      <point x="255" y="747"/>
      <point x="236" y="731"/>
      <point x="204" y="716" type="curve" smooth="yes"/>
    </contour>
  </outline>
</glyph>
<glyph name="paragraph" format="2">
  <advance width="548"/>
  <unicode hex="00B6"/>
  <outline>
    <contour>
      <point x="480" y="573" type="curve" smooth="yes"/>
      <point x="354" y="73" type="line" smooth="yes"/>
      <point x="286" y="-198"/>
      <point x="218" y="-260"/>
      <point x="104" y="-260" type="curve" smooth="yes"/>
      <point x="49" y="-260"/>
      <point x="8" y="-227"/>
      <point x="8" y="-184" type="curve" smooth="yes"/>
      <point x="8" y="-151"/>
      <point x="26" y="-130"/>
      <point x="57" y="-130" type="curve" smooth="yes"/>
      <point x="113" y="-130"/>
      <point x="87" y="-200"/>
      <point x="139" y="-200" type="curve" smooth="yes"/>
      <point x="170" y="-200"/>
      <point x="196" y="-165"/>
      <point x="210" y="-113" type="curve" smooth="yes"/>
      <point x="326" y="336" type="line"/>
      <point x="312" y="333"/>
      <point x="297" y="332"/>
      <point x="283" y="332" type="curve" smooth="yes"/>
      <point x="192" y="332"/>
      <point x="102" y="383"/>
      <point x="102" y="501" type="curve" smooth="yes"/>
      <point x="102" y="672"/>
      <point x="243" y="770"/>
      <point x="436" y="770" type="curve" smooth="yes"/>
      <point x="602" y="770" type="line"/>
      <point x="592" y="732" type="line"/>
      <point x="531" y="732"/>
      <point x="517" y="722"/>
    </contour>
  </outline>
</glyph>
<glyph name="cedilla" format="2">
  <advance width="232"/>
  <unicode hex="00B8"/>
  <outline>
    <contour>
      <point x="190" y="12" type="line"/>
      <point x="136" y="-72" type="line"/>
      <point x="203" y="-72"/>
      <point x="240" y="-94"/>
      <point x="240" y="-135" type="curve" smooth="yes"/>
      <point x="240" y="-204"/>
      <point x="163" y="-260"/>
      <point x="88" y="-260" type="curve" smooth="yes"/>
      <point x="29" y="-260"/>
      <point x="-11" y="-233"/>
      <point x="-11" y="-197" type="curve" smooth="yes"/>
      <point x="-11" y="-169"/>
      <point x="7" y="-148"/>
      <point x="30" y="-148" type="curve" smooth="yes"/>
      <point x="63" y="-148"/>
      <point x="43" y="-217"/>
      <point x="90" y="-217" type="curve" smooth="yes"/>
      <point x="122" y="-217"/>
      <point x="155" y="-190"/>
      <point x="155" y="-154" type="curve" smooth="yes"/>
      <point x="155" y="-127"/>
      <point x="131" y="-113"/>
      <point x="88" y="-113" type="curve" smooth="yes"/>
      <point x="75" y="-113"/>
      <point x="59" y="-114"/>
      <point x="53" y="-115" type="curve"/>
      <point x="52" y="-112" type="line"/>
      <point x="137" y="12" type="line"/>
    </contour>
  </outline>
</glyph>
<glyph name="onesuperior" format="2">
  <advance width="273"/>
  <unicode hex="00B9"/>
  <outline>
    <contour>
      <point x="287" y="780" type="line"/>
      <point x="236" y="580" type="line" smooth="yes"/>
      <point x="231" y="560"/>
      <point x="226" y="539"/>
      <point x="226" y="524" type="curve" smooth="yes"/>
      <point x="226" y="503"/>
      <point x="236" y="489"/>
      <point x="268" y="489" type="curve"/>
      <point x="263" y="468" type="line"/>
      <point x="110" y="468" type="line"/>
      <point x="115" y="489" type="line"/>
      <point x="153" y="489"/>
      <point x="170" y="502"/>
      <point x="181" y="545" type="curve" smooth="yes"/>
      <point x="221" y="704" type="line" smooth="yes"/>
      <point x="222" y="706"/>
      <point x="222" y="709"/>
      <point x="222" y="710" type="curve" smooth="yes"/>
      <point x="222" y="714"/>
      <point x="220" y="716"/>
      <point x="216" y="716" type="curve" smooth="yes"/>
      <point x="207" y="716"/>
      <point x="188" y="709"/>
      <point x="158" y="709" type="curve"/>
      <point x="165" y="731" type="line"/>
      <point x="209" y="731"/>
      <point x="239" y="754"/>
      <point x="267" y="780" type="curve"/>
    </contour>
  </outline>
</glyph>
<glyph name="ordmasculine" format="2">
  <advance width="338"/>
  <unicode hex="00BA"/>
  <outline>
    <contour>
      <point x="224" y="507" type="curve" smooth="yes"/>
      <point x="175" y="507"/>
      <point x="133" y="545"/>
      <point x="133" y="607" type="curve" smooth="yes"/>
      <point x="133" y="693"/>
      <point x="208" y="780"/>
      <point x="286" y="780" type="curve" smooth="yes"/>
      <point x="340" y="780"/>
      <point x="378" y="743"/>
      <point x="378" y="685" type="curve" smooth="yes"/>
      <point x="378" y="602"/>
      <point x="301" y="507"/>
    </contour>
    <contour>
      <point x="232" y="537" type="curve" smooth="yes"/>
      <point x="273" y="537"/>
      <point x="315" y="635"/>
      <point x="315" y="705" type="curve" smooth="yes"/>
      <point x="315" y="741"/>
      <point x="302" y="752"/>
      <point x="281" y="752" type="curve" smooth="yes"/>
      <point x="240" y="752"/>
      <point x="200" y="658"/>
      <point x="200" y="587" type="curve" smooth="yes"/>
      <point x="200" y="551"/>
      <point x="214" y="537"/>
    </contour>
  </outline>
</glyph>
<glyph name="guillemotright" format="2">
  <advance width="478"/>
  <unicode hex="00BB"/>
  <outline>
    <contour>
      <point x="421" y="262" type="line"/>
      <point x="209" y="104" type="line"/>
      <point x="195" y="124" type="line"/>
      <point x="330" y="262" type="line"/>
      <point x="268" y="400" type="line"/>
      <point x="294" y="421" type="line"/>
    </contour>
    <contour>
      <point x="250" y="262" type="line"/>
      <point x="38" y="104" type="line"/>
      <point x="24" y="124" type="line"/>
      <point x="159" y="262" type="line"/>
      <point x="97" y="400" type="line"/>
      <point x="123" y="421" type="line"/>
    </contour>
  </outline>
</glyph>
<glyph name="onequarter" format="2">
  <advance width="634"/>
  <unicode hex="00BC"/>
  <outline>
    <contour>
      <point x="668" y="770" type="line"/>
      <point x="54" y="0" type="line"/>
      <point x="-13" y="0" type="line"/>
      <point x="610" y="770" type="line"/>
    </contour>
    <contour>
      <point x="286" y="780" type="line"/>
      <point x="235" y="580" type="line" smooth="yes"/>
      <point x="230" y="560"/>
      <point x="225" y="539"/>
      <point x="225" y="524" type="curve" smooth="yes"/>
      <point x="225" y="503"/>
      <point x="235" y="489"/>
      <point x="267" y="489" type="curve"/>
      <point x="262" y="468" type="line"/>
      <point x="109" y="468" type="line"/>
      <point x="114" y="489" type="line"/>
      <point x="152" y="489"/>
      <point x="169" y="502"/>
      <point x="180" y="545" type="curve" smooth="yes"/>
      <point x="220" y="704" type="line" smooth="yes"/>
      <point x="221" y="706"/>
      <point x="221" y="709"/>
      <point x="221" y="710" type="curve" smooth="yes"/>
      <point x="221" y="714"/>
      <point x="219" y="716"/>
      <point x="215" y="716" type="curve" smooth="yes"/>
      <point x="206" y="716"/>
      <point x="187" y="709"/>
      <point x="157" y="709" type="curve"/>
      <point x="164" y="731" type="line"/>
      <point x="208" y="731"/>
      <point x="238" y="754"/>
      <point x="266" y="780" type="curve"/>
    </contour>
    <contour>
      <point x="542" y="312" type="line"/>
      <point x="498" y="138" type="line"/>
      <point x="547" y="138" type="line"/>
      <point x="541" y="114" type="line"/>
      <point x="492" y="114" type="line"/>
      <point x="459" y="0" type="line"/>
      <point x="417" y="0" type="line"/>
      <point x="446" y="114" type="line"/>
      <point x="328" y="114" type="line"/>
      <point x="333" y="134" type="line"/>
      <point x="519" y="312" type="line"/>
    </contour>
    <contour>
      <point x="370" y="138" type="line"/>
      <point x="453" y="138" type="line"/>
      <point x="482" y="243" type="line"/>
      <point x="479" y="244" type="line"/>
    </contour>
  </outline>
</glyph>
<glyph name="onehalf" format="2">
  <advance width="656"/>
  <unicode hex="00BD"/>
  <outline>
    <contour>
      <point x="669" y="770" type="line"/>
      <point x="55" y="0" type="line"/>
      <point x="-12" y="0" type="line"/>
      <point x="611" y="770" type="line"/>
    </contour>
    <contour>
      <point x="287" y="780" type="line"/>
      <point x="236" y="580" type="line" smooth="yes"/>
      <point x="231" y="560"/>
      <point x="226" y="539"/>
      <point x="226" y="524" type="curve" smooth="yes"/>
      <point x="226" y="503"/>
      <point x="236" y="489"/>
      <point x="268" y="489" type="curve"/>
      <point x="263" y="468" type="line"/>
      <point x="110" y="468" type="line"/>
      <point x="115" y="489" type="line"/>
      <point x="153" y="489"/>
      <point x="170" y="502"/>
      <point x="181" y="545" type="curve" smooth="yes"/>
      <point x="221" y="704" type="line" smooth="yes"/>
      <point x="222" y="706"/>
      <point x="222" y="709"/>
      <point x="222" y="710" type="curve" smooth="yes"/>
      <point x="222" y="714"/>
      <point x="220" y="716"/>
      <point x="216" y="716" type="curve" smooth="yes"/>
      <point x="207" y="716"/>
      <point x="188" y="709"/>
      <point x="158" y="709" type="curve"/>
      <point x="165" y="731" type="line"/>
      <point x="209" y="731"/>
      <point x="239" y="754"/>
      <point x="267" y="780" type="curve"/>
    </contour>
    <contour>
      <point x="408" y="43" type="curve"/>
      <point x="408" y="39" type="line"/>
      <point x="480" y="39" type="line" smooth="yes"/>
      <point x="506" y="39"/>
      <point x="518" y="46"/>
      <point x="533" y="69" type="curve"/>
      <point x="552" y="69" type="line"/>
      <point x="527" y="0" type="line"/>
      <point x="342" y="0" type="line"/>
      <point x="345" y="21" type="line"/>
      <point x="479" y="128"/>
      <point x="526" y="185"/>
      <point x="526" y="240" type="curve" smooth="yes"/>
      <point x="526" y="268"/>
      <point x="509" y="286"/>
      <point x="481" y="286" type="curve" smooth="yes"/>
      <point x="450" y="286"/>
      <point x="425" y="264"/>
      <point x="425" y="237" type="curve" smooth="yes"/>
      <point x="425" y="213"/>
      <point x="439" y="199"/>
      <point x="463" y="199" type="curve"/>
      <point x="458" y="185"/>
      <point x="445" y="177"/>
      <point x="428" y="177" type="curve" smooth="yes"/>
      <point x="399" y="177"/>
      <point x="380" y="197"/>
      <point x="380" y="227" type="curve" smooth="yes"/>
      <point x="380" y="274"/>
      <point x="429" y="313"/>
      <point x="489" y="313" type="curve" smooth="yes"/>
      <point x="543" y="313"/>
      <point x="578" y="283"/>
      <point x="578" y="239" type="curve" smooth="yes"/>
      <point x="578" y="185"/>
      <point x="531" y="129"/>
    </contour>
  </outline>
</glyph>
<glyph name="threequarters" format="2">
  <advance width="660"/>
  <unicode hex="00BE"/>
  <outline>
    <contour>
      <point x="694" y="770" type="line"/>
      <point x="80" y="0" type="line"/>
      <point x="13" y="0" type="line"/>
      <point x="636" y="770" type="line"/>
    </contour>
    <contour>
      <point x="568" y="312" type="line"/>
      <point x="524" y="138" type="line"/>
      <point x="573" y="138" type="line"/>
      <point x="567" y="114" type="line"/>
      <point x="518" y="114" type="line"/>
      <point x="485" y="0" type="line"/>
      <point x="443" y="0" type="line"/>
      <point x="472" y="114" type="line"/>
      <point x="354" y="114" type="line"/>
      <point x="359" y="134" type="line"/>
      <point x="545" y="312" type="line"/>
    </contour>
    <contour>
      <point x="396" y="138" type="line"/>
      <point x="479" y="138" type="line"/>
      <point x="508" y="243" type="line"/>
      <point x="505" y="244" type="line"/>
    </contour>
    <contour>
      <point x="266" y="556" type="curve" smooth="yes"/>
      <point x="266" y="591"/>
      <point x="247" y="618"/>
      <point x="221" y="618" type="curve" smooth="yes"/>
      <point x="212" y="618"/>
      <point x="198" y="615"/>
      <point x="190" y="615" type="curve" smooth="yes"/>
      <point x="181" y="615"/>
      <point x="177" y="618"/>
      <point x="177" y="623" type="curve" smooth="yes"/>
      <point x="177" y="659"/>
      <point x="284" y="622"/>
      <point x="284" y="710" type="curve" smooth="yes"/>
      <point x="284" y="741"/>
      <point x="272" y="755"/>
      <point x="248" y="755" type="curve" smooth="yes"/>
      <point x="220" y="755"/>
      <point x="200" y="739"/>
      <point x="200" y="718" type="curve" smooth="yes"/>
      <point x="200" y="702"/>
      <point x="209" y="692"/>
      <point x="225" y="692" type="curve"/>
      <point x="221" y="683"/>
      <point x="210" y="677"/>
      <point x="198" y="677" type="curve" smooth="yes"/>
      <point x="174" y="677"/>
      <point x="159" y="692"/>
      <point x="159" y="714" type="curve" smooth="yes"/>
      <point x="159" y="752"/>
      <point x="198" y="780"/>
      <point x="251" y="780" type="curve" smooth="yes"/>
      <point x="301" y="780"/>
      <point x="333" y="756"/>
      <point x="333" y="718" type="curve" smooth="yes"/>
      <point x="333" y="681"/>
      <point x="301" y="645"/>
      <point x="260" y="636" type="curve"/>
      <point x="260" y="632" type="line"/>
      <point x="297" y="623"/>
      <point x="318" y="596"/>
      <point x="318" y="562" type="curve" smooth="yes"/>
      <point x="318" y="508"/>
      <point x="263" y="464"/>
      <point x="194" y="464" type="curve" smooth="yes"/>
      <point x="142" y="464"/>
      <point x="106" y="489"/>
      <point x="106" y="526" type="curve" smooth="yes"/>
      <point x="106" y="556"/>
      <point x="131" y="582"/>
      <point x="160" y="582" type="curve" smooth="yes"/>
      <point x="174" y="582"/>
      <point x="186" y="574"/>
      <point x="188" y="564" type="curve"/>
      <point x="168" y="564"/>
      <point x="151" y="545"/>
      <point x="151" y="522" type="curve" smooth="yes"/>
      <point x="151" y="501"/>
      <point x="168" y="490"/>
      <point x="197" y="490" type="curve" smooth="yes"/>
      <point x="238" y="490"/>
      <point x="266" y="516"/>
    </contour>
  </outline>
</glyph>
<glyph name="questiondown" format="2">
  <advance width="470"/>
  <unicode hex="00BF"/>
  <outline>
    <contour>
      <point x="312" y="781" type="curve" smooth="yes"/>
      <point x="347" y="781"/>
      <point x="374" y="754"/>
      <point x="374" y="719" type="curve" smooth="yes"/>
      <point x="374" y="683"/>
      <point x="346" y="655"/>
      <point x="311" y="655" type="curve" smooth="yes"/>
      <point x="276" y="655"/>
      <point x="248" y="684"/>
      <point x="248" y="719" type="curve" smooth="yes"/>
      <point x="248" y="753"/>
      <point x="276" y="781"/>
    </contour>
    <contour>
      <point x="365" y="481" type="curve" smooth="yes"/>
      <point x="365" y="291"/>
      <point x="85" y="270"/>
      <point x="85" y="133" type="curve" smooth="yes"/>
      <point x="85" y="78"/>
      <point x="130" y="38"/>
      <point x="193" y="38" type="curve" smooth="yes"/>
      <point x="249" y="38"/>
      <point x="292" y="69"/>
      <point x="292" y="111" type="curve" smooth="yes"/>
      <point x="292" y="165"/>
      <point x="222" y="131"/>
      <point x="222" y="189" type="curve" smooth="yes"/>
      <point x="222" y="220"/>
      <point x="243" y="238"/>
      <point x="277" y="238" type="curve" smooth="yes"/>
      <point x="331" y="238"/>
      <point x="373" y="194"/>
      <point x="373" y="137" type="curve" smooth="yes"/>
      <point x="373" y="56"/>
      <point x="290" y="-10"/>
      <point x="188" y="-10" type="curve" smooth="yes"/>
      <point x="87" y="-10"/>
      <point x="21" y="54"/>
      <point x="21" y="150" type="curve" smooth="yes"/>
      <point x="21" y="352"/>
      <point x="311" y="387"/>
      <point x="311" y="497" type="curve" smooth="yes"/>
      <point x="311" y="523"/>
      <point x="295" y="537"/>
      <point x="265" y="537" type="curve" smooth="yes"/>
      <point x="233" y="537"/>
      <point x="210" y="521"/>
      <point x="191" y="486" type="curve"/>
      <point x="164" y="502" type="line"/>
      <point x="190" y="555"/>
      <point x="227" y="580"/>
      <point x="275" y="580" type="curve" smooth="yes"/>
      <point x="333" y="580"/>
      <point x="365" y="545"/>
    </contour>
  </outline>
</glyph>
<glyph name="Atilde" format="2">
  <advance width="763"/>
  <unicode hex="00C3"/>
  <outline>
    <contour>
      <point x="690" y="780" type="line"/>
      <point x="551" y="166" type="line" smooth="yes"/>
      <point x="543" y="131"/>
      <point x="539" y="105"/>
      <point x="539" y="89" type="curve" smooth="yes"/>
      <point x="539" y="50"/>
      <point x="559" y="40"/>
      <point x="632" y="40" type="curve"/>
      <point x="622" y="0" type="line"/>
      <point x="326" y="0" type="line"/>
      <point x="336" y="40" type="line"/>
      <point x="414" y="40"/>
      <point x="431" y="58"/>
      <point x="455" y="167" type="curve" smooth="yes"/>
      <point x="482" y="290" type="line"/>
      <point x="267" y="290" type="line"/>
      <point x="204" y="224" type="line" smooth="yes"/>
      <point x="95" y="110"/>
      <point x="86" y="90"/>
      <point x="86" y="74" type="curve" smooth="yes"/>
      <point x="86" y="49"/>
      <point x="106" y="40"/>
      <point x="161" y="40" type="curve"/>
      <point x="151" y="0" type="line"/>
      <point x="-108" y="0" type="line"/>
      <point x="-98" y="40" type="line"/>
      <point x="-35" y="40"/>
      <point x="22" y="85"/>
      <point x="145" y="231" type="curve" smooth="yes"/>
      <point x="606" y="780" type="line"/>
    </contour>
    <contour>
      <point x="310" y="340" type="line"/>
      <point x="491" y="340" type="line"/>
      <point x="573" y="650" type="line"/>
      <point x="569" y="650" type="line"/>
    </contour>
    <contour>
      <point x="547" y="846" type="curve"/>
      <point x="513" y="846" type="line"/>
      <point x="524" y="913"/>
      <point x="567" y="960"/>
      <point x="618" y="960" type="curve" smooth="yes"/>
      <point x="678" y="960"/>
      <point x="729" y="914"/>
      <point x="777" y="914" type="curve" smooth="yes"/>
      <point x="799" y="914"/>
      <point x="812" y="926"/>
      <point x="821" y="956" type="curve"/>
      <point x="854" y="956" type="line"/>
      <point x="847" y="896"/>
      <point x="808" y="838"/>
      <point x="755" y="838" type="curve" smooth="yes"/>
      <point x="696" y="838"/>
      <point x="633" y="886"/>
      <point x="589" y="886" type="curve" smooth="yes"/>
      <point x="567" y="886"/>
      <point x="556" y="875"/>
    </contour>
  </outline>
</glyph>
<glyph name="Adieresis" format="2">
  <advance width="763"/>
  <unicode hex="00C4"/>
  <outline>
    <contour>
      <point x="690" y="780" type="line"/>
      <point x="551" y="166" type="line" smooth="yes"/>
      <point x="543" y="131"/>
      <point x="539" y="105"/>
      <point x="539" y="89" type="curve" smooth="yes"/>
      <point x="539" y="50"/>
      <point x="559" y="40"/>
      <point x="632" y="40" type="curve"/>
      <point x="622" y="0" type="line"/>
      <point x="326" y="0" type="line"/>
      <point x="336" y="40" type="line"/>
      <point x="414" y="40"/>
      <point x="431" y="58"/>
      <point x="455" y="167" type="curve" smooth="yes"/>
      <point x="482" y="290" type="line"/>
      <point x="267" y="290" type="line"/>
      <point x="204" y="224" type="line" smooth="yes"/>
      <point x="95" y="110"/>
      <point x="86" y="90"/>
      <point x="86" y="74" type="curve" smooth="yes"/>
      <point x="86" y="49"/>
      <point x="106" y="40"/>
      <point x="161" y="40" type="curve"/>
      <point x="151" y="0" type="line"/>
      <point x="-108" y="0" type="line"/>
      <point x="-98" y="40" type="line"/>
      <point x="-35" y="40"/>
      <point x="22" y="85"/>
      <point x="145" y="231" type="curve" smooth="yes"/>
      <point x="606" y="780" type="line"/>
    </contour>
    <contour>
      <point x="310" y="340" type="line"/>
      <point x="491" y="340" type="line"/>
      <point x="573" y="650" type="line"/>
      <point x="569" y="650" type="line"/>
    </contour>
    <contour>
      <point x="551" y="910" type="curve" smooth="yes"/>
      <point x="558" y="938"/>
      <point x="586" y="960"/>
      <point x="614" y="960" type="curve" smooth="yes"/>
      <point x="638" y="960"/>
      <point x="654" y="944"/>
      <point x="654" y="923" type="curve" smooth="yes"/>
      <point x="654" y="888"/>
      <point x="619" y="859"/>
      <point x="587" y="859" type="curve" smooth="yes"/>
      <point x="564" y="859"/>
      <point x="549" y="874"/>
      <point x="549" y="895" type="curve" smooth="yes"/>
      <point x="549" y="900"/>
      <point x="549" y="905"/>
    </contour>
    <contour>
      <point x="733" y="910" type="curve" smooth="yes"/>
      <point x="740" y="938"/>
      <point x="768" y="960"/>
      <point x="797" y="960" type="curve" smooth="yes"/>
      <point x="820" y="960"/>
      <point x="836" y="944"/>
      <point x="836" y="923" type="curve" smooth="yes"/>
      <point x="836" y="888"/>
      <point x="801" y="859"/>
      <point x="770" y="859" type="curve" smooth="yes"/>
      <point x="746" y="859"/>
      <point x="731" y="874"/>
      <point x="731" y="895" type="curve" smooth="yes"/>
      <point x="731" y="900"/>
      <point x="731" y="905"/>
    </contour>
  </outline>
</glyph>
<glyph name="Ccedilla" format="2">
  <advance width="728"/>
  <unicode hex="00C7"/>
  <outline>
    <contour>
      <point x="665" y="189" type="line"/>
      <point x="584" y="64"/>
      <point x="509" y="5"/>
      <point x="409" y="-7" type="curve"/>
      <point x="368" y="-72" type="line"/>
      <point x="435" y="-72"/>
      <point x="472" y="-94"/>
      <point x="472" y="-135" type="curve" smooth="yes"/>
      <point x="472" y="-204"/>
      <point x="395" y="-260"/>
      <point x="320" y="-260" type="curve" smooth="yes"/>
      <point x="261" y="-260"/>
      <point x="221" y="-233"/>
      <point x="221" y="-197" type="curve" smooth="yes"/>
      <point x="221" y="-169"/>
      <point x="239" y="-148"/>
      <point x="262" y="-148" type="curve" smooth="yes"/>
      <point x="295" y="-148"/>
      <point x="275" y="-217"/>
      <point x="322" y="-217" type="curve" smooth="yes"/>
      <point x="354" y="-217"/>
      <point x="387" y="-190"/>
      <point x="387" y="-154" type="curve" smooth="yes"/>
      <point x="387" y="-127"/>
      <point x="363" y="-113"/>
      <point x="320" y="-113" type="curve" smooth="yes"/>
      <point x="307" y="-113"/>
      <point x="291" y="-114"/>
      <point x="285" y="-115" type="curve"/>
      <point x="284" y="-112" type="line"/>
      <point x="354" y="-10" type="line"/>
      <point x="180" y="-5"/>
      <point x="73" y="114"/>
      <point x="73" y="301" type="curve" smooth="yes"/>
      <point x="73" y="554"/>
      <point x="273" y="780"/>
      <point x="498" y="780" type="curve" smooth="yes"/>
      <point x="562" y="780"/>
      <point x="619" y="761"/>
      <point x="678" y="720" type="curve"/>
      <point x="715" y="770" type="line"/>
      <point x="752" y="770" type="line"/>
      <point x="706" y="519" type="line"/>
      <point x="668" y="519" type="line"/>
      <point x="658" y="663"/>
      <point x="608" y="728"/>
      <point x="506" y="728" type="curve" smooth="yes"/>
      <point x="331" y="728"/>
      <point x="194" y="540"/>
      <point x="194" y="300" type="curve" smooth="yes"/>
      <point x="194" y="136"/>
      <point x="260" y="52"/>
      <point x="387" y="52" type="curve" smooth="yes"/>
      <point x="483" y="52"/>
      <point x="558" y="102"/>
      <point x="629" y="213" type="curve"/>
    </contour>
  </outline>
</glyph>
<glyph name="Ecircumflex" format="2">
  <advance width="740"/>
  <unicode hex="00CA"/>
  <outline>
    <contour>
      <point x="-26" y="0" type="line"/>
      <point x="-15" y="40" type="line"/>
      <point x="73" y="40"/>
      <point x="94" y="63"/>
      <point x="119" y="158" type="curve" smooth="yes"/>
      <point x="235" y="599" type="line" smooth="yes"/>
      <point x="244" y="633"/>
      <point x="249" y="658"/>
      <point x="249" y="677" type="curve" smooth="yes"/>
      <point x="249" y="721"/>
      <point x="221" y="730"/>
      <point x="149" y="730" type="curve"/>
      <point x="160" y="770" type="line"/>
      <point x="706" y="770" type="line"/>
      <point x="706" y="568" type="line"/>
      <point x="668" y="568" type="line"/>
      <point x="634" y="695"/>
      <point x="584" y="726"/>
      <point x="500" y="726" type="curve" smooth="yes"/>
      <point x="370" y="726" type="line"/>
      <point x="292" y="429" type="line"/>
      <point x="355" y="429" type="line" smooth="yes"/>
      <point x="426" y="429"/>
      <point x="452" y="451"/>
      <point x="494" y="543" type="curve"/>
      <point x="531" y="543" type="line"/>
      <point x="471" y="247" type="line"/>
      <point x="431" y="247" type="line"/>
      <point x="433" y="267"/>
      <point x="434" y="284"/>
      <point x="434" y="299" type="curve" smooth="yes"/>
      <point x="434" y="358"/>
      <point x="415" y="385"/>
      <point x="354" y="385" type="curve" smooth="yes"/>
      <point x="279" y="385" type="line"/>
      <point x="222" y="170" type="line" smooth="yes"/>
      <point x="216" y="148"/>
      <point x="213" y="130"/>
      <point x="213" y="114" type="curve" smooth="yes"/>
      <point x="213" y="66"/>
      <point x="251" y="43"/>
      <point x="355" y="43" type="curve" smooth="yes"/>
      <point x="508" y="43"/>
      <point x="573" y="87"/>
      <point x="628" y="211" type="curve"/>
      <point x="675" y="211" type="line"/>
      <point x="597" y="0" type="line"/>
    </contour>
    <contour>
      <point x="452" y="960" type="line"/>
      <point x="562" y="960" type="line"/>
      <point x="642" y="851" type="line"/>
      <point x="597" y="851" type="line"/>
      <point x="492" y="905" type="line"/>
      <point x="359" y="851" type="line"/>
      <point x="314" y="851" type="line"/>
    </contour>
  </outline>
</glyph>
<glyph name="Igrave" format="2">
  <advance width="420"/>
  <unicode hex="00CC"/>
  <outline>
    <contour>
      <point x="329" y="566" type="curve" smooth="yes"/>
      <point x="224" y="168" type="line" smooth="yes"/>
      <point x="216" y="139"/>
      <point x="212" y="116"/>
      <point x="212" y="98" type="curve" smooth="yes"/>
      <point x="212" y="53"/>
      <point x="239" y="40"/>
      <point x="303" y="40" type="curve"/>
      <point x="291" y="0" type="line"/>
      <point x="-28" y="0" type="line"/>
      <point x="-17" y="40" type="line"/>
      <point x="62" y="40"/>
      <point x="92" y="60"/>
      <point x="118" y="158" type="curve" smooth="yes"/>
      <point x="235" y="600" type="line" smooth="yes"/>
      <point x="245" y="637"/>
      <point x="250" y="663"/>
      <point x="250" y="682" type="curve" smooth="yes"/>
      <point x="250" y="723"/>
      <point x="223" y="730"/>
      <point x="151" y="730" type="curve"/>
      <point x="162" y="770" type="line"/>
      <point x="487" y="770" type="line"/>
      <point x="476" y="730" type="line"/>
      <point x="388" y="730"/>
      <point x="365" y="702"/>
    </contour>
    <contour>
      <point x="442" y="850" type="line"/>
      <point x="382" y="850" type="line"/>
      <point x="269" y="878" type="line" smooth="yes"/>
      <point x="231" y="887"/>
      <point x="206" y="901"/>
      <point x="206" y="919" type="curve" smooth="yes"/>
      <point x="206" y="944"/>
      <point x="232" y="960"/>
      <point x="254" y="960" type="curve" smooth="yes"/>
      <point x="281" y="960"/>
      <point x="301" y="949"/>
      <point x="332" y="927" type="curve" smooth="yes"/>
    </contour>
  </outline>
</glyph>
<glyph name="Iacute" format="2">
  <advance width="420"/>
  <unicode hex="00CD"/>
  <outline>
    <contour>
      <point x="329" y="566" type="curve" smooth="yes"/>
      <point x="224" y="168" type="line" smooth="yes"/>
      <point x="216" y="139"/>
      <point x="212" y="116"/>
      <point x="212" y="98" type="curve" smooth="yes"/>
      <point x="212" y="53"/>
      <point x="239" y="40"/>
      <point x="303" y="40" type="curve"/>
      <point x="291" y="0" type="line"/>
      <point x="-28" y="0" type="line"/>
      <point x="-17" y="40" type="line"/>
      <point x="62" y="40"/>
      <point x="92" y="60"/>
      <point x="118" y="158" type="curve" smooth="yes"/>
      <point x="235" y="600" type="line" smooth="yes"/>
      <point x="245" y="637"/>
      <point x="250" y="663"/>
      <point x="250" y="682" type="curve" smooth="yes"/>
      <point x="250" y="723"/>
      <point x="223" y="730"/>
      <point x="151" y="730" type="curve"/>
      <point x="162" y="770" type="line"/>
      <point x="487" y="770" type="line"/>
      <point x="476" y="730" type="line"/>
      <point x="388" y="730"/>
      <point x="365" y="702"/>
    </contour>
    <contour>
      <point x="296" y="850" type="line"/>
      <point x="236" y="850" type="line"/>
      <point x="386" y="927" type="line" smooth="yes"/>
      <point x="429" y="949"/>
      <point x="455" y="960"/>
      <point x="482" y="960" type="curve" smooth="yes"/>
      <point x="501" y="960"/>
      <point x="512" y="951"/>
      <point x="512" y="935" type="curve" smooth="yes"/>
      <point x="512" y="908"/>
      <point x="480" y="890"/>
      <point x="423" y="878" type="curve" smooth="yes"/>
    </contour>
  </outline>
</glyph>
<glyph name="Icircumflex" format="2">
  <advance width="420"/>
  <unicode hex="00CE"/>
  <outline>
    <contour>
      <point x="329" y="566" type="curve" smooth="yes"/>
      <point x="224" y="168" type="line" smooth="yes"/>
      <point x="216" y="139"/>
      <point x="212" y="116"/>
      <point x="212" y="98" type="curve" smooth="yes"/>
      <point x="212" y="53"/>
      <point x="239" y="40"/>
      <point x="303" y="40" type="curve"/>
      <point x="291" y="0" type="line"/>
      <point x="-28" y="0" type="line"/>
      <point x="-17" y="40" type="line"/>
      <point x="62" y="40"/>
      <point x="92" y="60"/>
      <point x="118" y="158" type="curve" smooth="yes"/>
      <point x="235" y="600" type="line" smooth="yes"/>
      <point x="245" y="637"/>
      <point x="250" y="663"/>
      <point x="250" y="682" type="curve" smooth="yes"/>
      <point x="250" y="723"/>
      <point x="223" y="730"/>
      <point x="151" y="730" type="curve"/>
      <point x="162" y="770" type="line"/>
      <point x="487" y="770" type="line"/>
      <point x="476" y="730" type="line"/>
      <point x="388" y="730"/>
      <point x="365" y="702"/>
    </contour>
    <contour>
      <point x="318" y="960" type="line"/>
      <point x="428" y="960" type="line"/>
      <point x="508" y="851" type="line"/>
      <point x="463" y="851" type="line"/>
      <point x="358" y="905" type="line"/>
      <point x="225" y="851" type="line"/>
      <point x="180" y="851" type="line"/>
    </contour>
  </outline>
</glyph>
<glyph name="Idieresis" format="2">
  <advance width="420"/>
  <unicode hex="00CF"/>
  <outline>
    <contour>
      <point x="329" y="566" type="curve" smooth="yes"/>
      <point x="224" y="168" type="line" smooth="yes"/>
      <point x="216" y="139"/>
      <point x="212" y="116"/>
      <point x="212" y="98" type="curve" smooth="yes"/>
      <point x="212" y="53"/>
      <point x="239" y="40"/>
      <point x="303" y="40" type="curve"/>
      <point x="291" y="0" type="line"/>
      <point x="-28" y="0" type="line"/>
      <point x="-17" y="40" type="line"/>
      <point x="62" y="40"/>
      <point x="92" y="60"/>
      <point x="118" y="158" type="curve" smooth="yes"/>
      <point x="235" y="600" type="line" smooth="yes"/>
      <point x="245" y="637"/>
      <point x="250" y="663"/>
      <point x="250" y="682" type="curve" smooth="yes"/>
      <point x="250" y="723"/>
      <point x="223" y="730"/>
      <point x="151" y="730" type="curve"/>
      <point x="162" y="770" type="line"/>
      <point x="487" y="770" type="line"/>
      <point x="476" y="730" type="line"/>
      <point x="388" y="730"/>
      <point x="365" y="702"/>
    </contour>
    <contour>
      <point x="226" y="910" type="curve" smooth="yes"/>
      <point x="233" y="938"/>
      <point x="261" y="960"/>
      <point x="289" y="960" type="curve" smooth="yes"/>
      <point x="313" y="960"/>
      <point x="329" y="944"/>
      <point x="329" y="923" type="curve" smooth="yes"/>
      <point x="329" y="888"/>
      <point x="294" y="859"/>
      <point x="262" y="859" type="curve" smooth="yes"/>
      <point x="239" y="859"/>
      <point x="224" y="874"/>
      <point x="224" y="895" type="curve" smooth="yes"/>
      <point x="224" y="900"/>
      <point x="224" y="905"/>
    </contour>
    <contour>
      <point x="408" y="910" type="curve" smooth="yes"/>
      <point x="415" y="938"/>
      <point x="443" y="960"/>
      <point x="472" y="960" type="curve" smooth="yes"/>
      <point x="495" y="960"/>
      <point x="511" y="944"/>
      <point x="511" y="923" type="curve" smooth="yes"/>
      <point x="511" y="888"/>
      <point x="476" y="859"/>
      <point x="445" y="859" type="curve" smooth="yes"/>
      <point x="421" y="859"/>
      <point x="406" y="874"/>
      <point x="406" y="895" type="curve" smooth="yes"/>
      <point x="406" y="900"/>
      <point x="406" y="905"/>
    </contour>
  </outline>
</glyph>
<glyph name="Eth" format="2">
  <advance width="839"/>
  <unicode hex="00D0"/>
  <outline>
    <contour>
      <point x="155" y="730" type="line"/>
      <point x="168" y="770" type="line"/>
      <point x="439" y="770" type="line" smooth="yes"/>
      <point x="530" y="770"/>
      <point x="621" y="751"/>
      <point x="691" y="693" type="curve" smooth="yes"/>
      <point x="766" y="631"/>
      <point x="800" y="540"/>
      <point x="800" y="447" type="curve" smooth="yes"/>
      <point x="800" y="326"/>
      <point x="742" y="201"/>
      <point x="661" y="121" type="curve" smooth="yes"/>
      <point x="568" y="29"/>
      <point x="453" y="0"/>
      <point x="324" y="0" type="curve" smooth="yes"/>
      <point x="-26" y="0" type="line"/>
      <point x="-15" y="40" type="line"/>
      <point x="71" y="40"/>
      <point x="93" y="55"/>
      <point x="120" y="158" type="curve" smooth="yes"/>
      <point x="174" y="366" type="line"/>
      <point x="81" y="366" type="line"/>
      <point x="94" y="416" type="line"/>
      <point x="187" y="416" type="line"/>
      <point x="235" y="600" type="line" smooth="yes"/>
      <point x="240" y="618"/>
      <point x="257" y="665"/>
      <point x="257" y="688" type="curve" smooth="yes"/>
      <point x="257" y="727"/>
      <point x="207" y="730"/>
      <point x="174" y="730" type="curve" smooth="yes"/>
    </contour>
    <contour>
      <point x="358" y="669" type="curve" smooth="yes"/>
      <point x="290" y="416" type="line"/>
      <point x="404" y="416" type="line"/>
      <point x="391" y="366" type="line"/>
      <point x="276" y="366" type="line"/>
      <point x="240" y="231" type="line" smooth="yes"/>
      <point x="218" y="150"/>
      <point x="215" y="132"/>
      <point x="215" y="118" type="curve" smooth="yes"/>
      <point x="215" y="47"/>
      <point x="286" y="44"/>
      <point x="315" y="44" type="curve" smooth="yes"/>
      <point x="576" y="44"/>
      <point x="684" y="279"/>
      <point x="684" y="457" type="curve" smooth="yes"/>
      <point x="684" y="624"/>
      <point x="588" y="720"/>
      <point x="431" y="720" type="curve" smooth="yes"/>
      <point x="392" y="720"/>
      <point x="370" y="714"/>
    </contour>
  </outline>
</glyph>
<glyph name="Ntilde" format="2">
  <advance width="842"/>
  <unicode hex="00D1"/>
  <outline>
    <contour>
      <point x="620" y="0" type="line"/>
      <point x="580" y="0" type="line"/>
      <point x="318" y="602" type="line"/>
      <point x="314" y="602" type="line"/>
      <point x="200" y="168" type="line" smooth="yes"/>
      <point x="196" y="152"/>
      <point x="194" y="138"/>
      <point x="194" y="125" type="curve" smooth="yes"/>
      <point x="194" y="70"/>
      <point x="230" y="41"/>
      <point x="289" y="40" type="curve"/>
      <point x="277" y="0" type="line"/>
      <point x="-9" y="0" type="line"/>
      <point x="2" y="40" type="line"/>
      <point x="64" y="40"/>
      <point x="119" y="90"/>
      <point x="137" y="158" type="curve" smooth="yes"/>
      <point x="255" y="602" type="line" smooth="yes"/>
      <point x="258" y="613"/>
      <point x="259" y="623"/>
      <point x="259" y="633" type="curve" smooth="yes"/>
      <point x="259" y="696"/>
      <point x="200" y="729"/>
      <point x="112" y="730" type="curve"/>
      <point x="124" y="770" type="line"/>
      <point x="359" y="770" type="line"/>
      <point x="609" y="197" type="line"/>
      <point x="613" y="197" type="line"/>
      <point x="719" y="602" type="line" smooth="yes"/>
      <point x="722" y="615"/>
      <point x="724" y="628"/>
      <point x="724" y="639" type="curve" smooth="yes"/>
      <point x="724" y="696"/>
      <point x="687" y="729"/>
      <point x="640" y="730" type="curve"/>
      <point x="652" y="770" type="line"/>
      <point x="908" y="770" type="line"/>
      <point x="897" y="730" type="line"/>
      <point x="846" y="730"/>
      <point x="800" y="680"/>
      <point x="782" y="612" type="curve" smooth="yes"/>
    </contour>
    <contour>
      <point x="420" y="846" type="curve"/>
      <point x="386" y="846" type="line"/>
      <point x="397" y="913"/>
      <point x="440" y="960"/>
      <point x="491" y="960" type="curve" smooth="yes"/>
      <point x="551" y="960"/>
      <point x="602" y="914"/>
      <point x="650" y="914" type="curve" smooth="yes"/>
      <point x="672" y="914"/>
      <point x="685" y="926"/>
      <point x="694" y="956" type="curve"/>
      <point x="727" y="956" type="line"/>
      <point x="720" y="896"/>
      <point x="681" y="838"/>
      <point x="628" y="838" type="curve" smooth="yes"/>
      <point x="569" y="838"/>
      <point x="506" y="886"/>
      <point x="462" y="886" type="curve" smooth="yes"/>
      <point x="440" y="886"/>
      <point x="429" y="875"/>
    </contour>
  </outline>
</glyph>
<glyph name="Ograve" format="2">
  <advance width="820"/>
  <unicode hex="00D2"/>
  <outline>
    <contour>
      <point x="505" y="780" type="curve" smooth="yes"/>
      <point x="675" y="780"/>
      <point x="784" y="659"/>
      <point x="784" y="469" type="curve" smooth="yes"/>
      <point x="784" y="212"/>
      <point x="585" y="-10"/>
      <point x="356" y="-10" type="curve" smooth="yes"/>
      <point x="185" y="-10"/>
      <point x="74" y="114"/>
      <point x="74" y="303" type="curve" smooth="yes"/>
      <point x="74" y="558"/>
      <point x="275" y="780"/>
    </contour>
    <contour>
      <point x="505" y="728" type="curve" smooth="yes"/>
      <point x="331" y="728"/>
      <point x="195" y="540"/>
      <point x="195" y="300" type="curve" smooth="yes"/>
      <point x="195" y="131"/>
      <point x="256" y="44"/>
      <point x="370" y="44" type="curve" smooth="yes"/>
      <point x="538" y="44"/>
      <point x="663" y="234"/>
      <point x="663" y="496" type="curve" smooth="yes"/>
      <point x="663" y="655"/>
      <point x="613" y="728"/>
    </contour>
    <contour>
      <point x="625" y="850" type="line"/>
      <point x="565" y="850" type="line"/>
      <point x="452" y="878" type="line" smooth="yes"/>
      <point x="414" y="887"/>
      <point x="389" y="901"/>
      <point x="389" y="919" type="curve" smooth="yes"/>
      <point x="389" y="944"/>
      <point x="415" y="960"/>
      <point x="437" y="960" type="curve" smooth="yes"/>
      <point x="464" y="960"/>
      <point x="484" y="949"/>
      <point x="515" y="927" type="curve" smooth="yes"/>
    </contour>
  </outline>
</glyph>
<glyph name="Oacute" format="2">
  <advance width="820"/>
  <unicode hex="00D3"/>
  <outline>
    <contour>
      <point x="505" y="780" type="curve" smooth="yes"/>
      <point x="675" y="780"/>
      <point x="784" y="659"/>
      <point x="784" y="469" type="curve" smooth="yes"/>
      <point x="784" y="212"/>
      <point x="585" y="-10"/>
      <point x="356" y="-10" type="curve" smooth="yes"/>
      <point x="185" y="-10"/>
      <point x="74" y="114"/>
      <point x="74" y="303" type="curve" smooth="yes"/>
      <point x="74" y="558"/>
      <point x="275" y="780"/>
    </contour>
    <contour>
      <point x="505" y="728" type="curve" smooth="yes"/>
      <point x="331" y="728"/>
      <point x="195" y="540"/>
      <point x="195" y="300" type="curve" smooth="yes"/>
      <point x="195" y="131"/>
      <point x="256" y="44"/>
      <point x="370" y="44" type="curve" smooth="yes"/>
      <point x="538" y="44"/>
      <point x="663" y="234"/>
      <point x="663" y="496" type="curve" smooth="yes"/>
      <point x="663" y="655"/>
      <point x="613" y="728"/>
    </contour>
    <contour>
      <point x="479" y="850" type="line"/>
      <point x="419" y="850" type="line"/>
      <point x="569" y="927" type="line" smooth="yes"/>
      <point x="612" y="949"/>
      <point x="638" y="960"/>
      <point x="665" y="960" type="curve" smooth="yes"/>
      <point x="684" y="960"/>
      <point x="695" y="951"/>
      <point x="695" y="935" type="curve" smooth="yes"/>
      <point x="695" y="908"/>
      <point x="663" y="890"/>
      <point x="606" y="878" type="curve" smooth="yes"/>
    </contour>
  </outline>
</glyph>
<glyph name="Otilde" format="2">
  <advance width="820"/>
  <unicode hex="00D5"/>
  <outline>
    <contour>
      <point x="505" y="780" type="curve" smooth="yes"/>
      <point x="675" y="780"/>
      <point x="784" y="659"/>
      <point x="784" y="469" type="curve" smooth="yes"/>
      <point x="784" y="212"/>
      <point x="585" y="-10"/>
      <point x="356" y="-10" type="curve" smooth="yes"/>
      <point x="185" y="-10"/>
      <point x="74" y="114"/>
      <point x="74" y="303" type="curve" smooth="yes"/>
      <point x="74" y="558"/>
      <point x="275" y="780"/>
    </contour>
    <contour>
      <point x="505" y="728" type="curve" smooth="yes"/>
      <point x="331" y="728"/>
      <point x="195" y="540"/>
      <point x="195" y="300" type="curve" smooth="yes"/>
      <point x="195" y="131"/>
      <point x="256" y="44"/>
      <point x="370" y="44" type="curve" smooth="yes"/>
      <point x="538" y="44"/>
      <point x="663" y="234"/>
      <point x="663" y="496" type="curve" smooth="yes"/>
      <point x="663" y="655"/>
      <point x="613" y="728"/>
    </contour>
    <contour>
      <point x="415" y="846" type="curve"/>
      <point x="381" y="846" type="line"/>
      <point x="392" y="913"/>
      <point x="435" y="960"/>
      <point x="486" y="960" type="curve" smooth="yes"/>
      <point x="546" y="960"/>
      <point x="597" y="914"/>
      <point x="645" y="914" type="curve" smooth="yes"/>
      <point x="667" y="914"/>
      <point x="680" y="926"/>
      <point x="689" y="956" type="curve"/>
      <point x="722" y="956" type="line"/>
      <point x="715" y="896"/>
      <point x="676" y="838"/>
      <point x="623" y="838" type="curve" smooth="yes"/>
      <point x="564" y="838"/>
      <point x="501" y="886"/>
      <point x="457" y="886" type="curve" smooth="yes"/>
      <point x="435" y="886"/>
      <point x="424" y="875"/>
    </contour>
  </outline>
</glyph>
<glyph name="multiply" format="2">
  <advance width="543"/>
  <unicode hex="00D7"/>
  <outline>
    <contour>
      <point x="119" y="147" type="line"/>
      <point x="82" y="184" type="line"/>
      <point x="237" y="339" type="line"/>
      <point x="83" y="493" type="line"/>
      <point x="118" y="528" type="line"/>
      <point x="272" y="374" type="line"/>
      <point x="427" y="529" type="line"/>
      <point x="464" y="492" type="line"/>
      <point x="309" y="337" type="line"/>
      <point x="463" y="183" type="line"/>
      <point x="428" y="148" type="line"/>
      <point x="274" y="302" type="line"/>
    </contour>
  </outline>
</glyph>
<glyph name="Udieresis" format="2">
  <advance width="808"/>
  <unicode hex="00DC"/>
  <outline>
    <contour>
      <point x="134" y="353" type="curve" smooth="yes"/>
      <point x="200" y="599" type="line" smooth="yes"/>
      <point x="207" y="626"/>
      <point x="213" y="657"/>
      <point x="213" y="676" type="curve" smooth="yes"/>
      <point x="213" y="716"/>
      <point x="188" y="730"/>
      <point x="119" y="730" type="curve"/>
      <point x="132" y="770" type="line"/>
      <point x="451" y="770" type="line"/>
      <point x="440" y="730" type="line"/>
      <point x="345" y="730"/>
      <point x="329" y="710"/>
      <point x="292" y="565" type="curve" smooth="yes"/>
      <point x="227" y="314" type="line" smooth="yes"/>
      <point x="218" y="280"/>
      <point x="214" y="248"/>
      <point x="214" y="220" type="curve" smooth="yes"/>
      <point x="214" y="114"/>
      <point x="270" y="46"/>
      <point x="375" y="46" type="curve" smooth="yes"/>
      <point x="507" y="46"/>
      <point x="577" y="150"/>
      <point x="622" y="290" type="curve" smooth="yes"/>
      <point x="663" y="418"/>
      <point x="702" y="624"/>
      <point x="702" y="670" type="curve" smooth="yes"/>
      <point x="702" y="710"/>
      <point x="662" y="727"/>
      <point x="600" y="730" type="curve"/>
      <point x="612" y="770" type="line"/>
      <point x="875" y="770" type="line"/>
      <point x="863" y="730" type="line"/>
      <point x="798" y="730"/>
      <point x="779" y="712"/>
      <point x="753" y="592" type="curve" smooth="yes"/>
      <point x="710" y="392" type="line" smooth="yes"/>
      <point x="653" y="128"/>
      <point x="539" y="-10"/>
      <point x="367" y="-10" type="curve" smooth="yes"/>
      <point x="198" y="-10"/>
      <point x="114" y="73"/>
      <point x="114" y="219" type="curve" smooth="yes"/>
      <point x="114" y="261"/>
      <point x="121" y="304"/>
    </contour>
    <contour>
      <point x="402" y="910" type="curve" smooth="yes"/>
      <point x="409" y="938"/>
      <point x="437" y="960"/>
      <point x="465" y="960" type="curve" smooth="yes"/>
      <point x="489" y="960"/>
      <point x="505" y="944"/>
      <point x="505" y="923" type="curve" smooth="yes"/>
      <point x="505" y="888"/>
      <point x="470" y="859"/>
      <point x="438" y="859" type="curve" smooth="yes"/>
      <point x="415" y="859"/>
      <point x="400" y="874"/>
      <point x="400" y="895" type="curve" smooth="yes"/>
      <point x="400" y="900"/>
      <point x="400" y="905"/>
    </contour>
    <contour>
      <point x="584" y="910" type="curve" smooth="yes"/>
      <point x="591" y="938"/>
      <point x="619" y="960"/>
      <point x="648" y="960" type="curve" smooth="yes"/>
      <point x="671" y="960"/>
      <point x="687" y="944"/>
      <point x="687" y="923" type="curve" smooth="yes"/>
      <point x="687" y="888"/>
      <point x="652" y="859"/>
      <point x="621" y="859" type="curve" smooth="yes"/>
      <point x="597" y="859"/>
      <point x="582" y="874"/>
      <point x="582" y="895" type="curve" smooth="yes"/>
      <point x="582" y="900"/>
      <point x="582" y="905"/>
    </contour>
  </outline>
</glyph>
<glyph name="Yacute" format="2">
  <advance width="689"/>
  <unicode hex="00DD"/>
  <outline>
    <contour>
      <point x="440" y="348" type="line"/>
      <point x="393" y="168" type="line" smooth="yes"/>
      <point x="385" y="139"/>
      <point x="381" y="116"/>
      <point x="381" y="98" type="curve" smooth="yes"/>
      <point x="381" y="53"/>
      <point x="411" y="40"/>
      <point x="482" y="40" type="curve"/>
      <point x="470" y="0" type="line"/>
      <point x="131" y="0" type="line"/>
      <point x="142" y="40" type="line"/>
      <point x="228" y="40"/>
      <point x="261" y="59"/>
      <point x="287" y="158" type="curve" smooth="yes"/>
      <point x="333" y="336" type="line"/>
      <point x="213" y="624" type="line" smooth="yes"/>
      <point x="173" y="720"/>
      <point x="156" y="730"/>
      <point x="90" y="730" type="curve"/>
      <point x="101" y="770" type="line"/>
      <point x="382" y="770" type="line"/>
      <point x="371" y="730" type="line"/>
      <point x="321" y="730"/>
      <point x="300" y="721"/>
      <point x="300" y="695" type="curve" smooth="yes"/>
      <point x="300" y="686"/>
      <point x="302" y="673"/>
      <point x="308" y="659" type="curve" smooth="yes"/>
      <point x="415" y="401" type="line"/>
      <point x="554" y="604" type="line" smooth="yes"/>
      <point x="583" y="646"/>
      <point x="595" y="663"/>
      <point x="595" y="687" type="curve" smooth="yes"/>
      <point x="595" y="715"/>
      <point x="567" y="730"/>
      <point x="521" y="730" type="curve"/>
      <point x="532" y="770" type="line"/>
      <point x="779" y="770" type="line"/>
      <point x="768" y="730" type="line"/>
      <point x="714" y="730"/>
      <point x="701" y="716"/>
      <point x="654" y="649" type="curve" smooth="yes"/>
    </contour>
    <contour>
      <point x="425" y="850" type="line"/>
      <point x="365" y="850" type="line"/>
      <point x="515" y="927" type="line" smooth="yes"/>
      <point x="558" y="949"/>
      <point x="584" y="960"/>
      <point x="611" y="960" type="curve" smooth="yes"/>
      <point x="630" y="960"/>
      <point x="641" y="951"/>
      <point x="641" y="935" type="curve" smooth="yes"/>
      <point x="641" y="908"/>
      <point x="609" y="890"/>
      <point x="552" y="878" type="curve" smooth="yes"/>
    </contour>
  </outline>
</glyph>
<glyph name="Thorn" format="2">
  <advance width="705"/>
  <unicode hex="00DE"/>
  <outline>
    <contour>
      <point x="343" y="613" type="curve" smooth="yes"/>
      <point x="338" y="596" type="line"/>
      <point x="447" y="596" type="line" smooth="yes"/>
      <point x="607" y="596"/>
      <point x="688" y="539"/>
      <point x="688" y="425" type="curve" smooth="yes"/>
      <point x="688" y="273"/>
      <point x="543" y="176"/>
      <point x="315" y="176" type="curve" smooth="yes"/>
      <point x="225" y="176" type="line"/>
      <point x="220" y="157" type="line" smooth="yes"/>
      <point x="212" y="127"/>
      <point x="209" y="108"/>
      <point x="209" y="93" type="curve" smooth="yes"/>
      <point x="209" y="50"/>
      <point x="236" y="38"/>
      <point x="327" y="38" type="curve"/>
      <point x="316" y="0" type="line"/>
      <point x="-36" y="0" type="line"/>
      <point x="-25" y="38" type="line"/>
      <point x="68" y="41"/>
      <point x="89" y="58"/>
      <point x="114" y="152" type="curve" smooth="yes"/>
      <point x="239" y="618" type="line" smooth="yes"/>
      <point x="247" y="647"/>
      <point x="250" y="667"/>
      <point x="250" y="682" type="curve" smooth="yes"/>
      <point x="250" y="719"/>
      <point x="230" y="730"/>
      <point x="159" y="732" type="curve"/>
      <point x="170" y="770" type="line"/>
      <point x="523" y="770" type="line"/>
      <point x="512" y="732" type="line"/>
      <point x="393" y="732"/>
      <point x="373" y="718"/>
    </contour>
    <contour>
      <point x="321" y="532" type="curve" smooth="yes"/>
      <point x="239" y="226" type="line"/>
      <point x="310" y="226" type="line" smooth="yes"/>
      <point x="463" y="226"/>
      <point x="561" y="312"/>
      <point x="561" y="446" type="curve" smooth="yes"/>
      <point x="561" y="520"/>
      <point x="525" y="549"/>
      <point x="434" y="549" type="curve" smooth="yes"/>
      <point x="342" y="549" type="line" smooth="yes"/>
      <point x="332" y="549"/>
      <point x="324" y="543"/>
    </contour>
  </outline>
</glyph>
<glyph name="germandbls" format="2">
  <advance width="586"/>
  <unicode hex="00DF"/>
  <outline>
    <contour>
      <point x="-24" y="-113" type="curve" smooth="yes"/>
      <point x="150" y="586" type="line" smooth="yes"/>
      <point x="188" y="740"/>
      <point x="278" y="830"/>
      <point x="399" y="830" type="curve" smooth="yes"/>
      <point x="503" y="830"/>
      <point x="567" y="774"/>
      <point x="567" y="683" type="curve" smooth="yes"/>
      <point x="567" y="578"/>
      <point x="486" y="488"/>
      <point x="373" y="467" type="curve"/>
      <point x="371" y="462" type="line"/>
      <point x="467" y="462"/>
      <point x="526" y="395"/>
      <point x="526" y="288" type="curve" smooth="yes"/>
      <point x="526" y="133"/>
      <point x="396" y="-10"/>
      <point x="256" y="-10" type="curve" smooth="yes"/>
      <point x="200" y="-10"/>
      <point x="166" y="14"/>
      <point x="166" y="53" type="curve" smooth="yes"/>
      <point x="166" y="88"/>
      <point x="191" y="118"/>
      <point x="220" y="118" type="curve" smooth="yes"/>
      <point x="269" y="118"/>
      <point x="225" y="36"/>
      <point x="283" y="36" type="curve" smooth="yes"/>
      <point x="357" y="36"/>
      <point x="421" y="148"/>
      <point x="421" y="278" type="curve" smooth="yes"/>
      <point x="421" y="387"/>
      <point x="373" y="436"/>
      <point x="265" y="436" type="curve"/>
      <point x="278" y="487" type="line"/>
      <point x="373" y="487"/>
      <point x="430" y="535"/>
      <point x="459" y="633" type="curve" smooth="yes"/>
      <point x="462" y="655"/>
      <point x="467" y="673"/>
      <point x="467" y="691" type="curve" smooth="yes"/>
      <point x="467" y="754"/>
      <point x="435" y="780"/>
      <point x="367" y="780" type="curve" smooth="yes"/>
      <point x="308" y="780"/>
      <point x="278" y="728"/>
      <point x="245" y="592" type="curve" smooth="yes"/>
      <point x="120" y="73" type="line" smooth="yes"/>
      <point x="62" y="-166"/>
      <point x="-6" y="-260"/>
      <point x="-120" y="-260" type="curve" smooth="yes"/>
      <point x="-186" y="-260"/>
      <point x="-226" y="-231"/>
      <point x="-226" y="-183" type="curve" smooth="yes"/>
      <point x="-226" y="-151"/>
      <point x="-207" y="-130"/>
      <point x="-177" y="-130" type="curve" smooth="yes"/>
      <point x="-122" y="-130"/>
      <point x="-145" y="-200"/>
      <point x="-97" y="-200" type="curve" smooth="yes"/>
      <point x="-65" y="-200"/>
      <point x="-38" y="-168"/>
    </contour>
  </outline>
</glyph>
<glyph name="aacute" format="2">
  <advance width="570"/>
  <unicode hex="00E1"/>
  <outline>
    <contour>
      <point x="332" y="488" type="curve" smooth="yes"/>
      <point x="230" y="488"/>
      <point x="105" y="278"/>
      <point x="105" y="140" type="curve" smooth="yes"/>
      <point x="105" y="92"/>
      <point x="127" y="61"/>
      <point x="161" y="61" type="curve" smooth="yes"/>
      <point x="254" y="61"/>
      <point x="373" y="303"/>
      <point x="373" y="432" type="curve" smooth="yes"/>
      <point x="373" y="467"/>
      <point x="357" y="488"/>
    </contour>
    <contour>
      <point x="414" y="474" type="curve"/>
      <point x="435" y="530" type="line"/>
      <point x="518" y="530" type="line"/>
      <point x="461" y="377" type="line" smooth="yes"/>
      <point x="423" y="276"/>
      <point x="387" y="135"/>
      <point x="387" y="91" type="curve" smooth="yes"/>
      <point x="387" y="72"/>
      <point x="394" y="62"/>
      <point x="406" y="62" type="curve" smooth="yes"/>
      <point x="425" y="62"/>
      <point x="462" y="105"/>
      <point x="506" y="166" type="curve"/>
      <point x="532" y="145" type="line"/>
      <point x="477" y="47"/>
      <point x="408" y="-10"/>
      <point x="348" y="-10" type="curve" smooth="yes"/>
      <point x="317" y="-10"/>
      <point x="300" y="12"/>
      <point x="300" y="65" type="curve" smooth="yes"/>
      <point x="300" y="77"/>
      <point x="301" y="92"/>
      <point x="303" y="118" type="curve"/>
      <point x="299" y="119" type="line"/>
      <point x="260" y="45"/>
      <point x="184" y="-10"/>
      <point x="118" y="-10" type="curve" smooth="yes"/>
      <point x="51" y="-10"/>
      <point x="10" y="45"/>
      <point x="10" y="135" type="curve" smooth="yes"/>
      <point x="10" y="319"/>
      <point x="182" y="540"/>
      <point x="326" y="540" type="curve" smooth="yes"/>
      <point x="370" y="540"/>
      <point x="397" y="520"/>
    </contour>
    <contour>
      <point x="327" y="651" type="line"/>
      <point x="280" y="651" type="line"/>
      <point x="410" y="770" type="line" smooth="yes"/>
      <point x="435" y="793"/>
      <point x="456" y="803"/>
      <point x="477" y="803" type="curve" smooth="yes"/>
      <point x="500" y="803"/>
      <point x="515" y="790"/>
      <point x="515" y="768" type="curve" smooth="yes"/>
      <point x="515" y="747"/>
      <point x="496" y="731"/>
      <point x="464" y="716" type="curve" smooth="yes"/>
    </contour>
  </outline>
</glyph>
<glyph name="atilde" format="2">
  <advance width="570"/>
  <unicode hex="00E3"/>
  <outline>
    <contour>
      <point x="332" y="488" type="curve" smooth="yes"/>
      <point x="230" y="488"/>
      <point x="105" y="278"/>
      <point x="105" y="140" type="curve" smooth="yes"/>
      <point x="105" y="92"/>
      <point x="127" y="61"/>
      <point x="161" y="61" type="curve" smooth="yes"/>
      <point x="254" y="61"/>
      <point x="373" y="303"/>
      <point x="373" y="432" type="curve" smooth="yes"/>
      <point x="373" y="467"/>
      <point x="357" y="488"/>
    </contour>
    <contour>
      <point x="414" y="474" type="curve"/>
      <point x="435" y="530" type="line"/>
      <point x="518" y="530" type="line"/>
      <point x="461" y="377" type="line" smooth="yes"/>
      <point x="423" y="276"/>
      <point x="387" y="135"/>
      <point x="387" y="91" type="curve" smooth="yes"/>
      <point x="387" y="72"/>
      <point x="394" y="62"/>
      <point x="406" y="62" type="curve" smooth="yes"/>
      <point x="425" y="62"/>
      <point x="462" y="105"/>
      <point x="506" y="166" type="curve"/>
      <point x="532" y="145" type="line"/>
      <point x="477" y="47"/>
      <point x="408" y="-10"/>
      <point x="348" y="-10" type="curve" smooth="yes"/>
      <point x="317" y="-10"/>
      <point x="300" y="12"/>
      <point x="300" y="65" type="curve" smooth="yes"/>
      <point x="300" y="77"/>
      <point x="301" y="92"/>
      <point x="303" y="118" type="curve"/>
      <point x="299" y="119" type="line"/>
      <point x="260" y="45"/>
      <point x="184" y="-10"/>
      <point x="118" y="-10" type="curve" smooth="yes"/>
      <point x="51" y="-10"/>
      <point x="10" y="45"/>
      <point x="10" y="135" type="curve" smooth="yes"/>
      <point x="10" y="319"/>
      <point x="182" y="540"/>
      <point x="326" y="540" type="curve" smooth="yes"/>
      <point x="370" y="540"/>
      <point x="397" y="520"/>
    </contour>
    <contour>
      <point x="233" y="660" type="curve"/>
      <point x="199" y="660" type="line"/>
      <point x="210" y="727"/>
      <point x="253" y="774"/>
      <point x="304" y="774" type="curve" smooth="yes"/>
      <point x="324" y="774"/>
      <point x="351" y="767"/>
      <point x="390" y="750" type="curve" smooth="yes"/>
      <point x="429" y="733"/>
      <point x="446" y="728"/>
      <point x="463" y="728" type="curve" smooth="yes"/>
      <point x="485" y="728"/>
      <point x="498" y="740"/>
      <point x="507" y="770" type="curve"/>
      <point x="540" y="770" type="line"/>
      <point x="537" y="743"/>
      <point x="524" y="709"/>
      <point x="508" y="688" type="curve" smooth="yes"/>
      <point x="491" y="665"/>
      <point x="467" y="652"/>
      <point x="441" y="652" type="curve" smooth="yes"/>
      <point x="423" y="652"/>
      <point x="404" y="658"/>
      <point x="357" y="677" type="curve" smooth="yes"/>
      <point x="312" y="694"/>
      <point x="291" y="700"/>
      <point x="275" y="700" type="curve" smooth="yes"/>
      <point x="253" y="700"/>
      <point x="242" y="689"/>
    </contour>
  </outline>
</glyph>
<glyph name="aring" format="2">
  <advance width="570"/>
  <unicode hex="00E5"/>
  <outline>
    <contour>
      <point x="332" y="488" type="curve" smooth="yes"/>
      <point x="230" y="488"/>
      <point x="105" y="278"/>
      <point x="105" y="140" type="curve" smooth="yes"/>
      <point x="105" y="92"/>
      <point x="127" y="61"/>
      <point x="161" y="61" type="curve" smooth="yes"/>
      <point x="254" y="61"/>
      <point x="373" y="303"/>
      <point x="373" y="432" type="curve" smooth="yes"/>
      <point x="373" y="467"/>
      <point x="357" y="488"/>
    </contour>
    <contour>
      <point x="414" y="474" type="curve"/>
      <point x="435" y="530" type="line"/>
      <point x="518" y="530" type="line"/>
      <point x="461" y="377" type="line" smooth="yes"/>
      <point x="423" y="276"/>
      <point x="387" y="135"/>
      <point x="387" y="91" type="curve" smooth="yes"/>
      <point x="387" y="72"/>
      <point x="394" y="62"/>
      <point x="406" y="62" type="curve" smooth="yes"/>
      <point x="425" y="62"/>
      <point x="462" y="105"/>
      <point x="506" y="166" type="curve"/>
      <point x="532" y="145" type="line"/>
      <point x="477" y="47"/>
      <point x="408" y="-10"/>
      <point x="348" y="-10" type="curve" smooth="yes"/>
      <point x="317" y="-10"/>
      <point x="300" y="12"/>
      <point x="300" y="65" type="curve" smooth="yes"/>
      <point x="300" y="77"/>
      <point x="301" y="92"/>
      <point x="303" y="118" type="curve"/>
      <point x="299" y="119" type="line"/>
      <point x="260" y="45"/>
      <point x="184" y="-10"/>
      <point x="118" y="-10" type="curve" smooth="yes"/>
      <point x="51" y="-10"/>
      <point x="10" y="45"/>
      <point x="10" y="135" type="curve" smooth="yes"/>
      <point x="10" y="319"/>
      <point x="182" y="540"/>
      <point x="326" y="540" type="curve" smooth="yes"/>
      <point x="370" y="540"/>
      <point x="397" y="520"/>
    </contour>
    <contour>
      <point x="280" y="718" type="curve" smooth="yes"/>
      <point x="280" y="774"/>
      <point x="332" y="830"/>
      <point x="393" y="830" type="curve" smooth="yes"/>
      <point x="435" y="830"/>
      <point x="461" y="805"/>
      <point x="461" y="768" type="curve" smooth="yes"/>
      <point x="461" y="707"/>
      <point x="405" y="656"/>
      <point x="346" y="656" type="curve" smooth="yes"/>
      <point x="305" y="656"/>
      <point x="280" y="681"/>
    </contour>
    <contour>
      <point x="383" y="788" type="curve" smooth="yes"/>
      <point x="354" y="788"/>
      <point x="322" y="763"/>
      <point x="322" y="730" type="curve" smooth="yes"/>
      <point x="322" y="710"/>
      <point x="336" y="696"/>
      <point x="359" y="696" type="curve" smooth="yes"/>
      <point x="388" y="696"/>
      <point x="418" y="723"/>
      <point x="418" y="756" type="curve" smooth="yes"/>
      <point x="418" y="775"/>
      <point x="404" y="788"/>
    </contour>
  </outline>
</glyph>
<glyph name="ae" format="2">
  <advance width="756"/>
  <unicode hex="00E6"/>
  <outline>
    <contour>
      <point x="639" y="154" type="curve"/>
      <point x="671" y="133" type="line"/>
      <point x="614" y="39"/>
      <point x="540" y="-10"/>
      <point x="457" y="-10" type="curve" smooth="yes"/>
      <point x="375" y="-10"/>
      <point x="324" y="39"/>
      <point x="315" y="124" type="curve"/>
      <point x="269" y="48"/>
      <point x="184" y="-10"/>
      <point x="117" y="-10" type="curve" smooth="yes"/>
      <point x="51" y="-10"/>
      <point x="10" y="45"/>
      <point x="10" y="135" type="curve" smooth="yes"/>
      <point x="10" y="319"/>
      <point x="182" y="540"/>
      <point x="326" y="540" type="curve" smooth="yes"/>
      <point x="370" y="540"/>
      <point x="397" y="520"/>
      <point x="414" y="474" type="curve"/>
      <point x="442" y="550" type="line"/>
      <point x="525" y="550" type="line"/>
      <point x="495" y="476" type="line"/>
      <point x="498" y="474" type="line"/>
      <point x="534" y="522"/>
      <point x="586" y="540"/>
      <point x="634" y="540" type="curve" smooth="yes"/>
      <point x="698" y="540"/>
      <point x="743" y="504"/>
      <point x="743" y="453" type="curve" smooth="yes"/>
      <point x="743" y="360"/>
      <point x="594" y="249"/>
      <point x="416" y="209" type="curve"/>
      <point x="413" y="190"/>
      <point x="412" y="172"/>
      <point x="412" y="154" type="curve" smooth="yes"/>
      <point x="412" y="83"/>
      <point x="439" y="45"/>
      <point x="489" y="45" type="curve" smooth="yes"/>
      <point x="538" y="45"/>
      <point x="594" y="86"/>
    </contour>
    <contour>
      <point x="329" y="488" type="curve" smooth="yes"/>
      <point x="238" y="488"/>
      <point x="105" y="284"/>
      <point x="105" y="144" type="curve" smooth="yes"/>
      <point x="105" y="92"/>
      <point x="126" y="61"/>
      <point x="160" y="61" type="curve" smooth="yes"/>
      <point x="255" y="61"/>
      <point x="373" y="271"/>
      <point x="373" y="427" type="curve" smooth="yes"/>
      <point x="373" y="468"/>
      <point x="359" y="488"/>
    </contour>
    <contour>
      <point x="614" y="493" type="curve" smooth="yes"/>
      <point x="544" y="493"/>
      <point x="460" y="376"/>
      <point x="426" y="254" type="curve"/>
      <point x="554" y="289"/>
      <point x="649" y="371"/>
      <point x="649" y="451" type="curve" smooth="yes"/>
      <point x="649" y="479"/>
      <point x="637" y="493"/>
    </contour>
  </outline>
</glyph>
<glyph name="ccedilla" format="2">
  <advance width="441"/>
  <unicode hex="00E7"/>
  <outline>
    <contour>
      <point x="338" y="181" type="curve"/>
      <point x="373" y="161" type="line"/>
      <point x="329" y="73"/>
      <point x="271" y="16"/>
      <point x="206" y="-3" type="curve"/>
      <point x="162" y="-72" type="line"/>
      <point x="229" y="-72"/>
      <point x="266" y="-94"/>
      <point x="266" y="-135" type="curve" smooth="yes"/>
      <point x="266" y="-204"/>
      <point x="189" y="-260"/>
      <point x="114" y="-260" type="curve" smooth="yes"/>
      <point x="55" y="-260"/>
      <point x="15" y="-233"/>
      <point x="15" y="-197" type="curve" smooth="yes"/>
      <point x="15" y="-169"/>
      <point x="33" y="-148"/>
      <point x="56" y="-148" type="curve" smooth="yes"/>
      <point x="89" y="-148"/>
      <point x="69" y="-217"/>
      <point x="116" y="-217" type="curve" smooth="yes"/>
      <point x="148" y="-217"/>
      <point x="181" y="-190"/>
      <point x="181" y="-154" type="curve" smooth="yes"/>
      <point x="181" y="-127"/>
      <point x="157" y="-113"/>
      <point x="114" y="-113" type="curve" smooth="yes"/>
      <point x="101" y="-113"/>
      <point x="85" y="-114"/>
      <point x="79" y="-115" type="curve"/>
      <point x="78" y="-112" type="line"/>
      <point x="148" y="-10" type="line"/>
      <point x="67" y="-5"/>
      <point x="14" y="58"/>
      <point x="14" y="153" type="curve" smooth="yes"/>
      <point x="14" y="331"/>
      <point x="179" y="540"/>
      <point x="320" y="540" type="curve" smooth="yes"/>
      <point x="383" y="540"/>
      <point x="430" y="501"/>
      <point x="430" y="449" type="curve" smooth="yes"/>
      <point x="430" y="416"/>
      <point x="408" y="393"/>
      <point x="378" y="393" type="curve" smooth="yes"/>
      <point x="348" y="393"/>
      <point x="326" y="415"/>
      <point x="326" y="443" type="curve" smooth="yes"/>
      <point x="326" y="460"/>
      <point x="334" y="470"/>
      <point x="334" y="479" type="curve" smooth="yes"/>
      <point x="334" y="488"/>
      <point x="326" y="493"/>
      <point x="310" y="493" type="curve" smooth="yes"/>
      <point x="221" y="493"/>
      <point x="119" y="311"/>
      <point x="119" y="152" type="curve" smooth="yes"/>
      <point x="119" y="88"/>
      <point x="145" y="49"/>
      <point x="189" y="49" type="curve" smooth="yes"/>
      <point x="236" y="49"/>
      <point x="298" y="105"/>
    </contour>
  </outline>
</glyph>
<glyph name="edieresis" format="2">
  <advance width="456"/>
  <unicode hex="00EB"/>
  <outline>
    <contour>
      <point x="339" y="154" type="curve"/>
      <point x="371" y="133" type="line"/>
      <point x="314" y="39"/>
      <point x="240" y="-10"/>
      <point x="157" y="-10" type="curve" smooth="yes"/>
      <point x="66" y="-10"/>
      <point x="14" y="50"/>
      <point x="14" y="153" type="curve" smooth="yes"/>
      <point x="14" y="337"/>
      <point x="182" y="540"/>
      <point x="334" y="540" type="curve" smooth="yes"/>
      <point x="398" y="540"/>
      <point x="443" y="504"/>
      <point x="443" y="453" type="curve" smooth="yes"/>
      <point x="443" y="360"/>
      <point x="294" y="249"/>
      <point x="116" y="209" type="curve"/>
      <point x="113" y="190"/>
      <point x="112" y="172"/>
      <point x="112" y="154" type="curve" smooth="yes"/>
      <point x="112" y="83"/>
      <point x="139" y="45"/>
      <point x="189" y="45" type="curve" smooth="yes"/>
      <point x="238" y="45"/>
      <point x="294" y="86"/>
    </contour>
    <contour>
      <point x="314" y="493" type="curve" smooth="yes"/>
      <point x="244" y="493"/>
      <point x="160" y="376"/>
      <point x="126" y="254" type="curve"/>
      <point x="254" y="289"/>
      <point x="349" y="371"/>
      <point x="349" y="451" type="curve" smooth="yes"/>
      <point x="349" y="479"/>
      <point x="337" y="493"/>
    </contour>
    <contour>
      <point x="219" y="709" type="curve" smooth="yes"/>
      <point x="227" y="742"/>
      <point x="259" y="767"/>
      <point x="292" y="767" type="curve" smooth="yes"/>
      <point x="320" y="767"/>
      <point x="337" y="749"/>
      <point x="337" y="724" type="curve" smooth="yes"/>
      <point x="337" y="684"/>
      <point x="298" y="651"/>
      <point x="261" y="651" type="curve" smooth="yes"/>
      <point x="234" y="651"/>
      <point x="217" y="668"/>
      <point x="217" y="693" type="curve" smooth="yes"/>
      <point x="217" y="698"/>
      <point x="217" y="703"/>
    </contour>
    <contour>
      <point x="386" y="709" type="curve" smooth="yes"/>
      <point x="394" y="742"/>
      <point x="426" y="767"/>
      <point x="459" y="767" type="curve" smooth="yes"/>
      <point x="487" y="767"/>
      <point x="504" y="749"/>
      <point x="504" y="724" type="curve" smooth="yes"/>
      <point x="504" y="684"/>
      <point x="465" y="651"/>
      <point x="428" y="651" type="curve" smooth="yes"/>
      <point x="401" y="651"/>
      <point x="384" y="668"/>
      <point x="384" y="693" type="curve" smooth="yes"/>
      <point x="384" y="698"/>
      <point x="384" y="703"/>
    </contour>
  </outline>
</glyph>
<glyph name="eth" format="2">
  <advance width="581"/>
  <unicode hex="00F0"/>
  <outline>
    <contour>
      <point x="301" y="449" type="curve" smooth="yes"/>
      <point x="195" y="449"/>
      <point x="141" y="260"/>
      <point x="141" y="152" type="curve" smooth="yes"/>
      <point x="141" y="77"/>
      <point x="167" y="35"/>
      <point x="216" y="35" type="curve" smooth="yes"/>
      <point x="339" y="35"/>
      <point x="399" y="227"/>
      <point x="399" y="330" type="curve" smooth="yes"/>
      <point x="399" y="405"/>
      <point x="364" y="449"/>
    </contour>
    <contour>
      <point x="225" y="746" type="curve"/>
      <point x="252" y="780" type="line"/>
      <point x="310" y="762"/>
      <point x="368" y="740"/>
      <point x="408" y="712" type="curve"/>
      <point x="557" y="787" type="line"/>
      <point x="577" y="749" type="line"/>
      <point x="443" y="681" type="line"/>
      <point x="513" y="621"/>
      <point x="545" y="534"/>
      <point x="545" y="430" type="curve" smooth="yes"/>
      <point x="545" y="184"/>
      <point x="379" y="-10"/>
      <point x="204" y="-10" type="curve" smooth="yes"/>
      <point x="93" y="-10"/>
      <point x="21" y="68"/>
      <point x="21" y="180" type="curve" smooth="yes"/>
      <point x="21" y="349"/>
      <point x="162" y="498"/>
      <point x="303" y="498" type="curve" smooth="yes"/>
      <point x="374" y="498"/>
      <point x="420" y="468"/>
      <point x="434" y="412" type="curve"/>
      <point x="438" y="414" type="line"/>
      <point x="437" y="520"/>
      <point x="418" y="591"/>
      <point x="374" y="646" type="curve"/>
      <point x="225" y="571" type="line"/>
      <point x="206" y="609" type="line"/>
      <point x="345" y="680" type="line"/>
      <point x="321" y="703"/>
      <point x="287" y="722"/>
    </contour>
  </outline>
</glyph>
<glyph name="ntilde" format="2">
  <advance width="627"/>
  <unicode hex="00F1"/>
  <outline>
    <contour>
      <point x="425" y="488" type="curve" smooth="yes"/>
      <point x="362" y="488"/>
      <point x="253" y="345"/>
      <point x="199" y="200" type="curve" smooth="yes"/>
      <point x="125" y="0" type="line"/>
      <point x="37" y="0" type="line"/>
      <point x="111" y="229" type="line" smooth="yes"/>
      <point x="158" y="375"/>
      <point x="174" y="432"/>
      <point x="174" y="458" type="curve" smooth="yes"/>
      <point x="174" y="475"/>
      <point x="168" y="485"/>
      <point x="157" y="485" type="curve" smooth="yes"/>
      <point x="127" y="485"/>
      <point x="73" y="405"/>
      <point x="47" y="324" type="curve"/>
      <point x="17" y="339" type="line"/>
      <point x="64" y="475"/>
      <point x="121" y="540"/>
      <point x="195" y="540" type="curve" smooth="yes"/>
      <point x="238" y="540"/>
      <point x="254" y="518"/>
      <point x="254" y="461" type="curve" smooth="yes"/>
      <point x="254" y="427"/>
      <point x="249" y="398"/>
      <point x="237" y="370" type="curve"/>
      <point x="240" y="367" type="line"/>
      <point x="308" y="486"/>
      <point x="376" y="540"/>
      <point x="458" y="540" type="curve" smooth="yes"/>
      <point x="516" y="540"/>
      <point x="548" y="511"/>
      <point x="548" y="459" type="curve" smooth="yes"/>
      <point x="548" y="424"/>
      <point x="536" y="381"/>
      <point x="495" y="262" type="curve" smooth="yes"/>
      <point x="464" y="172"/>
      <point x="442" y="108"/>
      <point x="442" y="83" type="curve" smooth="yes"/>
      <point x="442" y="73"/>
      <point x="445" y="68"/>
      <point x="452" y="68" type="curve" smooth="yes"/>
      <point x="471" y="68"/>
      <point x="505" y="97"/>
      <point x="566" y="165" type="curve"/>
      <point x="592" y="151" type="line"/>
      <point x="549" y="72"/>
      <point x="449" y="-10"/>
      <point x="396" y="-10" type="curve" smooth="yes"/>
      <point x="363" y="-10"/>
      <point x="342" y="22"/>
      <point x="342" y="70" type="curve" smooth="yes"/>
      <point x="342" y="107"/>
      <point x="350" y="132"/>
      <point x="421" y="333" type="curve" smooth="yes"/>
      <point x="445" y="402"/>
      <point x="452" y="427"/>
      <point x="452" y="451" type="curve" smooth="yes"/>
      <point x="452" y="476"/>
      <point x="443" y="488"/>
    </contour>
    <contour>
      <point x="246" y="660" type="curve"/>
      <point x="212" y="660" type="line"/>
      <point x="223" y="727"/>
      <point x="266" y="774"/>
      <point x="317" y="774" type="curve" smooth="yes"/>
      <point x="337" y="774"/>
      <point x="364" y="767"/>
      <point x="403" y="750" type="curve" smooth="yes"/>
      <point x="442" y="733"/>
      <point x="459" y="728"/>
      <point x="476" y="728" type="curve" smooth="yes"/>
      <point x="498" y="728"/>
      <point x="511" y="740"/>
      <point x="520" y="770" type="curve"/>
      <point x="553" y="770" type="line"/>
      <point x="550" y="743"/>
      <point x="537" y="709"/>
      <point x="521" y="688" type="curve" smooth="yes"/>
      <point x="504" y="665"/>
      <point x="480" y="652"/>
      <point x="454" y="652" type="curve" smooth="yes"/>
      <point x="436" y="652"/>
      <point x="417" y="658"/>
      <point x="370" y="677" type="curve" smooth="yes"/>
      <point x="325" y="694"/>
      <point x="304" y="700"/>
      <point x="288" y="700" type="curve" smooth="yes"/>
      <point x="266" y="700"/>
      <point x="255" y="689"/>
    </contour>
  </outline>
</glyph>
<glyph name="oacute" format="2">
  <advance width="523"/>
  <unicode hex="00F3"/>
  <outline>
    <contour>
      <point x="187" y="-10" type="curve" smooth="yes"/>
      <point x="97" y="-10"/>
      <point x="24" y="65"/>
      <point x="24" y="191" type="curve" smooth="yes"/>
      <point x="24" y="365"/>
      <point x="165" y="540"/>
      <point x="311" y="540" type="curve" smooth="yes"/>
      <point x="407" y="540"/>
      <point x="476" y="464"/>
      <point x="476" y="348" type="curve" smooth="yes"/>
      <point x="476" y="180"/>
      <point x="331" y="-10"/>
    </contour>
    <contour>
      <point x="193" y="40" type="curve" smooth="yes"/>
      <point x="283" y="40"/>
      <point x="380" y="249"/>
      <point x="380" y="400" type="curve" smooth="yes"/>
      <point x="380" y="470"/>
      <point x="353" y="493"/>
      <point x="311" y="493" type="curve" smooth="yes"/>
      <point x="221" y="493"/>
      <point x="129" y="290"/>
      <point x="129" y="142" type="curve" smooth="yes"/>
      <point x="129" y="68"/>
      <point x="156" y="40"/>
    </contour>
    <contour>
      <point x="308" y="651" type="line"/>
      <point x="261" y="651" type="line"/>
      <point x="391" y="770" type="line" smooth="yes"/>
      <point x="416" y="793"/>
      <point x="437" y="803"/>
      <point x="458" y="803" type="curve" smooth="yes"/>
      <point x="481" y="803"/>
      <point x="496" y="790"/>
      <point x="496" y="768" type="curve" smooth="yes"/>
      <point x="496" y="747"/>
      <point x="477" y="731"/>
      <point x="445" y="716" type="curve" smooth="yes"/>
    </contour>
  </outline>
</glyph>
<glyph name="otilde" format="2">
  <advance width="523"/>
  <unicode hex="00F5"/>
  <outline>
    <contour>
      <point x="187" y="-10" type="curve" smooth="yes"/>
      <point x="97" y="-10"/>
      <point x="24" y="65"/>
      <point x="24" y="191" type="curve" smooth="yes"/>
      <point x="24" y="365"/>
      <point x="165" y="540"/>
      <point x="311" y="540" type="curve" smooth="yes"/>
      <point x="407" y="540"/>
      <point x="476" y="464"/>
      <point x="476" y="348" type="curve" smooth="yes"/>
      <point x="476" y="180"/>
      <point x="331" y="-10"/>
    </contour>
    <contour>
      <point x="193" y="40" type="curve" smooth="yes"/>
      <point x="283" y="40"/>
      <point x="380" y="249"/>
      <point x="380" y="400" type="curve" smooth="yes"/>
      <point x="380" y="470"/>
      <point x="353" y="493"/>
      <point x="311" y="493" type="curve" smooth="yes"/>
      <point x="221" y="493"/>
      <point x="129" y="290"/>
      <point x="129" y="142" type="curve" smooth="yes"/>
      <point x="129" y="68"/>
      <point x="156" y="40"/>
    </contour>
    <contour>
      <point x="214" y="660" type="curve"/>
      <point x="180" y="660" type="line"/>
      <point x="191" y="727"/>
      <point x="234" y="774"/>
      <point x="285" y="774" type="curve" smooth="yes"/>
      <point x="305" y="774"/>
      <point x="332" y="767"/>
      <point x="371" y="750" type="curve" smooth="yes"/>
      <point x="410" y="733"/>
      <point x="427" y="728"/>
      <point x="444" y="728" type="curve" smooth="yes"/>
      <point x="466" y="728"/>
      <point x="479" y="740"/>
      <point x="488" y="770" type="curve"/>
      <point x="521" y="770" type="line"/>
      <point x="518" y="743"/>
      <point x="505" y="709"/>
      <point x="489" y="688" type="curve" smooth="yes"/>
      <point x="472" y="665"/>
      <point x="448" y="652"/>
      <point x="422" y="652" type="curve" smooth="yes"/>
      <point x="404" y="652"/>
      <point x="385" y="658"/>
      <point x="338" y="677" type="curve" smooth="yes"/>
      <point x="293" y="694"/>
      <point x="272" y="700"/>
      <point x="256" y="700" type="curve" smooth="yes"/>
      <point x="234" y="700"/>
      <point x="223" y="689"/>
    </contour>
  </outline>
</glyph>
<glyph name="odieresis" format="2">
  <advance width="523"/>
  <unicode hex="00F6"/>
  <outline>
    <contour>
      <point x="187" y="-10" type="curve" smooth="yes"/>
      <point x="97" y="-10"/>
      <point x="24" y="65"/>
      <point x="24" y="191" type="curve" smooth="yes"/>
      <point x="24" y="365"/>
      <point x="165" y="540"/>
      <point x="311" y="540" type="curve" smooth="yes"/>
      <point x="407" y="540"/>
      <point x="476" y="464"/>
      <point x="476" y="348" type="curve" smooth="yes"/>
      <point x="476" y="180"/>
      <point x="331" y="-10"/>
    </contour>
    <contour>
      <point x="193" y="40" type="curve" smooth="yes"/>
      <point x="283" y="40"/>
      <point x="380" y="249"/>
      <point x="380" y="400" type="curve" smooth="yes"/>
      <point x="380" y="470"/>
      <point x="353" y="493"/>
      <point x="311" y="493" type="curve" smooth="yes"/>
      <point x="221" y="493"/>
      <point x="129" y="290"/>
      <point x="129" y="142" type="curve" smooth="yes"/>
      <point x="129" y="68"/>
      <point x="156" y="40"/>
    </contour>
    <contour>
      <point x="235" y="709" type="curve" smooth="yes"/>
      <point x="243" y="742"/>
      <point x="275" y="767"/>
      <point x="308" y="767" type="curve" smooth="yes"/>
      <point x="336" y="767"/>
      <point x="353" y="749"/>
      <point x="353" y="724" type="curve" smooth="yes"/>
      <point x="353" y="684"/>
      <point x="314" y="651"/>
      <point x="277" y="651" type="curve" smooth="yes"/>
      <point x="250" y="651"/>
      <point x="233" y="668"/>
      <point x="233" y="693" type="curve" smooth="yes"/>
      <point x="233" y="698"/>
      <point x="233" y="703"/>
    </contour>
    <contour>
      <point x="402" y="709" type="curve" smooth="yes"/>
      <point x="410" y="742"/>
      <point x="442" y="767"/>
      <point x="475" y="767" type="curve" smooth="yes"/>
      <point x="503" y="767"/>
      <point x="520" y="749"/>
      <point x="520" y="724" type="curve" smooth="yes"/>
      <point x="520" y="684"/>
      <point x="481" y="651"/>
      <point x="444" y="651" type="curve" smooth="yes"/>
      <point x="417" y="651"/>
      <point x="400" y="668"/>
      <point x="400" y="693" type="curve" smooth="yes"/>
      <point x="400" y="698"/>
      <point x="400" y="703"/>
    </contour>
  </outline>
</glyph>
<glyph name="divide" format="2">
  <advance width="602"/>
  <unicode hex="00F7"/>
  <outline>
    <contour>
      <point x="243" y="162" type="curve" smooth="yes"/>
      <point x="243" y="199"/>
      <point x="272" y="228"/>
      <point x="308" y="228" type="curve" smooth="yes"/>
      <point x="345" y="228"/>
      <point x="374" y="199"/>
      <point x="374" y="162" type="curve" smooth="yes"/>
      <point x="374" y="126"/>
      <point x="345" y="97"/>
      <point x="308" y="97" type="curve" smooth="yes"/>
      <point x="272" y="97"/>
      <point x="243" y="126"/>
    </contour>
    <contour>
      <point x="243" y="512" type="curve" smooth="yes"/>
      <point x="243" y="549"/>
      <point x="272" y="578"/>
      <point x="308" y="578" type="curve" smooth="yes"/>
      <point x="345" y="578"/>
      <point x="374" y="549"/>
      <point x="374" y="512" type="curve" smooth="yes"/>
      <point x="374" y="476"/>
      <point x="345" y="447"/>
      <point x="308" y="447" type="curve" smooth="yes"/>
      <point x="272" y="447"/>
      <point x="243" y="476"/>
    </contour>
    <contour>
      <point x="540" y="363" type="line"/>
      <point x="540" y="313" type="line"/>
      <point x="72" y="313" type="line"/>
      <point x="72" y="363" type="line"/>
    </contour>
  </outline>
</glyph>
<glyph name="thorn" format="2">
  <advance width="540"/>
  <unicode hex="00FE"/>
  <outline>
    <contour>
      <point x="164" y="-10" type="curve" smooth="yes"/>
      <point x="133" y="-10"/>
      <point x="109" y="1"/>
      <point x="91" y="25" type="curve"/>
      <point x="88" y="24" type="line"/>
      <point x="51" y="-121" type="line" smooth="yes"/>
      <point x="46" y="-141"/>
      <point x="43" y="-154"/>
      <point x="43" y="-164" type="curve" smooth="yes"/>
      <point x="43" y="-197"/>
      <point x="67" y="-209"/>
      <point x="136" y="-210" type="curve"/>
      <point x="130" y="-250" type="line"/>
      <point x="-153" y="-250" type="line"/>
      <point x="-147" y="-210" type="line"/>
      <point x="-91" y="-210"/>
      <point x="-69" y="-199"/>
      <point x="-59" y="-164" type="curve" smooth="yes"/>
      <point x="198" y="691" type="line" smooth="yes"/>
      <point x="205" y="715"/>
      <point x="213" y="743"/>
      <point x="213" y="755" type="curve" smooth="yes"/>
      <point x="213" y="779"/>
      <point x="189" y="790"/>
      <point x="137" y="790" type="curve"/>
      <point x="145" y="820" type="line"/>
      <point x="337" y="829" type="line"/>
      <point x="210" y="444" type="line"/>
      <point x="213" y="442" type="line"/>
      <point x="252" y="503"/>
      <point x="313" y="539"/>
      <point x="378" y="539" type="curve" smooth="yes"/>
      <point x="459" y="539"/>
      <point x="505" y="484"/>
      <point x="505" y="397" type="curve" smooth="yes"/>
      <point x="505" y="207"/>
      <point x="326" y="-10"/>
    </contour>
    <contour>
      <point x="180" y="41" type="curve" smooth="yes"/>
      <point x="273" y="41"/>
      <point x="406" y="256"/>
      <point x="406" y="405" type="curve" smooth="yes"/>
      <point x="406" y="451"/>
      <point x="382" y="486"/>
      <point x="351" y="486" type="curve" smooth="yes"/>
      <point x="261" y="486"/>
      <point x="129" y="270"/>
      <point x="129" y="123" type="curve" smooth="yes"/>
      <point x="129" y="69"/>
      <point x="146" y="41"/>
    </contour>
  </outline>
</glyph>
<glyph name="ydieresis" format="2">
  <advance width="515"/>
  <unicode hex="00FF"/>
  <outline>
    <contour>
      <point x="215" y="11" type="curve"/>
      <point x="161" y="292" type="line" smooth="yes"/>
      <point x="140" y="402"/>
      <point x="118" y="437"/>
      <point x="94" y="437" type="curve" smooth="yes"/>
      <point x="69" y="437"/>
      <point x="49" y="400"/>
      <point x="28" y="318" type="curve"/>
      <point x="-9" y="328" type="line"/>
      <point x="19" y="452"/>
      <point x="80" y="540"/>
      <point x="139" y="540" type="curve" smooth="yes"/>
      <point x="164" y="540"/>
      <point x="180" y="524"/>
      <point x="199" y="474" type="curve" smooth="yes"/>
      <point x="215" y="432"/>
      <point x="235" y="359"/>
      <point x="254" y="269" type="curve" smooth="yes"/>
      <point x="288" y="108" type="line"/>
      <point x="292" y="108" type="line"/>
      <point x="342" y="171"/>
      <point x="402" y="278"/>
      <point x="402" y="359" type="curve" smooth="yes"/>
      <point x="402" y="386"/>
      <point x="395" y="447"/>
      <point x="395" y="470" type="curve" smooth="yes"/>
      <point x="395" y="518"/>
      <point x="424" y="540"/>
      <point x="451" y="540" type="curve" smooth="yes"/>
      <point x="485" y="540"/>
      <point x="501" y="506"/>
      <point x="501" y="467" type="curve" smooth="yes"/>
      <point x="501" y="358"/>
      <point x="374" y="106"/>
      <point x="241" y="-66" type="curve" smooth="yes"/>
      <point x="140" y="-197"/>
      <point x="54" y="-260"/>
      <point x="-20" y="-260" type="curve" smooth="yes"/>
      <point x="-75" y="-260"/>
      <point x="-111" y="-225"/>
      <point x="-111" y="-181" type="curve" smooth="yes"/>
      <point x="-111" y="-148"/>
      <point x="-90" y="-125"/>
      <point x="-60" y="-125" type="curve" smooth="yes"/>
      <point x="-6" y="-125"/>
      <point x="-20" y="-200"/>
      <point x="18" y="-200" type="curve" smooth="yes"/>
      <point x="68" y="-200"/>
      <point x="185" y="-75"/>
    </contour>
    <contour>
      <point x="178" y="709" type="curve" smooth="yes"/>
      <point x="186" y="742"/>
      <point x="218" y="767"/>
      <point x="251" y="767" type="curve" smooth="yes"/>
      <point x="279" y="767"/>
      <point x="296" y="749"/>
      <point x="296" y="724" type="curve" smooth="yes"/>
      <point x="296" y="684"/>
      <point x="257" y="651"/>
      <point x="220" y="651" type="curve" smooth="yes"/>
      <point x="193" y="651"/>
      <point x="176" y="668"/>
      <point x="176" y="693" type="curve" smooth="yes"/>
      <point x="176" y="698"/>
      <point x="176" y="703"/>
    </contour>
    <contour>
      <point x="345" y="709" type="curve" smooth="yes"/>
      <point x="353" y="742"/>
      <point x="385" y="767"/>
      <point x="418" y="767" type="curve" smooth="yes"/>
      <point x="446" y="767"/>
      <point x="463" y="749"/>
      <point x="463" y="724" type="curve" smooth="yes"/>
      <point x="463" y="684"/>
      <point x="424" y="651"/>
      <point x="387" y="651" type="curve" smooth="yes"/>
      <point x="360" y="651"/>
      <point x="343" y="668"/>
      <point x="343" y="693" type="curve" smooth="yes"/>
      <point x="343" y="698"/>
      <point x="343" y="703"/>
    </contour>
  </outline>
</glyph>
<glyph name="Abreve" format="2">
  <advance width="763"/>
  <unicode hex="0102"/>
  <outline>
    <contour>
      <point x="690" y="780" type="line"/>
      <point x="551" y="166" type="line" smooth="yes"/>
      <point x="543" y="131"/>
      <point x="539" y="105"/>
      <point x="539" y="89" type="curve" smooth="yes"/>
      <point x="539" y="50"/>
      <point x="559" y="40"/>
      <point x="632" y="40" type="curve"/>
      <point x="622" y="0" type="line"/>
      <point x="326" y="0" type="line"/>
      <point x="336" y="40" type="line"/>
      <point x="414" y="40"/>
      <point x="431" y="58"/>
      <point x="455" y="167" type="curve" smooth="yes"/>
      <point x="482" y="290" type="line"/>
      <point x="267" y="290" type="line"/>
      <point x="204" y="224" type="line" smooth="yes"/>
      <point x="95" y="110"/>
      <point x="86" y="90"/>
      <point x="86" y="74" type="curve" smooth="yes"/>
      <point x="86" y="49"/>
      <point x="106" y="40"/>
      <point x="161" y="40" type="curve"/>
      <point x="151" y="0" type="line"/>
      <point x="-108" y="0" type="line"/>
      <point x="-98" y="40" type="line"/>
      <point x="-35" y="40"/>
      <point x="22" y="85"/>
      <point x="145" y="231" type="curve" smooth="yes"/>
      <point x="606" y="780" type="line"/>
    </contour>
    <contour>
      <point x="310" y="340" type="line"/>
      <point x="491" y="340" type="line"/>
      <point x="573" y="650" type="line"/>
      <point x="569" y="650" type="line"/>
    </contour>
    <contour>
      <point x="808" y="960" type="curve"/>
      <point x="845" y="960" type="line"/>
      <point x="822" y="893"/>
      <point x="751" y="845"/>
      <point x="676" y="845" type="curve" smooth="yes"/>
      <point x="609" y="845"/>
      <point x="566" y="882"/>
      <point x="566" y="935" type="curve" smooth="yes"/>
      <point x="566" y="943"/>
      <point x="567" y="951"/>
      <point x="569" y="960" type="curve"/>
      <point x="605" y="960" type="line"/>
      <point x="608" y="932"/>
      <point x="644" y="914"/>
      <point x="694" y="914" type="curve" smooth="yes"/>
      <point x="744" y="914"/>
      <point x="789" y="932"/>
    </contour>
  </outline>
</glyph>
<glyph name="Aogonek" format="2">
  <advance width="763"/>
  <unicode hex="0104"/>
  <outline>
    <contour>
      <point x="523" y="-121" type="curve"/>
      <point x="552" y="-152" type="line"/>
      <point x="511" y="-205"/>
      <point x="455" y="-234"/>
      <point x="395" y="-234" type="curve" smooth="yes"/>
      <point x="334" y="-234"/>
      <point x="298" y="-202"/>
      <point x="298" y="-149" type="curve" smooth="yes"/>
      <point x="298" y="-91"/>
      <point x="343" y="-37"/>
      <point x="423" y="0" type="curve"/>
      <point x="326" y="0" type="line"/>
      <point x="336" y="40" type="line"/>
      <point x="414" y="40"/>
      <point x="431" y="58"/>
      <point x="455" y="167" type="curve" smooth="yes"/>
      <point x="482" y="290" type="line"/>
      <point x="267" y="290" type="line"/>
      <point x="204" y="224" type="line" smooth="yes"/>
      <point x="95" y="110"/>
      <point x="86" y="90"/>
      <point x="86" y="74" type="curve" smooth="yes"/>
      <point x="86" y="49"/>
      <point x="106" y="40"/>
      <point x="161" y="40" type="curve"/>
      <point x="151" y="0" type="line"/>
      <point x="-108" y="0" type="line"/>
      <point x="-98" y="40" type="line"/>
      <point x="-35" y="40"/>
      <point x="22" y="85"/>
      <point x="145" y="231" type="curve" smooth="yes"/>
      <point x="606" y="780" type="line"/>
      <point x="690" y="780" type="line"/>
      <point x="551" y="166" type="line" smooth="yes"/>
      <point x="543" y="131"/>
      <point x="539" y="105"/>
      <point x="539" y="89" type="curve" smooth="yes"/>
      <point x="539" y="50"/>
      <point x="559" y="40"/>
      <point x="632" y="40" type="curve"/>
      <point x="622" y="0" type="line"/>
      <point x="488" y="0" type="line"/>
      <point x="422" y="-35"/>
      <point x="377" y="-86"/>
      <point x="377" y="-126" type="curve" smooth="yes"/>
      <point x="377" y="-153"/>
      <point x="400" y="-174"/>
      <point x="428" y="-174" type="curve" smooth="yes"/>
      <point x="453" y="-174"/>
      <point x="488" y="-155"/>
    </contour>
    <contour>
      <point x="310" y="340" type="line"/>
      <point x="491" y="340" type="line"/>
      <point x="573" y="650" type="line"/>
      <point x="569" y="650" type="line"/>
    </contour>
  </outline>
</glyph>
<glyph name="cacute" format="2">
  <advance width="441"/>
  <unicode hex="0107"/>
  <outline>
    <contour>
      <point x="338" y="181" type="curve"/>
      <point x="373" y="161" type="line"/>
      <point x="318" y="51"/>
      <point x="241" y="-10"/>
      <point x="157" y="-10" type="curve" smooth="yes"/>
      <point x="71" y="-10"/>
      <point x="14" y="55"/>
      <point x="14" y="153" type="curve" smooth="yes"/>
      <point x="14" y="331"/>
      <point x="179" y="540"/>
      <point x="320" y="540" type="curve" smooth="yes"/>
      <point x="383" y="540"/>
      <point x="430" y="501"/>
      <point x="430" y="449" type="curve" smooth="yes"/>
      <point x="430" y="416"/>
      <point x="408" y="393"/>
      <point x="378" y="393" type="curve" smooth="yes"/>
      <point x="348" y="393"/>
      <point x="326" y="415"/>
      <point x="326" y="443" type="curve" smooth="yes"/>
      <point x="326" y="460"/>
      <point x="334" y="470"/>
      <point x="334" y="479" type="curve" smooth="yes"/>
      <point x="334" y="488"/>
      <point x="326" y="493"/>
      <point x="310" y="493" type="curve" smooth="yes"/>
      <point x="221" y="493"/>
      <point x="119" y="311"/>
      <point x="119" y="152" type="curve" smooth="yes"/>
      <point x="119" y="88"/>
      <point x="145" y="49"/>
      <point x="189" y="49" type="curve" smooth="yes"/>
      <point x="236" y="49"/>
      <point x="298" y="105"/>
    </contour>
    <contour>
      <point x="304" y="651" type="line"/>
      <point x="257" y="651" type="line"/>
      <point x="387" y="770" type="line" smooth="yes"/>
      <point x="412" y="793"/>
      <point x="433" y="803"/>
      <point x="454" y="803" type="curve" smooth="yes"/>
      <point x="477" y="803"/>
      <point x="492" y="790"/>
      <point x="492" y="768" type="curve" smooth="yes"/>
      <point x="492" y="747"/>
      <point x="473" y="731"/>
      <point x="441" y="716" type="curve" smooth="yes"/>
    </contour>
  </outline>
</glyph>
<glyph name="Cdotaccent" format="2">
  <advance width="728"/>
  <unicode hex="010A"/>
  <outline>
    <contour>
      <point x="665" y="189" type="line"/>
      <point x="573" y="47"/>
      <point x="488" y="-10"/>
      <point x="365" y="-10" type="curve" smooth="yes"/>
      <point x="185" y="-10"/>
      <point x="73" y="110"/>
      <point x="73" y="301" type="curve" smooth="yes"/>
      <point x="73" y="554"/>
      <point x="273" y="780"/>
      <point x="498" y="780" type="curve" smooth="yes"/>
      <point x="562" y="780"/>
      <point x="619" y="761"/>
      <point x="678" y="720" type="curve"/>
      <point x="715" y="770" type="line"/>
      <point x="752" y="770" type="line"/>
      <point x="706" y="519" type="line"/>
      <point x="668" y="519" type="line"/>
      <point x="658" y="663"/>
      <point x="608" y="728"/>
      <point x="506" y="728" type="curve" smooth="yes"/>
      <point x="331" y="728"/>
      <point x="194" y="540"/>
      <point x="194" y="300" type="curve" smooth="yes"/>
      <point x="194" y="136"/>
      <point x="260" y="52"/>
      <point x="387" y="52" type="curve" smooth="yes"/>
      <point x="483" y="52"/>
      <point x="558" y="102"/>
      <point x="629" y="213" type="curve"/>
    </contour>
    <contour>
      <point x="500" y="904" type="curve" smooth="yes"/>
      <point x="500" y="935"/>
      <point x="524" y="959"/>
      <point x="552" y="959" type="curve" smooth="yes"/>
      <point x="583" y="959"/>
      <point x="607" y="935"/>
      <point x="607" y="904" type="curve" smooth="yes"/>
      <point x="607" y="876"/>
      <point x="583" y="852"/>
      <point x="552" y="852" type="curve" smooth="yes"/>
      <point x="524" y="852"/>
      <point x="500" y="876"/>
    </contour>
  </outline>
</glyph>
<glyph name="Ccaron" format="2">
  <advance width="728"/>
  <unicode hex="010C"/>
  <outline>
    <contour>
      <point x="665" y="189" type="line"/>
      <point x="573" y="47"/>
      <point x="488" y="-10"/>
      <point x="365" y="-10" type="curve" smooth="yes"/>
      <point x="185" y="-10"/>
      <point x="73" y="110"/>
      <point x="73" y="301" type="curve" smooth="yes"/>
      <point x="73" y="554"/>
      <point x="273" y="780"/>
      <point x="498" y="780" type="curve" smooth="yes"/>
      <point x="562" y="780"/>
      <point x="619" y="761"/>
      <point x="678" y="720" type="curve"/>
      <point x="715" y="770" type="line"/>
      <point x="752" y="770" type="line"/>
      <point x="706" y="519" type="line"/>
      <point x="668" y="519" type="line"/>
      <point x="658" y="663"/>
      <point x="608" y="728"/>
      <point x="506" y="728" type="curve" smooth="yes"/>
      <point x="331" y="728"/>
      <point x="194" y="540"/>
      <point x="194" y="300" type="curve" smooth="yes"/>
      <point x="194" y="136"/>
      <point x="260" y="52"/>
      <point x="387" y="52" type="curve" smooth="yes"/>
      <point x="483" y="52"/>
      <point x="558" y="102"/>
      <point x="629" y="213" type="curve"/>
    </contour>
    <contour>
      <point x="577" y="851" type="line"/>
      <point x="467" y="851" type="line"/>
      <point x="387" y="960" type="line"/>
      <point x="432" y="960" type="line"/>
      <point x="537" y="906" type="line"/>
      <point x="670" y="960" type="line"/>
      <point x="715" y="960" type="line"/>
    </contour>
  </outline>
</glyph>
